SplineFontDB: 3.2
FontName: TacticalMath-Regular
FullName: Tactical Math Regular
FamilyName: Tactical Math
Weight: Regular
Copyright: 2020 Da Real Royal
Version: 0.2
ItalicAngle: -1
UnderlinePosition: -49.152
UnderlineWidth: 51.2
Ascent: 819
Descent: 205
InvalidEm: 0
LayerCount: 2
Layer: 0 1 "Back" 1
Layer: 1 1 "Fore" 0
XUID: [1021 889 -1627666241 17537]
BaseHoriz: 0
StyleMap: 0x0040
FSType: 0
OS2Version: 0
OS2_WeightWidthSlopeOnly: 0
OS2_UseTypoMetrics: 0
CreationTime: 1607446369
ModificationTime: 1608137663
PfmFamily: 17
TTFWeight: 400
TTFWidth: 5
LineGap: 92
VLineGap: 0
OS2TypoAscent: 0
OS2TypoAOffset: 1
OS2TypoDescent: 0
OS2TypoDOffset: 1
OS2TypoLinegap: 92
OS2WinAscent: 0
OS2WinAOffset: 1
OS2WinDescent: 0
OS2WinDOffset: 1
HheadAscent: 0
HheadAOffset: 1
HheadDescent: 0
HheadDOffset: 1
OS2Vendor: 'PfEd'
MarkAttachClasses: 1
DEI: 91125
TtTable: fpgm
PUSHB_1
 0
FDEF
PUSHB_1
 0
SZP0
MPPEM
PUSHB_1
 42
LT
IF
PUSHB_1
 74
SROUND
EIF
PUSHB_1
 0
SWAP
MIAP[rnd]
RTG
PUSHB_1
 6
CALL
IF
RTDG
EIF
MPPEM
PUSHB_1
 42
LT
IF
RDTG
EIF
DUP
MDRP[rp0,rnd,grey]
PUSHB_1
 1
SZP0
MDAP[no-rnd]
RTG
ENDF
PUSHB_1
 1
FDEF
DUP
MDRP[rp0,min,white]
PUSHB_1
 12
CALL
ENDF
PUSHB_1
 2
FDEF
MPPEM
GT
IF
RCVT
SWAP
EIF
POP
ENDF
PUSHB_1
 3
FDEF
ROUND[Black]
RTG
DUP
PUSHB_1
 64
LT
IF
POP
PUSHB_1
 64
EIF
ENDF
PUSHB_1
 4
FDEF
PUSHB_1
 6
CALL
IF
POP
SWAP
POP
ROFF
IF
MDRP[rp0,min,rnd,black]
ELSE
MDRP[min,rnd,black]
EIF
ELSE
MPPEM
GT
IF
IF
MIRP[rp0,min,rnd,black]
ELSE
MIRP[min,rnd,black]
EIF
ELSE
SWAP
POP
PUSHB_1
 5
CALL
IF
PUSHB_1
 70
SROUND
EIF
IF
MDRP[rp0,min,rnd,black]
ELSE
MDRP[min,rnd,black]
EIF
EIF
EIF
RTG
ENDF
PUSHB_1
 5
FDEF
GFV
NOT
AND
ENDF
PUSHB_1
 6
FDEF
PUSHB_2
 34
 1
GETINFO
LT
IF
PUSHB_1
 32
GETINFO
NOT
NOT
ELSE
PUSHB_1
 0
EIF
ENDF
PUSHB_1
 7
FDEF
PUSHB_2
 36
 1
GETINFO
LT
IF
PUSHB_1
 64
GETINFO
NOT
NOT
ELSE
PUSHB_1
 0
EIF
ENDF
PUSHB_1
 8
FDEF
SRP2
SRP1
DUP
IP
MDAP[rnd]
ENDF
PUSHB_1
 9
FDEF
DUP
RDTG
PUSHB_1
 6
CALL
IF
MDRP[rnd,grey]
ELSE
MDRP[min,rnd,black]
EIF
DUP
PUSHB_1
 3
CINDEX
MD[grid]
SWAP

StartChar: .notdef
Encoding: 256 -1 0
Width: 502
VWidth: 1091
Flags: W
HStem: -34 37<139 364> 679 37<139 364>
VStem: 102 37<3 679> 364 36<3 679>
LayerCount: 2
Fore
SplineSet
102 -34 m 1,0,-1
 102 716 l 1,1,-1
 400 716 l 1,2,-1
 400 -34 l 1,3,-1
 102 -34 l 1,0,-1
139 3 m 1,4,-1
 364 3 l 1,5,-1
 364 679 l 1,6,-1
 139 679 l 1,7,-1
 139 3 l 1,4,-1
EndSplineSet
Validated: 1
EndChar

StartChar: exclam
Encoding: 33 33 4
Width: 300
VWidth: 1266
Flags: W
HStem: -49 95<89.2397 126 127 160.53>
VStem: 81 93<-40.3711 32.6218> 96 95<175.384 539.612>
LayerCount: 2
Fore
SplineSet
94.5 30.5 m 128,-1,1
 108 46 108 46 126 46 c 0,2,3
 127 45 l 0,4,5
 146 45 146 45 161 33 c 0,6,7
 174 21 174 21 174 -4 c 0,8,9
 174 -17 174 -17 159.5 -33 c 128,-1,10
 145 -49 145 -49 131 -49 c 0,11,12
 130 -49 130 -49 128 -49 c 0,13,14
 108 -48 108 -48 94.5 -34 c 128,-1,15
 81 -20 81 -20 81 -4 c 0,16,0
 81 15 81 15 94.5 30.5 c 128,-1,1
139 672 m 0,17,18
 151 686 151 686 170 686 c 0,19,-1
 171 686 l 0,20,21
 189 686 189 686 204 670 c 0,22,23
 217 657 217 657 217 621 c 0,24,25
 217 614 217 614 215 563 c 0,26,27
 211 497 211 497 201 435 c 0,28,29
 194 397 194 397 191 292 c 128,-1,30
 188 187 188 187 176 174 c 0,31,32
 163 159 163 159 144 159 c 0,33,34
 122 160 122 160 109 175 c 0,35,36
 97 187 97 187 96 236 c 0,37,38
 96 266 96 266 100 343 c 0,39,40
 112 638 112 638 139 672 c 0,17,18
EndSplineSet
Validated: 1
EndChar

StartChar: quotedbl
Encoding: 34 34 5
Width: 421
VWidth: 1120
Flags: W
HStem: 514 258<252.883 324.805> 540 21G<148 170>
VStem: 111 94<556.473 681.786> 233 102<539.795 756.589> 252 74<516.441 641.513>
LayerCount: 2
Fore
SplineSet
98.5 731 m 128,-1,1
 112 745 112 745 133 745 c 0,2,3
 160 745 160 745 179 725 c 0,4,5
 204 699 204 699 205 638 c 0,6,7
 205 631 205 631 205 621 c 0,8,9
 205 607 l 0,10,11
 205 605 205 605 205 601 c 0,12,13
 205 571 205 571 193 556 c 0,14,15
 179 540 179 540 161 540 c 0,16,17
 160 540 160 540 158 540 c 0,18,19
 138 540 138 540 125 556 c 0,20,21
 113 571 113 571 111 602 c 0,22,23
 110 641 110 641 97.5 663 c 128,-1,24
 85 685 85 685 85 701 c 128,-1,0
 85 717 85 717 98.5 731 c 128,-1,1
246 757 m 0,25,26
 259 772 259 772 283 772 c 0,27,28
 284 772 284 772 285 772 c 0,29,30
 308 772 308 772 321 758 c 0,31,32
 330 750 330 750 333 730 c 0,33,34
 335 711 335 711 335 644 c 0,35,36
 335 564 335 564 326 539 c 128,-1,37
 317 514 317 514 290 514 c 0,38,39
 289 514 289 514 288 514 c 0,40,41
 261 515 261 515 252 538 c 0,42,43
 241 564 241 564 236 642 c 0,44,45
 234 689 234 689 233 711 c 0,46,47
 234 744 234 744 246 757 c 0,25,26
EndSplineSet
Validated: 1
EndChar

StartChar: dollar
Encoding: 36 36 6
Width: 574
VWidth: 1250
Flags: W
HStem: -45 94<91.8513 249.776> 622 94<325.512 445.429> 798 20G<271.5 292>
VStem: 229 97<716.458 801.523> 250 93<-150.356 -45> 407 94<126.095 230.846>
LayerCount: 2
Fore
SplineSet
246 802 m 0,0,1
 262 818 262 818 281 818 c 0,2,3
 282 818 282 818 283 818 c 0,4,5
 301 818 301 818 313 803 c 0,6,7
 325 789 325 789 326 761 c 2,8,-1
 326 750 l 1,9,-1
 324 716 l 1,10,-1
 380 716 l 2,11,12
 466 716 466 716 466 671 c 0,13,14
 466 670 l 0,15,16
 466 669 466 669 466 667.5 c 128,-1,17
 466 666 466 666 466 665 c 0,18,19
 466 642 466 642 446 633 c 0,20,21
 428 624 428 624 377 622 c 0,22,23
 314 621 314 621 270 594 c 0,24,25
 229 571 229 571 215 546 c 0,26,27
 200 519 200 519 193 473 c 0,28,29
 191 447 191 447 190 443 c 0,30,31
 191 424 191 424 206 413 c 0,32,33
 219 404 219 404 275 391 c 0,34,35
 456 352 456 352 489 250 c 0,36,37
 500 217 500 217 501 161 c 2,38,-1
 501 101 l 1,39,-1
 455 53 l 2,40,41
 408 6 408 6 375 -9 c 2,42,-1
 341 -27 l 1,43,-1
 343 -75 l 1,44,-1
 343 -88 l 2,45,46
 342 -158 342 -158 299 -158 c 0,47,48
 250 -158 250 -158 250 -87 c 2,49,-1
 250 -45 l 1,50,-1
 176 -45 l 2,51,52
 118 -45 118 -45 91 -34 c 0,53,54
 69 -25 69 -25 69 -1 c 0,55,56
 69 31 69 31 91 40 c 128,-1,57
 113 49 113 49 176 49 c 0,58,59
 232 49 232 49 251 53 c 0,60,61
 277 60 277 60 306 75 c 0,62,63
 355 101 355 101 377 119 c 0,64,65
 407 145 407 145 407 160 c 0,66,-1
 407 161 l 0,67,68
 407 168 407 168 395 208 c 0,69,70
 387 240 387 240 352 258 c 0,71,72
 314 278 314 278 233 297 c 0,73,74
 177 310 177 310 161 318 c 0,75,76
 141 328 141 328 124 346 c 0,77,78
 101 371 101 371 98 385 c 0,79,80
 95 400 95 400 94 430 c 0,81,82
 94 438 94 438 94 445 c 0,83,84
 94 451 94 451 94 456.5 c 128,-1,85
 94 462 94 462 94 466 c 128,-1,86
 94 470 94 470 94 474 c 128,-1,87
 94 478 94 478 94 480 c 0,88,89
 94 529 94 529 112 574 c 0,90,91
 127 613 127 613 185 659 c 0,92,93
 214 682 214 682 223 695 c 0,94,95
 229 703 229 703 229 729 c 0,96,97
 229 733 229 733 229 737 c 0,98,99
 231 787 231 787 246 802 c 0,0,1
EndSplineSet
Validated: 1
EndChar

StartChar: ampersand
Encoding: 38 38 7
Width: 779
VWidth: 1239
Flags: W
HStem: -77 96<231.229 358.259> 739 79<347.075 488.031>
VStem: 81 96<85.0859 264.891> 162 102<551.793 673.8> 563 100<640.635 688.922> 587 102<184.562 241.753>
LayerCount: 2
Fore
SplineSet
349 275 m 0,0,1
 300 345 300 345 292 346 c 0,2,3
 279 346 279 346 243.5 314 c 128,-1,4
 208 282 208 282 196 259 c 0,5,6
 178 225 178 225 177 179 c 0,7,8
 178 131 178 131 197 90 c 0,9,10
 215 50 215 50 243 32 c 0,11,12
 265 20 265 20 279 19 c 0,13,14
 281 19 281 19 283 19 c 0,15,16
 296 19 296 19 316 25 c 0,17,18
 349 34 349 34 407.5 65.5 c 128,-1,19
 466 97 466 97 466 105.5 c 128,-1,20
 466 114 466 114 349 275 c 0,0,1
502 710 m 0,21,22
 446 739 446 739 422 739 c 0,23,24
 421 739 421 739 420 739 c 0,25,26
 392 739 392 739 337 712 c 0,27,28
 285 685 285 685 268 666 c 0,29,30
 264 662 264 662 264 652 c 0,31,32
 264 627 264 627 281 570 c 0,33,34
 297 512 297 512 310 498 c 0,35,36
 312 496 312 496 319 496 c 0,37,38
 334 496 334 496 410 541 c 0,39,40
 463 574 463 574 519 621 c 0,41,42
 563 657 563 657 563 672 c 0,43,44
 563 679 563 679 502 710 c 0,21,22
295 787 m 4,45,46
 335 807 335 807 349 813 c 4,47,48
 358 817 358 817 392 819 c 4,49,50
 396 819 396 819 409 818 c 4,51,52
 420 818 420 818 427 818 c 4,53,54
 462 817 462 817 553 786 c 4,55,56
 619 763 619 763 636 746 c 0,57,58
 656 724 656 724 658 720 c 0,59,60
 662 708 662 708 663 681 c 0,61,62
 663 639 663 639 651 616 c 0,63,64
 634 585 634 585 583 542 c 0,65,66
 525 492 525 492 462 453 c 2,67,-1
 380 401 l 1,68,-1
 438 325 l 2,69,70
 511 230 511 230 518 216 c 0,71,72
 541 179 541 179 545 177 c 0,73,-1
 547 176 l 0,74,75
 555 176 555 176 571 189 c 0,76,77
 586 202 586 202 587 212 c 0,78,79
 587 225 587 225 604.5 238.5 c 128,-1,80
 622 252 622 252 637 252 c 0,81,82
 661 252 661 252 677 233 c 0,83,84
 689 219 689 219 689 203 c 0,85,86
 689 167 689 167 646 124 c 2,87,-1
 610 88 l 1,88,-1
 659 38 l 2,89,90
 706 -11 706 -11 708 -36 c 0,91,92
 708 -47 708 -47 693 -62 c 0,93,94
 679 -78 679 -78 663 -79 c 0,95,96
 637 -79 637 -79 584 -26 c 2,97,-1
 531 25 l 1,98,-1
 487 -5 l 2,99,100
 429 -46 429 -46 393 -59 c 0,101,102
 360 -71 360 -71 299 -77 c 0,103,104
 293 -77 293 -77 285 -77 c 0,105,106
 277 -78 277 -78 271 -78 c 0,107,108
 233 -78 233 -78 195 -59 c 0,109,110
 81 -4 81 -4 81 176 c 0,111,112
 81 179 81 179 81 182 c 0,113,114
 82 268 82 268 100 300 c 0,115,116
 114 327 114 327 163 376 c 0,117,118
 200 412 200 412 224 424 c 0,119,120
 226 425 226 425 225 431 c 0,121,122
 223 441 223 441 216 453 c 0,123,124
 196 487 196 487 179 548 c 0,125,126
 162 616 162 616 162 657 c 0,127,128
 162 692 162 692 168 700 c 0,129,130
 193 738 193 738 197 738 c 0,131,132
 200 738 200 738 295 787 c 4,45,46
EndSplineSet
Validated: 1
EndChar

StartChar: quotesingle
Encoding: 39 39 8
Width: 310
VWidth: 1116
Flags: W
HStem: 552 199<139.409 175.675>
VStem: 126 100<568.502 656.842>
LayerCount: 2
Fore
SplineSet
97 737 m 0,0,1
 109 750 109 750 127 751 c 0,2,3
 128 751 128 751 129 751 c 0,4,5
 151 751 151 751 185 721 c 0,6,7
 207 699 207 699 214 686 c 0,8,9
 222 673 222 673 225 638 c 0,10,11
 226 627 226 627 226 610 c 0,12,13
 225 552 225 552 178 552 c 0,14,15
 152 552 152 552 139 568 c 128,-1,16
 126 584 126 584 126 610 c 0,17,18
 126 640 126 640 103 658 c 0,19,20
 83 673 83 673 83 699 c 0,21,22
 83 723 83 723 97 737 c 0,0,1
EndSplineSet
Validated: 1
EndChar

StartChar: comma
Encoding: 44 44 9
Width: 324
VWidth: 1370
Flags: W
HStem: -32 241<149.379 172.938>
VStem: 140 97<78.04 196.585>
LayerCount: 2
Fore
SplineSet
140 158 m 0,0,1
 140 178 140 178 156 195 c 0,2,3
 169 209 169 209 185 209 c 0,4,5
 186 209 186 209 187 209 c 128,-1,6
 188 209 188 209 189 209 c 0,7,8
 204 209 204 209 220 197 c 0,9,10
 235 184 235 184 237 134 c 0,11,12
 237 107 237 107 230 74 c 0,13,14
 226 48 226 48 190 8 c 128,-1,15
 154 -32 154 -32 133 -32 c 0,16,17
 118 -32 118 -32 105 -16.5 c 128,-1,18
 92 -1 92 -1 85 23 c 0,19,20
 84 27 84 27 84 34 c 0,21,22
 84 47 84 47 103 62 c 0,23,24
 140 92 140 92 140 158 c 0,0,1
EndSplineSet
Validated: 1
EndChar

StartChar: period
Encoding: 46 46 10
Width: 268
VWidth: 1366
Flags: W
HStem: 51 93<104.923 170.077>
VStem: 91 93<65.4385 129.531>
LayerCount: 2
Fore
SplineSet
104 130 m 0,0,1
 117 144 117 144 137 144 c 128,-1,2
 157 144 157 144 170.5 131.5 c 128,-1,3
 184 119 184 119 184 99 c 0,4,5
 184 81 184 81 169.5 66 c 128,-1,6
 155 51 155 51 138 51 c 0,7,8
 118 51 118 51 104.5 65 c 128,-1,9
 91 79 91 79 91 97 c 128,-1,10
 91 115 91 115 104 130 c 0,0,1
EndSplineSet
Validated: 16385
EndChar

StartChar: slash
Encoding: 47 47 11
Width: 500
VWidth: 1274
Flags: W
VStem: 69 91<-32.5295 32.1016>
LayerCount: 2
Fore
SplineSet
286 526 m 0,0,1
 333 642 333 642 385 643 c 0,2,3
 404 643 404 643 421 628 c 0,4,5
 435 615 435 615 436 597 c 0,6,7
 436 578 436 578 421 563 c 0,8,9
 402 541 402 541 376.5 476 c 128,-1,10
 351 411 351 411 313 332 c 0,11,12
 286 276 286 276 237 158 c 0,13,14
 183 29 183 29 160 -9.5 c 128,-1,15
 137 -48 137 -48 114 -48 c 0,16,17
 95 -48 95 -48 82 -33 c 128,-1,18
 69 -18 69 -18 69 4 c 2,19,-1
 69 14 l 1,20,21
 77 62 77 62 216 367 c 0,22,23
 254 449 254 449 286 526 c 0,0,1
EndSplineSet
Validated: 16385
EndChar

StartChar: colon
Encoding: 58 58 12
Width: 283
VWidth: 1298
Flags: W
HStem: 8 94<105.923 171.077> 387 103<115.407 178.407>
VStem: 92 93<22.4387 87.5305> 101 93<395.157 476.53>
LayerCount: 2
Fore
SplineSet
105 88 m 0,0,1
 118 102 118 102 138 102 c 128,-1,2
 158 102 158 102 171.5 89.5 c 128,-1,3
 185 77 185 77 185 58.5 c 128,-1,4
 185 40 185 40 170.5 24 c 128,-1,5
 156 8 156 8 139 8 c 0,6,7
 119 8 119 8 105.5 22 c 128,-1,8
 92 36 92 36 92 55 c 0,9,10
 92 73 92 73 105 88 c 0,0,1
115 477 m 0,11,12
 128 490 128 490 144 490 c 0,13,14
 145 490 145 490 146 490 c 0,15,16
 160 490 160 490 179 477 c 0,17,18
 193 464 193 464 194 441 c 0,19,20
 194 421 194 421 181 404 c 128,-1,21
 168 387 168 387 148 387 c 128,-1,22
 128 387 128 387 114.5 403.5 c 128,-1,23
 101 420 101 420 101 441 c 0,24,25
 102 462 102 462 115 477 c 0,11,12
EndSplineSet
Validated: 1
EndChar

StartChar: semicolon
Encoding: 59 59 13
Width: 332
VWidth: 1309
Flags: W
HStem: -63 100<89.439 131.717> 418 92<160.47 191 191 229.926>
VStem: 144 94<42.415 148.403> 145 80<432.47 466.438>
LayerCount: 2
Fore
SplineSet
158 143 m 0,0,1
 172 159 172 159 190 160 c 0,2,3
 209 160 209 160 223.5 141 c 128,-1,4
 238 122 238 122 238 92 c 0,5,6
 238 37 238 37 208 -9 c 128,-1,7
 178 -55 178 -55 137 -61 c 0,8,9
 133 -63 133 -63 123 -63 c 0,10,11
 103 -63 103 -63 89 -50.5 c 128,-1,12
 75 -38 75 -38 75 -15 c 0,13,14
 75 3 75 3 87.5 19.5 c 128,-1,15
 100 36 100 36 115 37 c 0,16,17
 123 37 123 37 133.5 63.5 c 128,-1,18
 144 90 144 90 144.5 110 c 128,-1,19
 145 130 145 130 158 143 c 0,0,1
158 496 m 0,20,21
 171 510 171 510 190 510 c 0,22,23
 191 510 191 510 191 512 c 0,24,25
 209 512 209 512 223 499.5 c 128,-1,26
 237 487 237 487 238 467 c 0,27,28
 238 449 238 449 224 433.5 c 128,-1,29
 210 418 210 418 195 418 c 0,30,31
 175 418 175 418 160 432 c 0,32,33
 146 447 146 447 145 466 c 0,34,35
 146 484 146 484 158 496 c 0,20,21
EndSplineSet
Validated: 1
EndChar

StartChar: question
Encoding: 63 63 14
Width: 571
VWidth: 1250
Flags: W
HStem: -75 93<285.923 350.046> 688 102<151.737 348.708>
VStem: 123 96<191.812 289.685> 272 93<-60.5613 4.6228> 381 96<516.695 656.164>
LayerCount: 2
Fore
SplineSet
285 5 m 0,0,1
 297 18 297 18 317 18 c 0,2,3
 336 18 336 18 350.5 6 c 128,-1,4
 365 -6 365 -6 365 -27 c 0,5,6
 365 -45 365 -45 350 -60 c 128,-1,7
 335 -75 335 -75 319 -75 c 0,8,9
 299 -75 299 -75 285.5 -61 c 128,-1,10
 272 -47 272 -47 272 -28 c 0,11,12
 273 -7 273 -7 285 5 c 0,0,1
206 785 m 0,13,14
 217 789 217 789 250 790 c 0,15,16
 318 790 318 790 352 778 c 0,17,18
 384 770 384 770 433 723 c 2,19,-1
 477 677 l 1,20,-1
 477 596 l 2,21,22
 477 517 477 517 468 488 c 0,23,24
 460 466 460 466 434 433 c 128,-1,25
 408 400 408 400 395 400 c 0,26,27
 380 400 380 400 325 371 c 0,28,29
 272 342 272 342 250.5 320.5 c 128,-1,30
 229 299 229 299 224 290 c 0,31,32
 219 280 219 280 219 259 c 0,33,34
 219 256 219 256 219 252 c 0,35,36
 219 211 219 211 240 193 c 2,37,-1
 260 174 l 1,38,-1
 341 197 l 2,39,40
 429 224 429 224 452 224 c 0,41,42
 453 224 453 224 454 224 c 0,43,-1
 455 224 l 0,44,45
 467 224 467 224 477 214 c 0,46,47
 494 200 494 200 495 182 c 0,48,49
 495 131 495 131 379 99 c 0,50,51
 319 81 319 81 265 80 c 0,52,53
 231 80 231 80 217 86 c 128,-1,54
 203 92 203 92 170 123 c 2,55,-1
 123 169 l 1,56,-1
 123 250 l 2,57,58
 123 309 123 309 127 323.5 c 128,-1,59
 131 338 131 338 152 361 c 0,60,61
 227 448 227 448 313 479 c 0,62,63
 356 494 356 494 368.5 516 c 128,-1,64
 381 538 381 538 381 592 c 0,65,66
 381 639 381 639 351.5 663.5 c 128,-1,67
 322 688 322 688 267 688 c 0,68,69
 245 688 245 688 219 684 c 0,70,71
 161 676 161 676 150 664 c 0,72,73
 136 653 136 653 118 652 c 0,74,75
 117 652 117 652 115 652 c 0,76,77
 93 652 93 652 77.5 666 c 128,-1,78
 62 680 62 680 62 697 c 0,79,80
 62 724 62 724 89.5 748 c 128,-1,81
 117 772 117 772 155.5 776.5 c 128,-1,82
 194 781 194 781 206 785 c 0,13,14
EndSplineSet
Validated: 1
EndChar

StartChar: A
Encoding: 65 65 15
Width: 986
VWidth: 1246
Flags: W
HStem: 233 100<322.344 658.954> 725 94<473.015 507.747>
VStem: 57 121<-31.1621 26.3792>
LayerCount: 2
Fore
SplineSet
521 677 m 0,0,1
 499 725 499 725 488 725 c 0,2,3
 476 725 476 725 407 549 c 0,4,5
 366 448 366 448 346 410 c 0,6,7
 320 362 320 362 319 344 c 0,8,9
 319 342 l 0,10,11
 319 340 319 340 322 337 c 0,12,13
 332 333 332 333 469 333 c 0,14,15
 659 333 659 333 659 340 c 0,16,17
 659 355 659 355 633 410 c 0,18,19
 608 456 608 456 565 564.5 c 128,-1,20
 522 673 522 673 521 677 c 0,0,1
404 793 m 0,21,22
 434 819 434 819 480 819 c 0,23,24
 482 819 482 819 483 819 c 4,25,26
 549 819 549 819 572 791 c 0,27,28
 601 758 601 758 650 636 c 0,29,30
 676 569 676 569 727 455 c 0,31,32
 736 435 736 435 815 243 c 128,-1,33
 894 51 894 51 904 28 c 0,34,35
 919 -9 919 -9 921 -25 c 0,36,37
 921 -40 921 -40 907 -55.5 c 128,-1,38
 893 -71 893 -71 877 -71 c 0,39,40
 829 -71 829 -71 792 29 c 0,41,42
 772 84 772 84 741 155 c 2,43,-1
 708 233 l 1,44,-1
 269 233 l 1,45,-1
 254 198 l 2,46,47
 178 11 178 11 178 -5 c 0,48,49
 178 -14 178 -14 151 -47 c 0,50,51
 124 -78 124 -78 103 -78 c 0,52,-1
 102 -78 l 0,53,54
 87 -78 87 -78 73 -65 c 0,55,56
 58 -52 58 -52 57 -32 c 0,57,58
 57 -16 57 -16 70 9 c 0,59,60
 122 118 122 118 179 284 c 0,61,62
 204 356 204 356 238 422 c 0,63,64
 257 461 257 461 329 638 c 0,65,66
 386 777 386 777 404 793 c 0,21,22
EndSplineSet
Validated: 1
EndChar

StartChar: B
Encoding: 66 66 16
Width: 754
VWidth: 1240
Flags: W
HStem: -74 97<210.826 475.891> 348 109<374.352 459.214> 734 86<230.598 456.385>
VStem: 87 100<328.953 690.198> 102 102<41 510.879> 558 99<537.202 661.478> 567 99<108.431 289.066>
LayerCount: 2
Fore
SplineSet
445 715 m 0,0,1
 403 727 403 727 344 731 c 0,2,3
 331 732 331 732 311 734 c 0,4,5
 278 734 278 734 238 715 c 0,6,7
 203 700 203 700 196 690.5 c 128,-1,8
 189 681 189 681 187 650 c 2,9,-1
 187 629 l 2,10,11
 187 580 187 580 190 525 c 0,12,13
 198 439 198 439 204 241 c 2,14,-1
 209 41 l 1,15,-1
 276 31 l 2,16,17
 325 23 325 23 361 23 c 0,18,19
 438 23 438 23 487 51 c 0,20,21
 534 78 534 78 550 107.5 c 128,-1,22
 566 137 566 137 567 205 c 2,23,-1
 572 288 l 1,24,-1
 508 317 l 2,25,26
 449 348 449 348 418 348 c 0,27,28
 417 348 417 348 416 348 c 0,29,30
 387 348 387 348 371.5 362 c 128,-1,31
 356 376 356 376 356 393 c 0,32,33
 356 438 356 438 414 457 c 0,34,35
 440 465 440 465 483.5 494.5 c 128,-1,36
 527 524 527 524 538 540 c 0,37,38
 557 570 557 570 558 601 c 0,39,40
 558 639 558 639 528.5 670 c 128,-1,41
 499 701 499 701 445 715 c 0,0,1
208 800 m 0,42,43
 241 819 241 819 282 820 c 0,44,45
 317 820 317 820 344 818 c 0,46,47
 485 812 485 812 511 802 c 4,48,49
 573 779 573 779 607 735 c 0,50,51
 638 693 638 693 647 673 c 0,52,53
 655 653 655 653 657 614 c 0,54,55
 657 558 657 558 644 524 c 0,56,57
 631 491 631 491 594 455 c 2,58,-1
 549 410 l 1,59,-1
 583 393 l 2,60,61
 622 376 622 376 641 358 c 0,62,63
 659 342 659 342 664 326 c 0,64,65
 666 316 666 316 666 285 c 0,66,67
 666 275 666 275 666 262 c 0,68,69
 666 248 666 248 666 230 c 0,70,71
 665 128 665 128 659 98 c 0,72,73
 654 72 654 72 614 30 c 0,74,75
 575 -13 575 -13 535 -41 c 0,76,77
 503 -61 503 -61 482 -68 c 0,78,79
 459 -74 459 -74 413 -74 c 0,80,81
 406 -74 406 -74 398 -74 c 2,82,-1
 365 -74 l 2,83,84
 287 -74 287 -74 217 -62 c 0,85,86
 150 -50 150 -50 132 -32 c 0,87,88
 119 -19 119 -19 116 20 c 0,89,90
 112 60 112 60 102 257 c 0,91,92
 90 562 90 562 88 592 c 0,93,94
 87 606 87 606 87 629 c 0,95,96
 87 664 87 664 98 686 c 0,97,98
 111 714 111 714 112 728 c 0,99,100
 112 743 112 743 130 765 c 0,101,102
 146 786 146 786 160 786 c 0,103,104
 161 786 l 0,105,106
 189 789 189 789 208 800 c 0,42,43
EndSplineSet
Validated: 1
EndChar

StartChar: C
Encoding: 67 67 17
Width: 714
VWidth: 1254
Flags: W
HStem: -59 97<345.834 582.123> -48 106<307.402 625.927> 664 93<361.574 579.623>
VStem: 77 96<249.917 461.749>
LayerCount: 2
Fore
SplineSet
322 739 m 0,0,1
 365 756 365 756 429 757 c 0,2,3
 433 757 433 757 436 757 c 2,4,-1
 480 757 l 2,5,6
 583 756 583 756 603 738 c 0,7,8
 621 723 621 723 622 697 c 0,9,10
 622 675 622 675 605 659 c 0,11,12
 593 647 593 647 580 646 c 0,13,14
 568 647 568 647 549 653 c 0,15,16
 510 662 510 662 477 664 c 0,17,18
 473 664 473 664 469 664 c 0,19,20
 427 664 427 664 388 651 c 0,21,22
 300 624 300 624 256 576 c 128,-1,23
 212 528 212 528 185 428 c 0,24,25
 173 383 173 383 173 352 c 0,26,27
 174 300 174 300 207 217 c 0,28,29
 245 120 245 120 280 91 c 0,30,31
 314 62 314 62 411 46 c 0,32,33
 454 38 454 38 476 38 c 0,34,35
 478 38 478 38 480 38 c 0,36,37
 498 38 498 38 520 46 c 0,38,39
 555 58 555 58 583 58 c 0,40,41
 613 58 613 58 630 45.5 c 128,-1,42
 647 33 647 33 647 10 c 0,43,44
 647 -9 647 -9 631 -22 c 128,-1,45
 615 -35 615 -35 570 -48 c 0,46,47
 527 -59 527 -59 494 -59 c 0,48,49
 491 -59 491 -59 486 -59 c 0,50,51
 444 -59 444 -59 375 -50 c 0,52,53
 305 -39 305 -39 265.5 -21 c 128,-1,54
 226 -3 226 -3 193 36 c 0,55,56
 138 94 138 94 107.5 181.5 c 128,-1,57
 77 269 77 269 77 360 c 0,58,59
 77 428 77 428 95 487 c 0,60,61
 113 543 113 543 128 571 c 128,-1,62
 143 599 143 599 179 640 c 0,63,64
 218 683 218 683 246.5 702 c 128,-1,65
 275 721 275 721 322 739 c 0,0,1
EndSplineSet
Validated: 1
EndChar

StartChar: D
Encoding: 68 68 18
Width: 765
VWidth: 1250
Flags: W
HStem: -63 94<207.394 472.507> 685 93<218.384 399.584>
VStem: 97 94<43.1348 658> 585 94<160.278 531.55>
LayerCount: 2
Fore
SplineSet
369 675 m 0,0,1
 337 685 337 685 308 685 c 0,2,3
 259 685 259 685 212 665 c 1,4,-1
 191 658 l 1,5,-1
 191 354 l 2,6,7
 192 137 192 137 196 91 c 0,8,9
 198 47 198 47 207 43 c 0,10,11
 219 39 219 39 307 32 c 0,12,13
 325 31 325 31 356 31 c 0,14,15
 404 32 404 32 443 43 c 0,16,17
 497 59 497 59 522 84 c 128,-1,18
 547 109 547 109 565 167 c 0,19,20
 584 227 584 227 585 357 c 0,21,22
 585 463 585 463 572 507.5 c 128,-1,23
 559 552 559 552 522 586 c 0,24,25
 492 613 492 613 446.5 638.5 c 128,-1,26
 401 664 401 664 369 675 c 0,0,1
218 775 m 0,27,28
 230 777 230 777 280 778 c 2,29,-1
 318 778 l 2,30,31
 377 777 377 777 400.5 772.5 c 128,-1,32
 424 768 424 768 463 749 c 0,33,34
 521 719 521 719 582 665.5 c 128,-1,35
 643 612 643 612 660 574 c 0,36,37
 673 548 673 548 676 517.5 c 128,-1,38
 679 487 679 487 679 361 c 0,39,40
 679 240 679 240 677 204.5 c 128,-1,41
 675 169 675 169 659 124 c 0,42,43
 645 81 645 81 634 61 c 128,-1,44
 623 41 623 41 593 16 c 0,45,46
 548 -27 548 -27 499 -48 c 0,47,48
 454 -63 454 -63 397 -63 c 0,49,50
 351 -63 351 -63 313 -62 c 0,51,52
 212 -60 212 -60 173.5 -53.5 c 128,-1,53
 135 -47 135 -47 112 -27 c 0,54,55
 101 -16 101 -16 99 37 c 128,-1,56
 97 90 97 90 97 340 c 2,57,-1
 97 690 l 1,58,-1
 130 722 l 2,59,60
 169 757 169 757 218 775 c 0,27,28
EndSplineSet
Validated: 1
EndChar

StartChar: E
Encoding: 69 69 19
Width: 638
VWidth: 1259
Flags: W
HStem: -54 92<203 514.651> 282 82<351.625 512.622> 608 97<205.405 573.616>
VStem: 110 94<38 303.083>
LayerCount: 2
Fore
SplineSet
141 717 m 128,-1,1
 151 728 151 728 182 728 c 0,2,3
 207 728 207 728 297 717 c 0,4,5
 377 705 377 705 473 705 c 0,6,7
 560 705 560 705 575 689 c 0,8,9
 589 676 589 676 590 658 c 0,10,11
 590 638 590 638 574 621 c 0,12,13
 562 609 562 609 515 608 c 0,14,15
 509 608 509 608 412 613 c 0,16,17
 265 619 265 619 223 622 c 2,18,-1
 182 628 l 1,19,-1
 186 570 l 2,20,21
 195 467 195 467 198 457 c 2,22,-1
 204 403 l 1,23,-1
 252 397 l 2,24,25
 351 386 351 386 399 383 c 0,26,27
 478 375 478 375 504 364.5 c 128,-1,28
 530 354 530 354 530 328 c 0,29,30
 530 310 530 310 513 293 c 0,31,32
 501 282 501 282 475 282 c 0,33,34
 442 282 442 282 378 289 c 0,35,36
 268 297 268 297 230 303 c 2,37,-1
 204 307 l 1,38,-1
 204 38 l 1,39,-1
 351 38 l 2,40,41
 498 38 498 38 514 24 c 0,42,43
 528 11 528 11 529 -9 c 0,44,45
 529 -26 529 -26 515 -41 c 0,46,47
 504 -52 504 -52 473 -54 c 128,-1,48
 442 -56 442 -56 319 -56 c 0,49,50
 198 -56 198 -56 164.5 -53.5 c 128,-1,51
 131 -51 131 -51 121 -41.5 c 128,-1,52
 111 -32 111 -32 109.5 2 c 128,-1,53
 108 36 108 36 108 175 c 0,54,55
 108 355 108 355 92 525 c 0,56,57
 83 618 83 618 83 647 c 0,58,59
 83 677 83 677 95 688 c 0,60,61
 108 703 108 703 118 705 c 0,62,0
 131 706 131 706 141 717 c 128,-1,1
EndSplineSet
Validated: 1
EndChar

StartChar: F
Encoding: 70 70 20
Width: 652
VWidth: 1259
Flags: W
HStem: 281 93<183 355.24> 298 83<184.172 371.56> 628 100<nan 587.556>
VStem: 90 99<-20.2871 281 374 413.128>
LayerCount: 2
Fore
SplineSet
306 721 m 0,0,1
 486 728 486 728 514 728 c 0,2,3
 517 728 l 2,4,-1
 535 728 l 2,5,6
 574 728 574 728 588 715 c 0,7,8
 603 702 603 702 604 681 c 0,9,10
 604 663 604 663 586 648 c 0,11,12
 567 630 567 630 393 628 c 2,13,-1
 214 625 l 1,14,-1
 207 565 l 2,15,16
 193 464 193 464 191 441 c 2,17,-1
 183 374 l 1,18,-1
 266 378 l 2,19,20
 320 380 320 380 326 381 c 0,21,22
 353 381 353 381 362 370 c 0,23,24
 376 357 376 357 379 340 c 0,25,26
 379 314 379 314 356 298 c 0,27,28
 332 282 332 282 266 281 c 0,29,30
 262 281 262 281 258 281 c 2,31,-1
 183 281 l 1,32,-1
 187 127 l 2,33,34
 188 92 188 92 189 41 c 0,35,36
 189 -28 189 -28 176 -40 c 0,37,38
 160 -55 160 -55 141.5 -55 c 128,-1,39
 123 -55 123 -55 109 -41 c 0,40,41
 91 -21 91 -21 90 249 c 0,42,43
 90 483 90 483 104 573 c 0,44,45
 119 672 119 672 133 689 c 0,46,47
 148 715 148 715 223 719 c 0,48,49
 237 720 237 720 306 721 c 0,0,1
EndSplineSet
Validated: 1
EndChar

StartChar: G
Encoding: 71 71 21
Width: 699
VWidth: 1268
Flags: W
HStem: 49 96<256.882 509> 205 99<377.726 507.637> 636 96<341.454 552.562>
VStem: 78 94<219.75 457.91> 509 94<-90.6511 49 145 205>
LayerCount: 2
Fore
SplineSet
324 715 m 0,0,1
 380 730 380 730 461 732 c 0,2,3
 538 732 538 732 555 717 c 0,4,5
 569 702 569 702 570 681 c 0,6,7
 570 659 570 659 553 642 c 0,8,9
 539 630 539 630 521 630 c 0,10,11
 517 629 517 629 493 633 c 0,12,13
 484 634 484 634 463 636 c 0,14,15
 408 636 408 636 346.5 615.5 c 128,-1,16
 285 595 285 595 252 565.5 c 128,-1,17
 219 536 219 536 195.5 462.5 c 128,-1,18
 172 389 172 389 172 319 c 0,19,20
 172 297 172 297 175 289 c 0,21,22
 179 242 179 242 195 218 c 128,-1,23
 211 194 211 194 254 169 c 0,24,25
 285 150 285 150 305 147 c 0,26,27
 319 145 319 145 364 145 c 0,28,29
 381 145 381 145 403 145 c 2,30,-1
 509 145 l 1,31,-1
 509 205 l 1,32,-1
 454 205 l 2,33,34
 400 205 400 205 377 223 c 0,35,36
 355 238 355 238 355 261 c 0,37,38
 355 276 355 276 368 290 c 128,-1,39
 381 304 381 304 416 304 c 0,40,41
 422 304 422 304 477 301 c 0,42,43
 573 297 573 297 589 284 c 0,44,45
 600 275 600 275 603 244 c 0,46,47
 603 234 603 234 604 214 c 0,48,49
 604 208 604 208 604 200 c 0,50,51
 604 185 604 185 603 166 c 0,52,53
 603 164 603 164 603 158 c 0,54,55
 603 139 603 139 603 98 c 0,56,57
 603 -16 603 -16 601 -48 c 128,-1,58
 599 -80 599 -80 589 -91 c 0,59,60
 576 -105 576 -105 557 -105 c 0,61,62
 543 -105 543 -105 525 -92 c 0,63,64
 510 -77 510 -77 509 -15 c 2,65,-1
 509 49 l 1,66,-1
 255 49 l 1,67,-1
 198 84 l 2,68,69
 124 127 124 127 101 167 c 128,-1,70
 78 207 78 207 78 298 c 0,71,72
 78 306 78 306 78.5 323 c 128,-1,73
 79 340 79 340 79 351 c 0,74,75
 81 425 81 425 86 453 c 128,-1,76
 91 481 91 481 111 524 c 0,77,78
 137 590 137 590 183 636 c 0,79,80
 222 675 222 675 247 688 c 128,-1,81
 272 701 272 701 324 715 c 0,0,1
EndSplineSet
Validated: 1
EndChar

StartChar: H
Encoding: 72 72 22
Width: 716
VWidth: 1250
Flags: W
HStem: 313 103<201 244> 328 93<201.672 516.445>
VStem: 90 98<-40.5596 309.125> 102 98<177.602 313 416 754.585> 511 96<-20.8208 328.839> 528 94<430.129 724.656>
LayerCount: 2
Fore
SplineSet
119 755 m 0,0,1
 133 770 133 770 152 771 c 0,2,3
 174 771 174 771 187 756 c 0,4,5
 199 744 199 744 200 713 c 0,6,7
 200 711 200 711 200 706 c 2,8,-1
 200 688 l 2,9,10
 200 682 200 682 199.5 660 c 128,-1,11
 199 638 199 638 199 621 c 0,12,13
 199 607 199 607 199.5 574 c 128,-1,14
 200 541 200 541 200 526 c 2,15,-1
 201 416 l 1,16,-1
 359 421 l 2,17,18
 517 427 517 427 519.5 430 c 128,-1,19
 522 433 522 433 528 581 c 0,20,21
 537 732 537 732 552 748 c 0,22,23
 567 763 567 763 586 763 c 128,-1,24
 605 763 605 763 620 749 c 0,25,26
 631 738 631 738 631 695 c 0,27,28
 631 693 631 693 631 690 c 0,29,30
 631 643 631 643 622 460 c 0,31,32
 609 190 609 190 607 94 c 0,33,34
 607 1 607 1 593 -15 c 0,35,36
 580 -30 580 -30 560 -30 c 0,37,38
 559 -30 l 0,39,40
 540 -30 540 -30 527 -15 c 0,41,42
 513 0 513 0 511 85 c 0,43,44
 511 96 511 96 513 121.5 c 128,-1,45
 515 147 515 147 515 167 c 2,46,-1
 517 334 l 1,47,-1
 401 328 l 2,48,49
 279 322 279 322 244 316 c 2,50,-1
 201 313 l 1,51,-1
 200 229 l 2,52,53
 199 143 199 143 188.5 56.5 c 128,-1,54
 178 -30 178 -30 167 -44 c 0,55,56
 155 -57 155 -57 137 -57 c 0,57,58
 118 -57 118 -57 102 -41 c 0,59,60
 90 -27 90 -27 90 -1 c 0,61,62
 90 17 90 17 94 65 c 0,63,64
 102 146 102 146 102 445 c 0,65,66
 102 648 102 648 104.5 695 c 128,-1,67
 107 742 107 742 119 755 c 0,0,1
EndSplineSet
Validated: 1
EndChar

StartChar: I
Encoding: 73 73 23
Width: 344
VWidth: 1246
Flags: W
HStem: -59 94<81.1621 118.81> 692 93<76.4395 132>
VStem: 71 190<-41.4366 28.1465> 122 92<51 335.032> 128 94<341.531 684.037>
LayerCount: 2
Fore
SplineSet
76 773 m 0,0,1
 87 785 87 785 115 785 c 0,2,3
 117 785 117 785 119 785 c 0,4,5
 149 785 149 785 171 783 c 0,6,7
 234 781 234 781 260 770 c 128,-1,8
 286 759 286 759 286 733 c 0,9,10
 286 718 286 718 271.5 701 c 128,-1,11
 257 684 257 684 243 684 c 0,12,13
 232 684 232 684 228.5 635 c 128,-1,14
 225 586 225 586 222 368 c 2,15,-1
 214 51 l 1,16,-1
 239 34 l 2,17,18
 261 19 261 19 261 -2 c 0,19,20
 261 -24 261 -24 239 -42 c 0,21,22
 214 -59 214 -59 157 -59 c 0,23,24
 71 -59 71 -59 71 -15 c 0,25,26
 72 1 72 1 84 18 c 0,27,28
 96 34 96 34 109 35 c 0,29,-1
 110 35 l 0,30,31
 122 35 122 35 122 128 c 0,32,33
 122 197 122 197 128 456 c 2,34,-1
 132 692 l 1,35,-1
 112 692 l 2,36,37
 90 692 90 692 76 706 c 0,38,39
 62 720 62 720 62 738 c 0,40,41
 62 757 62 757 76 773 c 0,0,1
EndSplineSet
Validated: 1
EndChar

StartChar: J
Encoding: 74 74 24
Width: 579
VWidth: 1263
Flags: W
HStem: -44 94<178.847 316.369> 586 97<194.852 380>
VStem: 397 98<157.339 584.795>
LayerCount: 2
Fore
SplineSet
387 688 m 0,0,1
 393 697 393 697 408 698 c 0,2,3
 441 698 441 698 462 673 c 0,4,5
 475 654 475 654 484 559 c 0,6,7
 493 463 493 463 495 357 c 0,8,9
 495 258 495 258 484 190 c 0,10,11
 476 124 476 124 458 86.5 c 128,-1,12
 440 49 440 49 391 3 c 2,13,-1
 347 -40 l 1,14,-1
 258 -43 l 2,15,16
 233 -44 233 -44 202 -44 c 0,17,18
 159 -44 159 -44 136 -29 c 0,19,20
 65 15 65 15 65 69 c 0,21,22
 65 89 65 89 78 104 c 0,23,24
 91 117 91 117 105 118 c 0,25,26
 130 118 130 118 165 84 c 0,27,28
 200 51 200 51 226 50 c 0,29,30
 228 50 228 50 237.5 51.5 c 128,-1,31
 247 53 247 53 254 53 c 0,32,33
 297 55 297 55 317 69.5 c 128,-1,34
 337 84 337 84 361 125 c 0,35,36
 397 188 397 188 397 359 c 0,37,38
 397 458 397 458 387 546 c 2,39,-1
 380 586 l 1,40,-1
 301 586 l 2,41,42
 222 586 222 586 199 605 c 0,43,44
 179 619 179 619 178 643 c 0,45,46
 178 661 178 661 188 674 c 0,47,48
 201 687 201 687 233 688 c 0,49,50
 241 688 241 688 292 685 c 0,51,52
 318 684 318 684 349 684 c 0,53,54
 352 684 352 684 355 683 c 0,55,56
 359 683 359 683 362 683 c 0,57,58
 384 683 384 683 387 688 c 0,0,1
EndSplineSet
Validated: 1
EndChar

StartChar: K
Encoding: 75 75 25
Width: 599
VWidth: 1282
Flags: W
VStem: 90 99<31.2036 216.995 389.023 589.716>
LayerCount: 2
Fore
SplineSet
102 586 m 0,0,1
 119 603 119 603 135 603 c 0,2,3
 136 603 136 603 137 603 c 0,4,5
 152 603 152 603 171 590 c 0,6,7
 182 581 182 581 184 562 c 0,8,9
 186 545 186 545 187 483 c 0,10,11
 187 389 187 389 195 389 c 128,-1,12
 203 389 203 389 243 421 c 0,13,14
 278 448 278 448 329 474 c 0,15,16
 337 478 337 478 414 524 c 0,17,18
 453 553 453 553 473 554 c 0,19,20
 492 554 492 554 507.5 538.5 c 128,-1,21
 523 523 523 523 523 505.5 c 128,-1,22
 523 488 523 488 482 453.5 c 128,-1,23
 441 419 441 419 381 386 c 0,24,25
 303 340 303 340 285 327 c 2,26,-1
 250 299 l 1,27,-1
 287 267 l 2,28,29
 305 252 305 252 370 204 c 0,30,31
 523 89 523 89 523 53 c 0,32,33
 523 34 523 34 509 17.5 c 128,-1,34
 495 1 495 1 479 1 c 0,35,36
 466 1 466 1 417 37 c 0,37,38
 392 56 392 56 330.5 104 c 128,-1,39
 269 152 269 152 237 180 c 2,40,-1
 190 217 l 2,41,42
 189 217 189 217 189 198 c 0,43,44
 189 184 189 184 191 109 c 0,45,46
 193 37 193 37 197 31 c 0,47,48
 197 -4 197 -4 182 -16 c 0,49,50
 170 -31 170 -31 148 -32 c 0,51,52
 123 -32 123 -32 114 -16 c 0,53,54
 103 -4 103 -4 99 45.5 c 128,-1,55
 95 95 95 95 90 284 c 0,56,57
 88 487 88 487 88 493 c 0,58,59
 88 572 88 572 102 586 c 0,0,1
EndSplineSet
Validated: 1
EndChar

StartChar: L
Encoding: 76 76 26
Width: 637
VWidth: 1489
Flags: W
HStem: -55 120<308.461 549.145> -41 115<215.038 512.089>
LayerCount: 2
Fore
SplineSet
178 640 m 0,0,1
 201 663 201 663 225 663 c 0,2,3
 245 663 245 663 263 642 c 0,4,5
 275 624 275 624 276 607 c 0,6,7
 276 600 276 600 263 494 c 0,8,9
 215 129 215 129 215 92 c 0,10,11
 215 80 215 80 369 74 c 0,12,13
 475 70 475 70 502 65 c 128,-1,14
 529 60 529 60 546 46 c 0,15,16
 571 25 571 25 571 0 c 128,-1,17
 571 -25 571 -25 552 -43 c 0,18,19
 538 -55 538 -55 513 -55 c 0,20,21
 484 -55 484 -55 434 -48 c 0,22,23
 385 -41 385 -41 306 -41 c 0,24,25
 248 -41 248 -41 220 -43 c 0,26,27
 164 -45 164 -45 147 -46 c 0,28,29
 141 -46 141 -46 140 -46 c 0,30,31
 104 -46 104 -46 86 -28 c 0,32,33
 72 -10 72 -10 72 6 c 0,34,35
 72 12 72 12 79 54 c 0,36,37
 105 178 105 178 143 511 c 0,38,39
 155 614 155 614 178 640 c 0,0,1
EndSplineSet
Validated: 1
EndChar

StartChar: M
Encoding: 77 77 27
Width: 748
VWidth: 1286
Flags: W
VStem: 543 99<143.682 364> 550 103<-6.65918 363.457>
LayerCount: 2
Fore
SplineSet
549 580 m 0,0,1
 564 600 564 600 584 601 c 0,2,3
 604 601 604 601 624 579 c 0,4,5
 636 564 636 564 638.5 538 c 128,-1,6
 641 512 641 512 642 416 c 0,7,8
 642 289 642 289 649 139 c 0,9,10
 653 64 653 64 653 36 c 0,11,12
 653 -5 653 -5 644 -15 c 0,13,14
 631 -29 631 -29 612 -30 c 0,15,16
 590 -30 590 -30 573 -8 c 0,17,18
 559 11 559 11 550 187 c 2,19,-1
 543 364 l 1,20,-1
 506 281 l 2,21,22
 473 205 473 205 440 171 c 0,23,24
 413 142 413 142 391 142 c 0,25,26
 349 142 349 142 342 205 c 0,27,28
 336 251 336 251 331 251 c 0,29,30
 309 250 309 250 286 182 c 0,31,32
 277 157 277 157 222 74 c 0,33,34
 179 7 179 7 162 -18 c 0,35,36
 142 -48 142 -48 111 -48 c 0,37,38
 93 -47 93 -47 77 -33 c 0,39,40
 63 -20 63 -20 62 -2 c 0,41,42
 62 20 62 20 83 49 c 0,43,44
 113 94 113 94 178 215 c 1,45,-1
 324 527 l 1,46,47
 342 547 342 547 359 548 c 0,48,49
 385 548 385 548 397 525 c 128,-1,50
 409 502 409 502 414 443 c 0,51,52
 420 367 420 367 425 367 c 0,53,54
 429 367 429 367 481 465 c 0,55,56
 530 554 530 554 549 580 c 0,0,1
EndSplineSet
Validated: 1
EndChar

StartChar: N
Encoding: 78 78 28
Width: 932
VWidth: 1264
Flags: W
VStem: 428 97<250.975 456>
LayerCount: 2
Fore
SplineSet
450 705 m 0,0,1
 463 718 463 718 479 718 c 0,2,3
 480 718 480 718 481 718 c 0,4,5
 501 718 501 718 517 700 c 0,6,7
 529 687 529 687 529 631 c 0,8,9
 529 625 529 625 529 620 c 0,10,11
 529 611 529 611 527 468 c 0,12,13
 526 371 526 371 525 324 c 0,14,15
 525 301 525 301 525 290 c 0,16,-1
 525 250 l 0,17,18
 534 250 534 250 600 394 c 0,19,20
 655 516 655 516 752 635 c 0,21,22
 805 700 805 700 834 700 c 0,23,24
 835 700 l 0,25,-1
 836 700 l 0,26,-1
 837 700 l 0,27,28
 855 700 855 700 869.5 686 c 128,-1,29
 884 672 884 672 884 657 c 0,30,-1
 884 655 l 0,31,32
 884 633 884 633 845 588 c 0,33,34
 756 483 756 483 696 350 c 0,35,36
 670 295 670 295 571 113 c 0,37,38
 510 -2 510 -2 486 -35.5 c 128,-1,39
 462 -69 462 -69 439 -69 c 0,40,41
 438 -69 438 -69 437 -69 c 0,42,43
 419 -69 419 -69 406 -53 c 0,44,45
 394 -39 394 -39 393 -18 c 0,46,47
 393 -14 393 -14 400 45 c 0,48,49
 426 250 426 250 428 394 c 2,50,-1
 431 456 l 1,51,-1
 410 425 l 2,52,53
 396 400 396 400 340 295 c 0,54,55
 272 166 272 166 179 27 c 0,56,57
 134 -42 134 -42 109 -43 c 0,58,59
 95 -43 95 -43 79 -29 c 0,60,61
 64 -16 64 -16 63 8 c 0,62,63
 63 39 63 39 93 82 c 0,64,65
 187 225 187 225 246 340 c 0,66,67
 300 446 300 446 313 467 c 0,68,69
 385 569 385 569 415 638 c 0,70,71
 436 690 436 690 450 705 c 0,0,1
EndSplineSet
Validated: 1
EndChar

StartChar: O
Encoding: 79 79 29
Width: 724
VWidth: 1274
Flags: W
HStem: -55 97<239.273 371.111> 513 94<288.934 443.153> 561 90<448.288 509>
VStem: 77 92<113.348 351.783> 549 90<169.109 474.836>
LayerCount: 2
Fore
SplineSet
510 509 m 0,0,1
 476 561 476 561 458 561 c 0,2,3
 454 561 454 561 453 554 c 0,4,5
 453 536 453 536 431.5 524.5 c 128,-1,6
 410 513 410 513 375 513 c 0,7,8
 234 513 234 513 185 331 c 0,9,10
 170 268 170 268 169 228 c 0,11,12
 169 209 169 209 170 197 c 0,13,14
 176 145 176 145 188.5 119 c 128,-1,15
 201 93 201 93 231 70 c 0,16,17
 268 42 268 42 317 42 c 0,18,19
 319 42 319 42 321 42 c 0,20,21
 324 42 324 42 327 42 c 0,22,-1
 407 55 l 0,23,24
 477 80 477 80 507 126 c 128,-1,25
 537 172 537 172 545 265 c 0,26,27
 547 314 547 314 549 334 c 0,28,29
 548 451 548 451 510 509 c 0,0,1
450 637 m 0,30,31
 462 651 462 651 494 651 c 0,32,33
 524 651 524 651 564 604 c 0,34,35
 619 545 619 545 629 512.5 c 128,-1,36
 639 480 639 480 639 353 c 2,37,-1
 639 332 l 2,38,39
 639 193 639 193 631 154.5 c 128,-1,40
 623 116 623 116 582 57 c 0,41,42
 501 -55 501 -55 346 -55 c 0,43,44
 345 -55 345 -55 343 -55 c 0,45,46
 342 -55 342 -55 339 -55 c 2,47,-1
 312 -55 l 2,48,49
 260 -54 260 -54 240.5 -48 c 128,-1,50
 221 -42 221 -42 193 -26 c 0,51,52
 155 0 155 0 123 37 c 128,-1,53
 91 74 91 74 84 96 c 128,-1,54
 77 118 77 118 77 228.5 c 128,-1,55
 77 339 77 339 96 399 c 128,-1,56
 115 459 115 459 169 519 c 0,57,58
 219 575 219 575 252 592 c 4,59,60
 282 607 282 607 330 607 c 0,61,62
 333 607 333 607 336 607 c 128,-1,63
 339 607 339 607 342 607 c 2,64,-1
 361 607 l 1,65,-1
 390 607 l 2,66,67
 435 607 435 607 435 611 c 0,68,69
 436 623 436 623 450 637 c 0,30,31
EndSplineSet
Validated: 1
EndChar

StartChar: P
Encoding: 80 80 30
Width: 620
VWidth: 1268
Flags: W
HStem: 191 98<199.133 383.99> 604 93<207 257>
VStem: 87 99<-48.4844 191> 100 95<293.069 447.769> 450 99<374.087 500.796>
LayerCount: 2
Fore
SplineSet
323 582 m 0,0,1
 310 593 310 593 257 598 c 2,2,-1
 207 604 l 1,3,-1
 200 451 l 2,4,5
 198 347 198 347 195 322 c 0,6,7
 195 295 195 295 199 293 c 0,8,9
 203 289 203 289 240 289 c 0,10,11
 329 289 329 289 365 301 c 0,12,13
 385 309 385 309 395.5 319.5 c 128,-1,14
 406 330 406 330 420 358 c 0,15,16
 450 417 450 417 450 460 c 0,17,18
 450 479 450 479 444 492 c 0,19,20
 438 507 438 507 382.5 542.5 c 128,-1,21
 327 578 327 578 323 582 c 0,0,1
146 676 m 0,22,23
 157 689 157 689 174 692 c 0,24,25
 187 695 187 695 242 696 c 0,26,27
 248 696 248 696 253 697 c 0,28,29
 298 696 298 696 315 691 c 0,30,31
 335 687 335 687 372 669 c 0,32,33
 494 603 494 603 532 545 c 0,34,35
 547 516 547 516 549 463 c 0,36,37
 549 379 549 379 520 319 c 0,38,39
 486 243 486 243 435 218 c 128,-1,40
 384 193 384 193 275 191 c 2,41,-1
 186 191 l 1,42,-1
 186 83 l 2,43,44
 186 8 186 8 183 -11 c 0,45,46
 182 -30 182 -30 168 -44 c 0,47,48
 150 -63 150 -63 131 -65 c 0,49,50
 116 -65 116 -65 99 -51 c 0,51,52
 86 -39 86 -39 86 2 c 0,53,54
 86 31 86 31 87 50 c 0,55,56
 87 53 87 53 87 57 c 0,57,58
 87 85 87 85 92 186 c 0,59,60
 98 305 98 305 100 379 c 0,61,62
 106 559 106 559 113 602.5 c 128,-1,63
 120 646 120 646 146 676 c 0,22,23
EndSplineSet
Validated: 1
EndChar

StartChar: Q
Encoding: 81 81 31
Width: 763
VWidth: 1270
Flags: W
HStem: -36 94<289.846 429.385>
VStem: 76 94<185.552 394.286> 568 95<220.88 525.476>
LayerCount: 2
Fore
SplineSet
548 521 m 0,0,1
 521 573 521 573 511 573 c 0,2,3
 504 573 504 573 500 565 c 0,4,5
 488 552 488 552 438 551 c 0,6,7
 350 551 350 551 279 500 c 0,8,9
 207 451 207 451 185 373 c 0,10,11
 170 315 170 315 170 279 c 0,12,13
 170 244 170 244 188.5 194.5 c 128,-1,14
 207 145 207 145 225 127 c 0,15,16
 254 100 254 100 291 79.5 c 128,-1,17
 328 59 328 59 348 58 c 0,18,19
 370 58 370 58 408.5 71.5 c 128,-1,20
 447 85 447 85 447 92 c 0,21,22
 447 98 447 98 427 119 c 0,23,24
 405 139 405 139 404 166 c 0,25,26
 405 185 405 185 420 198 c 0,27,28
 434 212 434 212 450 213 c 0,29,30
 469 213 469 213 495 188 c 2,31,-1
 520 162 l 1,32,-1
 535 186 l 2,33,34
 546 204 546 204 557 295.5 c 128,-1,35
 568 387 568 387 568 444 c 0,36,37
 568 475 568 475 548 521 c 0,0,1
449 660 m 0,38,39
 458 672 458 672 503 673 c 0,40,41
 507 673 507 673 513 673 c 0,42,43
 551 673 551 673 562.5 668.5 c 128,-1,44
 574 664 574 664 594 641 c 0,45,46
 621 608 621 608 621 602 c 0,47,48
 621 598 621 598 639 568 c 0,49,50
 662 536 662 536 663 447 c 0,51,52
 663 441 663 441 663 438 c 0,53,54
 662 390 662 390 655 297 c 0,55,56
 644 176 644 176 625 139 c 2,57,-1
 602 102 l 1,58,-1
 642 66 l 2,59,60
 681 27 681 27 682 -3 c 0,61,62
 682 -22 682 -22 666 -37 c 0,63,64
 653 -51 653 -51 636 -52 c 0,65,66
 614 -52 614 -52 594 -29 c 0,67,68
 572 -2 572 -2 549 12 c 0,69,70
 534 21 534 21 528.5 20 c 128,-1,71
 523 19 523 19 503 7 c 0,72,73
 448 -36 448 -36 348 -36 c 0,74,75
 338 -36 338 -36 330 -36 c 0,76,77
 296 -36 296 -36 283 -33 c 0,78,79
 267 -29 267 -29 240 -13 c 0,80,81
 191 20 191 20 150.5 64 c 128,-1,82
 110 108 110 108 95 148 c 0,83,84
 76 196 76 196 76 283 c 0,85,86
 76 352 76 352 90 411 c 0,87,88
 99 449 99 449 112 468 c 0,89,90
 125 490 125 490 165 531 c 0,91,92
 223 591 223 591 269 614 c 0,93,94
 315 639 315 639 379 644 c 0,95,96
 441 649 441 649 449 660 c 0,38,39
EndSplineSet
Validated: 1
EndChar

StartChar: R
Encoding: 82 82 32
Width: 568
VWidth: 1274
Flags: W
HStem: 548 94<198.737 367.617>
VStem: 92 102<-29.75 208 320.413 545.02> 100 94<320.413 545.164> 393 94<363.384 520.986>
LayerCount: 2
Fore
SplineSet
361 534 m 0,0,1
 347 548 347 548 300 548 c 2,2,-1
 282 548 l 2,3,4
 213 548 213 548 205 542 c 0,5,6
 194 540 194 540 194 421 c 2,7,-1
 194 375 l 2,8,9
 194 333 194 333 197.5 320 c 128,-1,10
 201 307 201 307 217 307 c 0,11,12
 228 307 228 307 285 325 c 0,13,14
 365 351 365 351 379 363 c 128,-1,15
 393 375 393 375 393 422 c 0,16,17
 393 502 393 502 361 534 c 0,0,1
156 635 m 0,18,19
 168 642 168 642 239 642 c 0,20,21
 248 642 248 642 257 642 c 0,22,23
 269 642 269 642 282 642 c 2,24,-1
 392 642 l 1,25,-1
 422 615 l 2,26,27
 463 581 463 581 475 546 c 0,28,29
 487 508 487 508 487 424 c 2,30,-1
 487 326 l 1,31,-1
 450 291 l 2,32,33
 411 256 411 256 362 240 c 2,34,-1
 314 225 l 1,35,-1
 342 196 l 2,36,37
 376 158 376 158 406 115 c 0,38,39
 441 60 441 60 449 55 c 0,40,41
 462 44 462 44 462 27 c 0,42,43
 462 7 462 7 448 -12 c 128,-1,44
 434 -31 434 -31 415 -31 c 0,45,46
 400 -31 400 -31 364.5 4.5 c 128,-1,47
 329 40 329 40 295 91 c 0,48,49
 268 134 268 134 226 172 c 2,50,-1
 190 208 l 1,51,-1
 187 94 l 2,52,53
 186 -17 186 -17 170 -32 c 0,54,55
 156 -47 156 -47 137 -47 c 0,56,57
 136 -47 l 0,58,59
 118 -47 118 -47 103 -31 c 0,60,61
 90 -17 90 -17 90 75 c 0,62,63
 90 87 90 87 92 286 c 0,64,65
 96 503 96 503 100 548 c 0,66,67
 104 594 104 594 119 608 c 0,68,69
 138 629 138 629 156 635 c 0,18,19
EndSplineSet
Validated: 1
EndChar

StartChar: S
Encoding: 83 83 33
Width: 611
VWidth: 1264
Flags: W
HStem: -59 97<143.27 356.254> 269 86<274 336> 603 100<308.375 526.268>
VStem: 143 102<413.26 536.95> 413 101<80.0958 214.911>
LayerCount: 2
Fore
SplineSet
287 687 m 0,0,1
 316 701 316 701 409 703 c 0,2,3
 470 703 470 703 491 699 c 128,-1,4
 512 695 512 695 527 684 c 0,5,6
 549 670 549 670 550 646 c 0,7,8
 550 619 550 619 527 611 c 128,-1,9
 504 603 504 603 428 603 c 0,10,11
 360 603 360 603 344 598.5 c 128,-1,12
 328 594 328 594 302 577 c 0,13,14
 276 557 276 557 260 523 c 0,15,16
 245 489 245 489 245 462 c 0,17,18
 245 444 245 444 252 435 c 0,19,20
 263 415 263 415 294.5 385 c 128,-1,21
 326 355 326 355 336 355 c 0,22,23
 351 355 351 355 404 328 c 0,24,25
 458 300 458 300 475 281 c 0,26,27
 493 263 493 263 503.5 218 c 128,-1,28
 514 173 514 173 514 127 c 0,29,30
 514 102 514 102 512 93 c 0,31,32
 501 27 501 27 428 -16 c 128,-1,33
 355 -59 355 -59 254 -59 c 0,34,35
 205 -59 205 -59 153 -47.5 c 128,-1,36
 101 -36 101 -36 82 -19.5 c 128,-1,37
 63 -3 63 -3 63 26 c 0,38,39
 63 48 63 48 77 59 c 0,40,41
 88 68 88 68 98 70 c 0,42,43
 110 70 110 70 170 53 c 0,44,45
 236 38 236 38 252 38 c 0,46,47
 265 38 265 38 298 44 c 0,48,49
 364 58 364 58 388.5 77.5 c 128,-1,50
 413 97 413 97 413 133 c 0,51,52
 413 152 413 152 409 175 c 0,53,54
 403 205 403 205 394.5 213.5 c 128,-1,55
 386 222 386 222 342 243 c 0,56,57
 285 269 285 269 275 269 c 0,58,59
 274 269 l 0,60,61
 263 269 263 269 207.5 331.5 c 128,-1,62
 152 394 152 394 146 411 c 0,63,64
 144 429 144 429 143 445 c 0,65,66
 143 522 143 522 167 569 c 0,67,68
 181 599 181 599 219 636 c 128,-1,69
 257 673 257 673 287 687 c 0,0,1
EndSplineSet
Validated: 1
EndChar

StartChar: T
Encoding: 84 84 34
Width: 583
VWidth: 1270
Flags: W
HStem: 568 95<318 521.962>
VStem: 189 103<-27.9072 383.983> 223 93<269.922 560>
LayerCount: 2
Fore
SplineSet
62.5 646 m 128,-1,1
 75 660 75 660 288 663 c 2,2,-1
 380 663 l 2,3,4
 502 663 502 663 518 649 c 0,5,6
 533 635 533 635 535 618 c 0,7,8
 535 604 535 604 518 586 c 0,9,10
 509 575 509 575 490 571.5 c 128,-1,11
 471 568 471 568 411 568 c 2,12,-1
 318 568 l 1,13,-1
 316 493 l 2,14,15
 316 414 316 414 308 375 c 0,16,17
 299 330 299 330 292 160 c 0,18,19
 283 -14 283 -14 269 -29 c 128,-1,20
 255 -44 255 -44 238 -44 c 0,21,22
 218 -44 218 -44 201 -29 c 0,23,24
 190 -18 190 -18 189 24 c 0,25,26
 189 27 189 27 189 31 c 0,27,28
 189 42 189 42 194 139 c 0,29,30
 200 301 200 301 211.5 384 c 128,-1,31
 223 467 223 467 223 520 c 2,32,-1
 223 560 l 1,33,-1
 159 560 l 2,34,35
 98 560 98 560 72 579 c 0,36,37
 50 597 50 597 50 617 c 0,38,0
 50 632 50 632 62.5 646 c 128,-1,1
EndSplineSet
Validated: 1
EndChar

StartChar: U
Encoding: 85 85 35
Width: 746
VWidth: 1263
Flags: W
HStem: -53 99<279.242 365.312>
VStem: 83 97<236.092 665.62> 540 96<590.182 689.558>
LayerCount: 2
Fore
SplineSet
555 692 m 0,0,1
 568 706 568 706 588 708 c 0,2,3
 608 708 608 708 623 690 c 0,4,5
 636 676 636 676 636 645 c 0,6,7
 636 636 636 636 633 594 c 0,8,9
 633 584 633 584 633 562.5 c 128,-1,10
 633 541 633 541 633 508 c 0,11,12
 633 177 633 177 653 53 c 0,13,14
 659 6 659 6 659 3 c 0,15,16
 659 -12 659 -12 648 -29 c 0,17,18
 633 -44 633 -44 615 -44 c 0,19,20
 596 -44 596 -44 577 -25 c 0,21,22
 559 -6 559 -6 553 57 c 128,-1,23
 547 120 547 120 538 120 c 0,24,25
 532 120 532 120 527 102 c 128,-1,26
 522 84 522 84 468 26.5 c 128,-1,27
 414 -31 414 -31 393 -42 c 0,28,29
 369 -53 369 -53 335 -53 c 0,30,31
 332 -53 332 -53 329 -53 c 0,32,33
 288 -53 288 -53 261 -40 c 0,34,35
 167 8 167 8 121 137 c 0,36,37
 107 176 107 176 95 290 c 128,-1,38
 83 404 83 404 83 501 c 2,39,-1
 83 537 l 2,40,41
 85 647 85 647 103 666 c 0,42,43
 115 681 115 681 137.5 681 c 128,-1,44
 160 681 160 681 172 666 c 0,45,46
 184 654 184 654 184 623 c 0,47,48
 184 619 184 619 182 562 c 0,49,50
 181 544 181 544 180 501 c 0,51,52
 180 334 180 334 207 213 c 0,53,54
 240 69 240 69 321 46 c 1,55,-1
 324 46 l 2,56,57
 325 46 325 46 327 46 c 0,58,59
 340 46 340 46 376 77 c 0,60,61
 431 124 431 124 456 206.5 c 128,-1,62
 481 289 481 289 497 470 c 0,63,64
 506 579 506 579 523 600 c 0,65,66
 538 622 538 622 539.5 650 c 128,-1,67
 541 678 541 678 555 692 c 0,0,1
EndSplineSet
Validated: 1
EndChar

StartChar: V
Encoding: 86 86 36
Width: 672
VWidth: 1256
Flags: W
HStem: -58 21G<275 289.5>
VStem: 60 94<577.287 721.045>
LayerCount: 2
Fore
SplineSet
73 722 m 0,0,1
 86 736 86 736 105 736 c 128,-1,2
 124 736 124 736 139 721.5 c 128,-1,3
 154 707 154 707 154 684 c 0,4,5
 154 658 154 658 170 596 c 0,6,7
 228 393 228 393 241 335 c 0,8,9
 252 281 252 281 268.5 211 c 128,-1,10
 285 141 285 141 291 141 c 0,11,12
 297 142 297 142 331 218 c 128,-1,13
 365 294 365 294 400 386 c 0,14,15
 433 469 433 469 478.5 565.5 c 128,-1,16
 524 662 524 662 541 679 c 0,17,18
 554 693 554 693 571 695 c 0,19,20
 590 695 590 695 606 680 c 128,-1,21
 622 665 622 665 622 642 c 0,22,23
 621 617 621 617 561 494 c 0,24,25
 495 358 495 358 474 294 c 0,26,27
 454 235 454 235 391.5 105.5 c 128,-1,28
 329 -24 329 -24 311 -44 c 0,29,30
 297 -58 297 -58 282 -58 c 0,31,32
 268 -58 268 -58 249 -44 c 0,33,34
 235 -31 235 -31 214 31 c 0,35,36
 205 65 205 65 182 132 c 0,37,38
 174 157 174 157 149 275.5 c 128,-1,39
 124 394 124 394 116 418 c 0,40,41
 61 586 61 586 60 670 c 0,42,43
 61 708 61 708 73 722 c 0,0,1
EndSplineSet
Validated: 1
EndChar

StartChar: W
Encoding: 87 87 37
Width: 1018
VWidth: 1256
Flags: W
HStem: -58 21G<340.5 370> -50 21G<620 663.5> 413 20G<509 519.5>
VStem: 54 94<618.525 701.389> 857 114<629.688 710.355>
LayerCount: 2
Fore
SplineSet
857 681.5 m 128,-1,1
 857 692 857 692 884 714.5 c 128,-1,2
 911 737 911 737 922 737 c 0,3,4
 936 737 936 737 953.5 722.5 c 128,-1,5
 971 708 971 708 971 694 c 128,-1,6
 971 680 971 680 941.5 611.5 c 128,-1,7
 912 543 912 543 881 482 c 0,8,9
 856 437 856 437 806 291.5 c 128,-1,10
 756 146 756 146 738 108 c 0,11,12
 700 28 700 28 696 8 c 0,13,14
 685 -49 685 -49 642 -50 c 0,15,16
 641 -50 l 0,17,18
 599 -50 599 -50 587 8 c 0,19,20
 579 43 579 43 547.5 137 c 128,-1,21
 516 231 516 231 512 231 c 128,-1,22
 508 231 508 231 461 119 c 0,23,24
 417 14 417 14 417 -1 c 0,25,26
 417 -2 l 0,27,-1
 417 -3 l 0,28,29
 417 -17 417 -17 397.5 -37.5 c 128,-1,30
 378 -58 378 -58 362 -58 c 0,31,32
 319 -58 319 -58 283 50 c 0,33,34
 270 91 270 91 242.5 157 c 128,-1,35
 215 223 215 223 201 268 c 0,36,37
 142 450 142 450 84 561 c 0,38,39
 54 617 54 617 54 653 c 0,40,41
 54 680 54 680 69 696 c 0,42,43
 81 710 81 710 100 711 c 0,44,45
 114 711 114 711 131 697.5 c 128,-1,46
 148 684 148 684 148 670.5 c 128,-1,47
 148 657 148 657 181 598 c 0,48,49
 228 501 228 501 287 331 c 0,50,51
 321 232 321 232 339 193 c 2,52,-1
 360 146 l 1,53,-1
 397 240 l 2,54,55
 435 334 435 334 444 366 c 0,56,57
 469 433 469 433 508 433 c 0,58,59
 509 433 l 0,60,-1
 512 433 l 0,61,62
 527 433 527 433 541 419 c 0,63,64
 553 405 553 405 581.5 339 c 128,-1,65
 610 273 610 273 630 219 c 2,66,-1
 649 162 l 1,67,-1
 663 193 l 2,68,69
 667 202 667 202 695 287.5 c 128,-1,70
 723 373 723 373 752.5 453.5 c 128,-1,71
 782 534 782 534 790 543 c 0,72,73
 801 555 801 555 829 613 c 128,-1,0
 857 671 857 671 857 681.5 c 128,-1,1
EndSplineSet
Validated: 1
EndChar

StartChar: X
Encoding: 88 88 38
Width: 818
VWidth: 1243
Flags: W
HStem: 789 20G<121.75 139.25 717 737>
LayerCount: 2
Fore
SplineSet
655 762 m 0,0,1
 704 808 704 808 730 809 c 0,2,3
 744 809 744 809 759.5 795.5 c 128,-1,4
 775 782 775 782 775 766 c 0,5,6
 775 737 775 737 721 685 c 0,7,8
 672 637 672 637 575 526 c 128,-1,9
 478 415 478 415 478 404 c 0,10,-1
 516 339 l 0,11,12
 570 246 570 246 594 191 c 0,13,14
 641 91 641 91 665 55 c 0,15,16
 694 10 694 10 694 -22 c 0,17,18
 694 -44 694 -44 680 -58 c 0,19,20
 666 -70 666 -70 653 -71 c 0,21,22
 626 -71 626 -71 588.5 -15.5 c 128,-1,23
 551 40 551 40 484 175 c 0,24,25
 423 308 423 308 411 313 c 0,26,27
 410 314 410 314 407 314 c 0,28,29
 399 314 399 314 382 294 c 0,30,31
 373 282 373 282 290 191 c 0,32,33
 215 114 215 114 191 66 c 0,34,35
 165 19 165 19 154 4 c 0,36,37
 140 -10 140 -10 119 -10 c 0,38,39
 118 -10 118 -10 118 -11 c 0,40,41
 98 -11 98 -11 82 2 c 128,-1,42
 66 15 66 15 66 33 c 0,43,44
 66 59 66 59 103 118 c 0,45,46
 139 177 139 177 191 231 c 0,47,48
 247 289 247 289 304 359 c 2,49,-1
 349 415 l 1,50,-1
 276 506 l 2,51,52
 187 617 187 617 144 666 c 0,53,54
 84 736 84 736 84 752 c 0,55,56
 84 771 84 771 98.5 786 c 128,-1,57
 113 801 113 801 130.5 801 c 128,-1,58
 148 801 148 801 215.5 733 c 128,-1,59
 283 665 283 665 354 573 c 2,60,-1
 416 497 l 1,61,-1
 465 551 l 2,62,63
 490 577 490 577 552 652 c 128,-1,64
 614 727 614 727 655 762 c 0,0,1
EndSplineSet
Validated: 1
EndChar

StartChar: Y
Encoding: 89 89 39
Width: 789
VWidth: 1242
Flags: W
HStem: 786 20G<686.5 705.5>
VStem: 294 96<-63.6875 354>
LayerCount: 2
Fore
SplineSet
58 809 m 0,0,1
 71 823 71 823 89 823 c 0,2,3
 114 823 114 823 132 802 c 0,4,5
 164 768 164 768 215.5 689 c 128,-1,6
 267 610 267 610 295 556 c 0,7,8
 341 462 341 462 356 462 c 0,9,10
 358 462 358 462 359 463 c 2,11,-1
 367 469 l 2,12,13
 371 477 371 477 380 491.5 c 128,-1,14
 389 506 389 506 396 518 c 0,15,16
 479 639 479 639 605 746 c 0,17,18
 674 805 674 805 699 806 c 0,19,20
 712 806 712 806 728.5 792.5 c 128,-1,21
 745 779 745 779 745 761 c 0,22,23
 745 735 745 735 699 697 c 0,24,25
 558 573 558 573 495 478 c 0,26,27
 448 408 448 408 415 379 c 2,28,-1
 386 354 l 1,29,-1
 389 157 l 2,30,31
 390 110 390 110 390 44 c 0,32,33
 390 38 390 38 390 33 c 0,34,35
 390 -45 390 -45 377 -57 c 0,36,37
 364 -72 364 -72 344 -74 c 0,38,39
 326 -74 326 -74 311 -59 c 128,-1,40
 296 -44 296 -44 294 151 c 0,41,42
 292 288 292 288 287.5 321.5 c 128,-1,43
 283 355 283 355 268 386 c 0,44,45
 264 395 264 395 242 437.5 c 128,-1,46
 220 480 220 480 206 506 c 0,47,48
 171 580 171 580 123 644 c 0,49,50
 44 750 44 750 44 779 c 0,51,52
 44 795 44 795 58 809 c 0,0,1
EndSplineSet
Validated: 1
EndChar

StartChar: Z
Encoding: 90 90 40
Width: 994
VWidth: 1250
Flags: W
HStem: -68 122<127.531 296.458> -48 95<561.615 910.5> -29 100<281.166 758.379> 332 96<234.658 353.7 642.01 727.62> 415 20G<317 473> 676 103<69.3794 349.679 352.619 704.974> 694 84<97.125 551.032 554.872 764.531>
LayerCount: 2
Fore
SplineSet
157 783 m 2,0,-1
 205 783 l 2,1,2
 206 783 206 783 347 779 c 0,3,4
 417 778 417 778 460 778 c 0,5,6
 474 778 474 778 494 778 c 0,7,8
 507 778 507 778 526.5 778.5 c 128,-1,9
 546 779 546 779 550 779 c 2,10,-1
 706 779 l 2,11,12
 835 779 835 779 867.5 777 c 128,-1,13
 900 775 900 775 911 765 c 0,14,15
 927 752 927 752 928 736 c 0,16,17
 928 707 928 707 833 615 c 0,18,19
 765 547 765 547 684 482 c 0,20,21
 642 449 642 449 642 438 c 0,22,23
 642 428 642 428 681 428 c 0,24,25
 684 428 684 428 688 428 c 0,26,27
 714 427 714 427 728.5 412.5 c 128,-1,28
 743 398 743 398 743 378 c 128,-1,29
 743 358 743 358 728 344 c 0,30,31
 716 332 716 332 683 332 c 0,32,33
 677 332 677 332 615 334 c 2,34,-1
 518 340 l 1,35,-1
 482 309 l 2,36,37
 449 276 449 276 424 255 c 0,38,39
 406 242 406 242 334 161 c 128,-1,40
 262 80 262 80 252 62 c 0,41,42
 252 61 252 61 250 58 c 0,43,44
 250 54 250 54 268 54 c 0,45,46
 281 54 281 54 368 61 c 0,47,48
 454 69 454 69 489 71 c 0,49,50
 543 71 543 71 651 58 c 0,51,52
 768 47 768 47 825 47 c 0,53,54
 833 47 833 47 843 48 c 128,-1,55
 853 49 853 49 854 49 c 0,56,57
 874 51 874 51 880 52 c 0,58,59
 895 52 895 52 911 41 c 0,60,61
 925 28 925 28 926 2 c 0,62,63
 926 -20 926 -20 912.5 -34 c 128,-1,64
 899 -48 899 -48 813 -48 c 0,65,66
 805 -48 805 -48 798 -48 c 0,67,68
 718 -48 718 -48 620 -38 c 0,69,70
 554 -29 554 -29 501 -29 c 0,71,72
 498 -29 498 -29 494 -29 c 0,73,74
 442 -29 442 -29 385 -38 c 0,75,76
 264 -53 264 -53 238 -58 c 0,77,78
 199 -67 199 -67 158 -68 c 0,79,80
 102 -68 102 -68 87 -52 c 0,81,82
 73 -39 73 -39 73 -23 c 0,83,84
 73 9 73 9 144 94 c 0,85,86
 238 205 238 205 287 255 c 2,87,-1
 356 329 l 1,88,-1
 303 334 l 2,89,90
 217 343 217 343 217 387 c 0,91,92
 217 417 217 417 244.5 426 c 128,-1,93
 272 435 272 435 362 435 c 2,94,-1
 473 434 l 1,95,-1
 529 485 l 2,96,97
 606 546 606 546 731 651 c 2,98,-1
 765 682 l 1,99,-1
 735 687 l 2,100,101
 727 688 727 688 706 688 c 0,102,103
 673 687 673 687 660 685 c 0,104,105
 613 676 613 676 553 676 c 0,106,107
 490 676 490 676 432 687 c 0,108,109
 403 693 403 693 351 694 c 0,110,111
 309 694 309 694 232 688 c 0,112,113
 161 683 161 683 123 683 c 0,114,115
 117 683 117 683 111 683 c 0,116,117
 81 683 81 683 69 691 c 0,118,119
 55 704 55 704 54 723 c 0,120,121
 54 743 54 743 74 762 c 0,122,123
 89 779 89 779 157 783 c 2,0,-1
EndSplineSet
Validated: 1
EndChar

StartChar: a
Encoding: 97 97 41
Width: 759
VWidth: 1290
Flags: W
HStem: -5 93<225.109 483.956> 368 127<321.529 439.44> 389 106<256.03 428.347> 512 20G<498.5 526>
VStem: 70 97<154.123 307.769> 454 101<171.578 367.282>
LayerCount: 2
Fore
SplineSet
400 374 m 0,0,1
 393 381 393 381 346 387 c 0,2,3
 338 388 338 388 321 389 c 0,4,5
 275 389 275 389 217 338 c 0,6,7
 168 295 168 295 167 245 c 0,8,9
 167 186 167 186 201 134 c 0,10,11
 219 109 219 109 244.5 98.5 c 128,-1,12
 270 88 270 88 322 88 c 0,13,14
 473 88 473 88 473 140 c 0,15,16
 473 146 473 146 471 153 c 1,17,18
 455 218 455 218 454 242 c 0,19,20
 454 244 454 244 454 245 c 0,21,22
 453 324 453 324 446 350 c 0,23,24
 442 366 442 366 429 368 c 0,25,26
 408 367 408 367 400 374 c 0,0,1
474 517 m 0,27,28
 488 531 488 531 509 532 c 0,29,30
 543 532 543 532 543 416 c 0,31,32
 543 397 543 397 545 380 c 0,33,34
 551 339 551 339 555 238 c 0,35,36
 555 215 555 215 588 148 c 0,37,38
 611 101 611 101 637 87 c 0,39,40
 669 73 669 73 680 59 c 0,41,42
 692 48 692 48 692 34 c 0,43,44
 692 11 692 11 675.5 -2.5 c 128,-1,45
 659 -16 659 -16 636 -16 c 0,46,47
 600 -16 600 -16 567 10 c 0,48,49
 540 33 540 33 534 34 c 0,50,51
 530 34 530 34 520 24 c 0,52,53
 488 -5 488 -5 355 -5 c 0,54,55
 351 -5 351 -5 346 -5 c 2,56,-1
 308 -5 l 2,57,58
 227 -5 227 -5 193 8 c 0,59,60
 164 19 164 19 125 68 c 0,61,62
 90 109 90 109 80.5 145 c 128,-1,63
 71 181 71 181 70 249 c 0,64,65
 70 303 70 303 84 332 c 0,66,67
 98 365 98 365 148 409 c 0,68,69
 195 456 195 456 227 472 c 0,70,71
 281 495 281 495 318 495 c 0,72,73
 324 495 324 495 329 495 c 0,74,75
 375 488 375 488 414 480 c 0,76,77
 422 478 422 478 440 477 c 0,78,79
 452 477 452 477 456 487 c 0,80,81
 463 508 463 508 474 517 c 0,27,28
EndSplineSet
Validated: 1
EndChar

StartChar: b
Encoding: 98 98 42
Width: 606
VWidth: 1254
Flags: W
HStem: -51 96<178.585 342.909> 276 97<213.003 364.156>
VStem: 427 97<104.772 208.265>
LayerCount: 2
Fore
SplineSet
345 265 m 0,0,1
 322 276 322 276 272 276 c 0,2,3
 266 276 266 276 261 276 c 2,4,-1
 208 276 l 1,5,-1
 197 197 l 2,6,7
 196 182 196 182 191 153.5 c 128,-1,8
 186 125 186 125 184 108 c 128,-1,9
 182 91 182 91 180 84 c 2,10,-1
 177 53 l 1,11,-1
 220 47 l 2,12,13
 245 45 245 45 255 45 c 0,14,15
 302 45 302 45 360 75 c 0,16,17
 427 108 427 108 427 151 c 0,18,19
 427 160 427 160 424 165 c 0,20,21
 416 195 416 195 393.5 224.5 c 128,-1,22
 371 254 371 254 345 265 c 0,0,1
167 729 m 0,23,24
 181 743 181 743 199 743 c 0,25,26
 219 743 219 743 234 725 c 0,27,28
 245 714 245 714 246 695 c 0,29,30
 246 668 246 668 240 628 c 0,31,32
 227 499 227 499 225 479 c 0,33,34
 219 409 219 409 214 391 c 0,35,36
 213 389 213 389 213 381 c 128,-1,37
 213 373 213 373 225 373 c 0,38,39
 227 373 227 373 231 374 c 0,40,41
 246 374 246 374 285 372 c 0,42,43
 355 372 355 372 386 359 c 128,-1,44
 417 346 417 346 457 302.5 c 128,-1,45
 497 259 497 259 510.5 228 c 128,-1,46
 524 197 524 197 524 142 c 0,47,48
 524 99 524 99 519 86.5 c 128,-1,49
 514 74 514 74 481 38 c 0,50,51
 436 -8 436 -8 392 -27 c 0,52,53
 338 -51 338 -51 252 -51 c 0,54,55
 249 -51 249 -51 245 -51 c 0,56,57
 131 -51 131 -51 95 -16 c 0,58,59
 77 3 77 3 77 28 c 0,60,61
 77 47 77 47 78 60 c 0,62,63
 79 75 79 75 96 198 c 0,64,65
 108 273 108 273 135 579 c 0,66,67
 145 700 145 700 167 729 c 0,23,24
EndSplineSet
Validated: 1
EndChar

StartChar: c
Encoding: 99 99 43
Width: 495
VWidth: 1304
Flags: W
HStem: 383 99<251.631 394.653>
VStem: 69 90<138.422 271.004>
LayerCount: 2
Fore
SplineSet
225 468 m 0,0,1
 252 481 252 481 312 482 c 0,2,3
 380 482 380 482 397 465 c 0,4,5
 411 453 411 453 412 434 c 0,6,7
 412 411 412 411 395 392 c 0,8,9
 384 381 384 381 361 380 c 0,10,11
 349 380 349 380 343 382 c 0,12,13
 335 383 335 383 319 383 c 0,14,15
 230 382 230 382 174 257 c 0,16,17
 161 224 161 224 159 195 c 0,18,19
 159 102 159 102 328 88 c 0,20,21
 367 86 367 86 390.5 70.5 c 128,-1,22
 414 55 414 55 414 37 c 0,23,24
 414 23 414 23 395 1 c 0,25,26
 388 -8 388 -8 354 -10 c 0,27,28
 347 -10 347 -10 301 -7 c 0,29,30
 265 -5 265 -5 200 20 c 0,31,32
 166 33 166 33 143 55 c 0,33,-1
 101 102 l 0,34,35
 69 146 69 146 69 207 c 0,36,37
 69 272 69 272 100 356 c 1,38,-1
 118 372 l 2,39,40
 207 459 207 459 225 468 c 0,0,1
EndSplineSet
Validated: 1
EndChar

StartChar: d
Encoding: 100 100 44
Width: 574
VWidth: 1243
Flags: W
HStem: -72 95<221.746 382.989> 258 94<233.945 352.514> 790 20G<411 438>
VStem: 70 94<78.7373 182.664> 361 98<352.355 753.934> 371 100<567.474 792.65>
LayerCount: 2
Fore
SplineSet
339 247 m 0,0,1
 320 258 320 258 287 258 c 0,2,3
 286 258 286 258 284 258 c 0,4,5
 236 240 236 240 220 226 c 0,6,7
 195 201 195 201 179.5 170.5 c 128,-1,8
 164 140 164 140 164 120 c 0,9,10
 164 105 164 105 187.5 77 c 128,-1,11
 211 49 211 49 234 38 c 0,12,13
 261 25 261 25 321 23 c 2,14,-1
 383 23 l 1,15,-1
 378 56 l 2,16,17
 374 85 374 85 367 162 c 0,18,19
 365 210 365 210 359 224.5 c 128,-1,20
 353 239 353 239 339 247 c 0,0,1
385 793 m 0,21,22
 398 810 398 810 424 810 c 0,23,24
 425 810 425 810 427 810 c 0,25,26
 449 810 449 810 462 796 c 0,27,28
 471 783 471 783 471 761 c 0,29,30
 471 737 471 737 467 697 c 0,31,32
 459 619 459 619 459 486 c 0,33,34
 459 471 459 471 459 456 c 0,35,36
 459 222 459 222 474 98 c 0,37,38
 482 26 482 26 482 6 c 0,39,40
 482 -47 482 -47 452.5 -59.5 c 128,-1,41
 423 -72 423 -72 322 -72 c 0,42,43
 229 -72 229 -72 200.5 -61 c 128,-1,44
 172 -50 172 -50 119 4 c 2,45,-1
 70 57 l 1,46,-1
 70 120 l 2,47,48
 70 163 70 163 75.5 182 c 128,-1,49
 81 201 81 201 102 239 c 0,50,51
 138 297 138 297 172 323 c 0,52,53
 199 343 199 343 216 347 c 0,54,55
 229 352 229 352 271 352 c 0,56,57
 278 352 278 352 286 352 c 2,58,-1
 361 352 l 1,59,-1
 366 563 l 2,60,61
 368 707 368 707 371 744.5 c 128,-1,62
 374 782 374 782 385 793 c 0,21,22
EndSplineSet
Validated: 1
EndChar

StartChar: e
Encoding: 101 101 45
Width: 559
VWidth: 1308
Flags: W
HStem: -7 102<231.538 418.359> 202 94<229.456 375.654> 365 94<219 364.554>
VStem: 72 92<155.949 235.999> 382 101<304.26 355.718>
LayerCount: 2
Fore
SplineSet
365 356 m 0,0,1
 351 364 351 364 303 365 c 0,2,3
 299 365 299 365 296 365 c 0,4,5
 244 365 244 365 220 344 c 2,6,-1
 195 327 l 1,7,-1
 225 319 l 2,8,9
 233 318 233 318 246 315.5 c 128,-1,10
 259 313 259 313 276 308 c 128,-1,11
 293 303 293 303 300 302 c 0,12,13
 325 296 325 296 338 296 c 128,-1,14
 351 296 351 296 364 307 c 0,15,16
 382 321 382 321 382 334 c 0,17,18
 381 347 381 347 365 356 c 0,0,1
175 443 m 0,19,20
 202 458 202 458 297 459 c 0,21,22
 390 459 390 459 419 441 c 0,23,24
 482 403 482 403 483 342 c 0,25,26
 483 284 483 284 424 229 c 2,27,-1
 387 199 l 1,28,-1
 312 202 l 2,29,30
 235 205 235 205 201 223 c 0,31,32
 176 235 176 235 169 236 c 0,33,34
 165 236 165 236 164 231 c 0,35,36
 164 220 164 220 175.5 185.5 c 128,-1,37
 187 151 187 151 195 138 c 0,38,39
 204 124 204 124 255 110 c 128,-1,40
 306 96 306 96 351 95 c 0,41,42
 432 95 432 95 432 49 c 0,43,44
 432 -7 432 -7 335 -7 c 0,45,46
 288 -7 288 -7 233 9 c 0,47,48
 186 21 186 21 166.5 30 c 128,-1,49
 147 39 147 39 127 65 c 0,50,51
 72 125 72 125 72 233 c 2,52,-1
 72 260 l 2,53,54
 74 306 74 306 80 324 c 128,-1,55
 86 342 86 342 113 376 c 0,56,57
 146 428 146 428 175 443 c 0,19,20
EndSplineSet
Validated: 1
EndChar

StartChar: f
Encoding: 102 102 46
Width: 510
VWidth: 1260
Flags: W
HStem: 153 96<272.706 385.547> 162 94<77.1127 166> 609 104<332.42 442.494>
VStem: 161 94<-34.9191 152.188> 166 100<256.004 338.106>
LayerCount: 2
Fore
SplineSet
327 702 m 0,0,1
 356 712 356 712 383 713 c 0,2,3
 385 713 385 713 388 713 c 0,4,5
 427 713 427 713 443 697 c 0,6,7
 464 676 464 676 464 658 c 0,8,9
 464 640 464 640 446 626 c 0,10,11
 428 612 428 612 391 609 c 0,12,13
 335 603 335 603 314 565 c 128,-1,14
 293 527 293 527 279 407 c 0,15,16
 267 305 267 305 266 282 c 0,17,18
 266 260 266 260 272.5 254 c 128,-1,19
 279 248 279 248 299 249 c 2,20,-1
 314 249 l 2,21,22
 394 249 394 249 395 203 c 0,23,24
 395 154 395 154 315 153 c 2,25,-1
 267 153 l 1,26,-1
 261 101 l 2,27,28
 257 56 257 56 255 13 c 0,29,30
 255 -17 255 -17 240.5 -35.5 c 128,-1,31
 226 -54 226 -54 207 -54 c 0,32,33
 189 -54 189 -54 173 -36 c 0,34,35
 161 -23 161 -23 161 13 c 0,36,37
 161 46 161 46 163 72 c 2,38,-1
 167 162 l 1,39,-1
 129 162 l 2,40,41
 96 162 96 162 76.5 174 c 128,-1,42
 57 186 57 186 57 208 c 0,43,44
 57 256 57 256 127 256 c 2,45,-1
 166 256 l 1,46,-1
 177 382 l 2,47,48
 189 521 189 521 200 563.5 c 128,-1,49
 211 606 211 606 252 646 c 0,50,51
 301 694 301 694 327 702 c 0,0,1
EndSplineSet
Validated: 1
EndChar

StartChar: g
Encoding: 103 103 47
Width: 568
VWidth: 1425
Flags: W
HStem: -169 87<143.407 175.414> 112 101<171.393 293.853> 356 101<239.091 347.959> 416 20G<417.5 436.5>
VStem: 67 100<221.296 290.935> 349 122<285.521 352.885>
LayerCount: 2
Fore
SplineSet
290 356 m 0,0,1
 261 356 261 356 250 351 c 0,2,3
 235 345 235 345 203.5 308.5 c 128,-1,4
 172 272 172 272 168 256 c 0,5,6
 168 255 168 255 167.5 252.5 c 128,-1,7
 167 250 167 250 167 249 c 0,8,9
 167 222 167 222 216 214 c 0,10,11
 224 213 224 213 240 213 c 0,12,13
 269 213 269 213 288 230 c 0,14,15
 310 248 310 248 328 288 c 0,16,17
 349 331 349 331 349 344 c 0,18,19
 349 356 349 356 290 356 c 0,0,1
198 441 m 0,20,21
 227 455 227 455 294 457 c 0,22,23
 357 457 357 457 369 442 c 0,24,25
 377 433 377 433 393 434 c 0,26,27
 399 434 399 434 405.5 435 c 128,-1,28
 412 436 412 436 423 436 c 0,29,30
 450 436 450 436 459 406 c 0,31,32
 471 367 471 367 471 304 c 0,33,34
 471 293 471 293 471 281 c 0,35,36
 471 270 471 270 472 250 c 0,37,38
 472 231 472 231 472 222 c 0,39,40
 472 211 472 211 472 200 c 0,41,42
 472 -21 472 -21 446 -72 c 0,43,44
 408 -151 408 -151 404 -153 c 2,45,-1
 377 -184 l 1,46,-1
 271 -190 l 2,47,-1
 189 -180 l 0,48,-1
 150 -169 l 0,49,50
 127 -149 127 -149 127 -126 c 0,51,52
 127 -111 127 -111 143 -94 c 0,53,54
 156 -82 156 -82 172 -82 c 0,55,56
 185 -82 185 -82 214 -89 c 0,57,58
 236 -94 236 -94 264 -94 c 0,59,60
 269 -94 269 -94 274 -94 c 0,61,62
 292 -94 292 -94 299 -92 c 0,63,64
 324 -90 324 -90 332 -82 c 0,65,66
 339 -74 339 -74 348 -43 c 0,67,68
 360 -4 360 -4 365 57 c 0,69,70
 373 133 373 133 375 144 c 2,71,-1
 379 175 l 1,72,-1
 359 155 l 2,73,74
 316 112 316 112 238 112 c 0,75,76
 157 113 157 113 101 162 c 0,77,78
 76 184 76 184 71.5 196 c 128,-1,79
 67 208 67 208 67 237 c 0,80,81
 67 244 67 244 67 249 c 0,82,83
 67 285 67 285 74 302 c 0,84,85
 86 328 86 328 129 379 c 0,86,87
 172 427 172 427 198 441 c 0,20,21
EndSplineSet
Validated: 1
EndChar

StartChar: h
Encoding: 104 104 48
Width: 591
VWidth: 1266
Flags: W
HStem: -49 21G<133 156.5> 305 96<264.854 359.803>
VStem: 94 102<-24.241 187.251 373 666.554> 407 96<1.76001 235.446> 420 74<-20.6562 91.7621>
LayerCount: 2
Fore
SplineSet
116 667 m 0,0,1
 134 685 134 685 155 685 c 0,2,3
 174 685 174 685 184 671 c 0,4,5
 193 660 193 660 195 597 c 0,6,7
 195 550 195 550 194 514 c 2,8,-1
 189 373 l 1,9,-1
 210 387 l 2,10,11
 232 400 232 400 298 401 c 0,12,13
 352 401 352 401 385 387.5 c 128,-1,14
 418 374 418 374 451 339 c 0,15,16
 473 314 473 314 487.5 242 c 128,-1,17
 502 170 502 170 503 94 c 0,18,19
 503 22 503 22 493.5 -0.5 c 128,-1,20
 484 -23 484 -23 455 -23 c 0,21,22
 429 -23 429 -23 419.5 1 c 128,-1,23
 410 25 410 25 407 90 c 0,24,25
 398 267 398 267 346 293 c 0,26,27
 326 305 326 305 297 305 c 0,28,29
 279 305 279 305 270 297 c 128,-1,30
 261 289 261 289 245 257 c 0,31,32
 199 154 199 154 196 60 c 0,33,34
 194 -1 194 -1 182 -25 c 128,-1,35
 170 -49 170 -49 143 -49 c 0,36,37
 123 -49 123 -49 108.5 -30 c 128,-1,38
 94 -11 94 -11 94 126 c 0,39,40
 94 235 94 235 95 317 c 0,41,42
 97 559 97 559 100 606 c 128,-1,43
 103 653 103 653 116 667 c 0,0,1
EndSplineSet
Validated: 1
EndChar

StartChar: i
Encoding: 105 105 49
Width: 287
VWidth: 1277
Flags: W
HStem: 532 94<117.408 183.561>
VStem: 84 94<6.63623 324.195> 104 94<543.628 610.531> 117 79<290.143 384.622>
LayerCount: 2
Fore
SplineSet
117 388 m 0,0,1
 131 402 131 402 147 403 c 0,2,3
 167 403 167 403 184 385 c 0,4,5
 195 373 195 373 196 349 c 0,6,7
 196 314 196 314 189 249 c 0,8,9
 178 133 178 133 178 60 c 0,10,11
 178 -10 178 -10 164 -23.5 c 128,-1,12
 150 -37 150 -37 133.5 -37 c 128,-1,13
 117 -37 117 -37 98 -23 c 0,14,15
 87 -14 87 -14 85.5 6 c 128,-1,16
 84 26 84 26 84 92 c 0,17,18
 84 195 84 195 94 284.5 c 128,-1,19
 104 374 104 374 117 388 c 0,0,1
117 611 m 0,20,21
 130 626 130 626 150 626 c 0,22,23
 151 626 151 626 152 626 c 0,24,25
 171 626 171 626 184 614 c 0,26,27
 198 602 198 602 198 581 c 0,28,29
 198 566 198 566 183 550 c 0,30,31
 168 535 168 535 151 532 c 0,32,33
 131 532 131 532 117 546 c 0,34,35
 103 560 103 560 103 577 c 0,36,37
 103 595 103 595 117 611 c 0,20,21
EndSplineSet
Validated: 1
EndChar

StartChar: j
Encoding: 106 106 50
Width: 456
VWidth: 1298
Flags: W
HStem: -110 102<65.5989 210.646> 503 102<277.439 340.47>
VStem: 263 92<517.955 591.591> 270 97<95.2822 398.999>
LayerCount: 2
Fore
SplineSet
283.5 399.5 m 128,-1,1
 297 415 297 415 316 415 c 0,2,3
 334 415 334 415 350 401 c 0,4,5
 365 387 365 387 367 282 c 0,6,7
 367 72 367 72 322 -9 c 0,8,9
 295 -52 295 -52 268 -71 c 0,10,11
 248 -86 248 -86 229 -92 c 128,-1,12
 210 -98 210 -98 156 -104 c 0,13,14
 111 -108 111 -108 93 -110 c 0,15,16
 71 -110 71 -110 60 -98 c 0,17,18
 45 -85 45 -85 45 -68 c 0,19,20
 45 -53 45 -53 65 -30 c 0,21,22
 84 -10 84 -10 124 -8 c 0,23,24
 212 -8 212 -8 233 43 c 0,25,26
 247 78 247 78 258.5 155.5 c 128,-1,27
 270 233 270 233 270 302 c 0,28,0
 270 384 270 384 283.5 399.5 c 128,-1,1
277 589.5 m 128,-1,30
 291 605 291 605 309 605 c 0,31,32
 310 605 310 605 311 605 c 0,33,34
 324 605 324 605 341 592 c 0,35,36
 355 579 355 579 355 556 c 0,37,38
 355 536 355 536 342.5 519.5 c 128,-1,39
 330 503 330 503 311 503 c 0,40,41
 291 503 291 503 277 517.5 c 128,-1,42
 263 532 263 532 263 553 c 128,-1,29
 263 574 263 574 277 589.5 c 128,-1,30
EndSplineSet
Validated: 1
EndChar

StartChar: k
Encoding: 107 107 51
Width: 509
VWidth: 1272
Flags: W
HStem: -35 113<322.065 384.922>
VStem: 84 94<9.56592 98> 133 88<542.354 630.623>
LayerCount: 2
Fore
SplineSet
133 633 m 0,0,1
 147 647 147 647 171 647 c 0,2,3
 198 647 198 647 211 631 c 0,4,5
 221 619 221 619 221 600 c 0,6,7
 221 598 221 598 221 594 c 0,8,9
 221 562 221 562 207 442 c 0,10,11
 205 410 205 410 201.5 365.5 c 128,-1,12
 198 321 198 321 195.5 298 c 128,-1,13
 193 275 193 275 193 271 c 0,14,15
 193 270 193 270 194 270 c 0,16,17
 195 270 l 0,18,19
 201 270 201 270 225 287 c 0,20,21
 259 307 259 307 296.5 337 c 128,-1,22
 334 367 334 367 347 381 c 0,23,24
 373 407 373 407 390 407 c 0,25,26
 409 407 409 407 423 391 c 128,-1,27
 437 375 437 375 437 354 c 128,-1,28
 437 333 437 333 396 292 c 0,29,30
 356 251 356 251 293 208 c 2,31,-1
 241 173 l 1,32,-1
 293 126 l 2,33,34
 345 78 345 78 350 78 c 0,35,36
 363 78 363 78 388 53 c 128,-1,37
 413 28 413 28 413 14 c 0,38,39
 413 -4 413 -4 398 -19.5 c 128,-1,40
 383 -35 383 -35 364 -35 c 0,41,42
 306 -35 306 -35 225 50 c 2,43,-1
 178 98 l 1,44,-1
 178 59 l 2,45,46
 178 27 178 27 165.5 9 c 128,-1,47
 153 -9 153 -9 132 -9 c 0,48,49
 131 -9 131 -9 130 -9 c 0,50,51
 114 -9 114 -9 98 5 c 0,52,53
 87 14 87 14 85.5 34.5 c 128,-1,54
 84 55 84 55 84 119 c 0,55,56
 84 191 84 191 100 358.5 c 128,-1,57
 116 526 116 526 117 540 c 0,58,59
 120 619 120 619 133 633 c 0,0,1
EndSplineSet
Validated: 1
EndChar

StartChar: l
Encoding: 108 108 52
Width: 367
VWidth: 1270
Flags: W
HStem: -36 94<179.135 287.519> 634 20G<203.25 219.75>
VStem: 78 100<66.1641 312.244>
LayerCount: 2
Fore
SplineSet
177 636 m 0,0,1
 195 654 195 654 211.5 654 c 128,-1,2
 228 654 228 654 246 638 c 0,3,4
 259 625 259 625 259 609 c 0,5,6
 258 598 258 598 252 561 c 0,7,8
 241 502 241 502 227 460 c 0,9,10
 212 402 212 402 195 273.5 c 128,-1,11
 178 145 178 145 178 91 c 0,12,13
 178 73 178 73 179 71 c 0,14,15
 183 60 183 60 227 58 c 0,16,17
 261 58 261 58 281.5 45 c 128,-1,18
 302 32 302 32 302 13.5 c 128,-1,19
 302 -5 302 -5 288 -20 c 0,20,21
 273 -34 273 -34 207 -36 c 2,22,-1
 139 -36 l 1,23,-1
 110 -2 l 2,24,25
 78 32 78 32 78 71 c 0,26,27
 78 192 78 192 114.5 399 c 128,-1,28
 151 606 151 606 177 636 c 0,0,1
EndSplineSet
Validated: 1
EndChar

StartChar: m
Encoding: 109 109 53
Width: 864
VWidth: 1419
Flags: W
HStem: 343 106<290.001 370.021> 353 104<523.385 645.794>
VStem: 89 101<-1.65063 101> 400 106<42.741 306.547> 664 108<52.0168 334.406>
LayerCount: 2
Fore
SplineSet
459 427 m 0,0,1
 474 447 474 447 498 452 c 128,-1,2
 522 457 522 457 582 457 c 2,3,-1
 594 457 l 0,4,5
 602 458 602 458 610 458 c 0,6,7
 646 457 646 457 686 444 c 0,8,-1
 729 415 l 2,9,10
 751 401 751 401 763 345 c 0,11,12
 772 308 772 308 772 185 c 0,13,14
 772 83 772 83 762 50 c 0,15,16
 753 21 753 21 723 21 c 0,17,18
 722 22 l 0,19,20
 690 22 690 22 677 51 c 0,21,22
 664 83 664 83 664 184 c 0,23,24
 664 218 664 218 657 296 c 0,25,26
 655 322 655 322 642 335 c 0,27,28
 627 353 627 353 603 353 c 0,29,30
 589 353 589 353 579 351 c 0,31,32
 527 343 527 343 517 322 c 0,33,34
 508 302 508 302 506 179 c 0,35,36
 504 65 504 65 498 42 c 0,37,38
 489 10 489 10 457 10 c 128,-1,39
 425 10 425 10 412.5 35 c 128,-1,40
 400 60 400 60 400 117 c 0,41,42
 400 124 400 124 400 128 c 0,43,44
 400 285 400 285 367 326 c 0,45,46
 354 342 354 342 332 343 c 0,47,-1
 330 343 l 0,48,49
 326 343 326 343 322 343 c 0,50,51
 297 341 297 341 290 320.5 c 128,-1,52
 283 300 283 300 244 191 c 0,53,54
 191 47 191 47 190 31 c 0,55,-1
 190 30 l 1,56,-1
 190 26 l 2,57,58
 190 14 190 14 175 -2 c 0,59,60
 161 -15 161 -15 141 -16 c 0,61,62
 140 -16 140 -16 139 -16 c 0,63,64
 117 -16 117 -16 102 -2 c 0,65,66
 91 9 91 9 89 43 c 0,67,68
 87 84 87 84 87 200 c 0,69,70
 87 287 87 287 89 356 c 0,71,72
 90 391 90 391 102 402 c 0,73,74
 120 417 120 417 139 418 c 0,75,76
 140 418 140 418 140 419 c 0,77,78
 157 419 157 419 173 403 c 0,79,80
 182 395 182 395 184 397 c 0,81,82
 192 397 192 397 218.5 419.5 c 128,-1,83
 245 442 245 442 256 444 c 0,84,85
 271 448 271 448 322 449 c 0,86,87
 394 449 394 449 418 430 c 0,88,89
 436 417 436 417 444 417 c 0,90,91
 451 418 451 418 459 427 c 0,0,1
EndSplineSet
Validated: 1
EndChar

StartChar: n
Encoding: 110 110 54
Width: 604
VWidth: 1293
Flags: W
HStem: 402 95<306.348 402.617> 510 20G<141 159.5>
VStem: 78 99<52.7744 209.141> 101 98<434 512.466> 415 94<4.38074 388.063>
LayerCount: 2
Fore
SplineSet
119 516 m 0,0,1
 132 530 132 530 150 530 c 0,2,3
 169 530 169 530 184 513 c 128,-1,4
 199 496 199 496 199 467 c 2,5,-1
 199 434 l 1,6,7
 244 476 244 476 265 497 c 1,8,-1
 344 497 l 2,9,10
 424 497 424 497 454 480 c 0,11,12
 480 466 480 466 489 453 c 128,-1,13
 498 440 498 440 503.5 410.5 c 128,-1,14
 509 381 509 381 509 317 c 0,15,16
 509 305 509 305 509 273 c 128,-1,17
 509 241 509 241 508 223 c 0,18,19
 506 87 506 87 502 51.5 c 128,-1,20
 498 16 498 16 489 4 c 0,21,22
 476 -12 476 -12 454 -12 c 0,23,24
 453 -12 453 -12 452 -12 c 0,25,26
 438 -12 438 -12 423 -2 c 0,27,28
 410 10 410 10 409 77 c 0,29,30
 410 89 410 89 414 196 c 0,31,32
 415 239 415 239 415 301 c 0,33,34
 415 375 415 375 403 388.5 c 128,-1,35
 391 402 391 402 347 402 c 2,36,-1
 344 402 l 2,37,38
 317 402 317 402 306 397.5 c 128,-1,39
 295 393 295 393 281 375 c 0,40,41
 204 283 204 283 177 109 c 0,42,43
 165 39 165 39 124 37 c 0,44,45
 105 37 105 37 90 55 c 0,46,47
 78 67 78 67 78 97 c 0,48,49
 78 131 78 131 84 201 c 0,50,51
 96 332 96 332 101 415 c 128,-1,52
 106 498 106 498 119 516 c 0,0,1
EndSplineSet
Validated: 1
EndChar

StartChar: o
Encoding: 111 111 55
Width: 704
VWidth: 1408
Flags: W
HStem: -18 106<230.499 414.041> 371 116<294.625 440 441 491.72> 388 97<294.625 439.254>
VStem: 72 106<146.404 312.498> 518 103<171.693 336.241>
LayerCount: 2
Fore
SplineSet
410 382 m 0,0,1
 408 388 408 388 377 388 c 0,2,3
 373 388 373 388 368 388 c 0,4,5
 361 388 361 388 354 388 c 0,6,7
 277 388 277 388 252 375 c 0,8,9
 204 349 204 349 184 261 c 0,10,11
 178 229 178 229 178 212 c 128,-1,12
 178 195 178 195 194 159 c 0,13,14
 214 114 214 114 249 99 c 0,15,16
 272 89 272 89 306 88 c 0,17,18
 309 88 309 88 312 88 c 0,19,20
 375 88 375 88 432 119 c 0,21,22
 485 149 485 149 501.5 171 c 128,-1,23
 518 193 518 193 518 238 c 0,24,25
 518 240 518 240 517 250 c 128,-1,26
 516 260 516 260 516 264 c 0,27,28
 514 333 514 333 489 353 c 0,29,30
 465 371 465 371 441 372 c 0,31,-1
 440 371 l 0,32,33
 416 371 416 371 410 382 c 0,0,1
209 480 m 0,34,35
 248 495 248 495 294 497 c 0,36,37
 314 497 314 497 334 495 c 0,38,39
 383 487 383 487 396 485 c 0,40,41
 397 485 397 485 398 485 c 0,42,43
 409 486 409 486 418 487 c 0,44,45
 436 487 436 487 445 482 c 0,46,47
 446 482 446 482 452 483 c 128,-1,48
 458 484 458 484 462 484 c 0,49,50
 538 484 538 484 586 415 c 2,51,-1
 610 377 l 1,52,-1
 621 260 l 0,53,54
 619 204 619 204 616 147 c 1,55,-1
 577 92 l 2,56,57
 544 50 544 50 478 14 c 0,58,59
 446 -4 446 -4 336 -17 c 0,60,61
 322 -18 322 -18 295 -18 c 0,62,63
 236 -18 236 -18 211 -10 c 0,64,65
 178 2 178 2 135 48 c 0,66,67
 92 95 92 95 81 129 c 0,68,69
 72 163 72 163 72 214 c 0,70,71
 72 283 72 283 86 332 c 0,72,73
 99 375 99 375 137 420 c 0,74,75
 174 466 174 466 209 480 c 0,34,35
EndSplineSet
Validated: 1
EndChar

StartChar: p
Encoding: 112 112 56
Width: 614
VWidth: 1725
Flags: W
HStem: 400 110<216.045 362.777>
VStem: 76 100<-189.009 -22.3906> 99 114<199.494 374.457> 422 112<238.239 350.663>
LayerCount: 2
Fore
SplineSet
337 389 m 4,0,1
 309 400 309 400 286 400 c 4,2,3
 275 400 275 400 239 394 c 4,4,5
 219 390 219 390 215 375 c 4,6,7
 213 358 213 358 213 292 c 6,8,-1
 213 196 l 5,9,-1
 281 203 l 6,10,11
 392 216 392 216 417 253 c 4,12,13
 422 258 422 258 422 272.5 c 132,-1,14
 422 287 422 287 417 308 c 4,15,16
 412 338 412 338 395 356 c 4,17,18
 382 371 382 371 337 389 c 4,0,1
178 502 m 4,19,20
 224 509 224 509 275 510 c 4,21,22
 404 510 404 510 467 451 c 4,23,24
 500 420 500 420 518 389 c 4,25,26
 532 361 532 361 534 327 c 4,27,28
 534 314 534 314 534 300 c 132,-1,29
 534 286 534 286 534 269 c 4,30,31
 529 188 529 188 494 159 c 4,32,33
 464 133 464 133 399 114 c 4,34,35
 295 86 295 86 293 86 c 6,36,-1
 204 86 l 5,37,-1
 197 -47 l 6,38,39
 191 -138 191 -138 176 -175 c 4,40,41
 163 -205 163 -205 127 -205 c 4,42,43
 103 -205 103 -205 89.5 -189.5 c 132,-1,44
 76 -174 76 -174 76 -130 c 4,45,46
 76 -128 76 -128 81 -68 c 4,47,48
 96 119 96 119 99 233 c 4,49,50
 103 361 103 361 108 412 c 4,51,52
 113 450 113 450 125 463 c 4,53,54
 151 497 151 497 178 502 c 4,19,20
EndSplineSet
Validated: 1
EndChar

StartChar: q
Encoding: 113 113 57
Width: 537
VWidth: 1413
Flags: W
HStem: 87 93<194.853 336.609> 361 94<209.323 336.307> 454 20G<390.5 408>
VStem: 69 103<203.42 324.8> 337 94<-185.648 90 200 359.223>
LayerCount: 2
Fore
SplineSet
337 200 m 5,0,-1
 337 361 l 5,1,-1
 292 361 l 6,2,3
 211 360 211 360 184 310 c 4,4,5
 172 288 172 288 172 260 c 4,6,7
 172 226 172 226 193.5 203.5 c 132,-1,8
 215 181 215 181 246 180 c 4,9,10
 254 180 254 180 264 183 c 4,11,12
 272 184 272 184 288.5 189.5 c 132,-1,13
 305 195 305 195 312 196 c 6,14,-1
 337 200 l 5,0,-1
372 463 m 4,15,16
 383 474 383 474 398 474 c 4,17,18
 418 474 418 474 436 459 c 4,19,20
 447 448 447 448 447 431 c 4,21,22
 447 418 447 418 441 388 c 4,23,24
 431 347 431 347 431 132 c 4,25,26
 431 110 431 110 431 87 c 4,27,28
 431 -82 431 -82 429 -128.5 c 132,-1,29
 427 -175 427 -175 416 -186 c 4,30,31
 402 -200 402 -200 386 -200 c 4,32,33
 385 -200 385 -200 384 -201 c 0,34,35
 368 -201 368 -201 351 -186 c 4,36,37
 340 -177 340 -177 338.5 -152 c 132,-1,38
 337 -127 337 -127 337 -41 c 6,39,-1
 337 90 l 5,40,-1
 260 88 l 6,41,42
 251 88 251 88 238 87.5 c 132,-1,43
 225 87 225 87 219 87 c 4,44,45
 193 87 193 87 182 90.5 c 132,-1,46
 171 94 171 94 148 111 c 4,47,48
 114 136 114 136 89 177 c 4,49,50
 69 215 69 215 69 240 c 4,51,52
 69 259 69 259 70 271 c 4,53,54
 74 319 74 319 87 346.5 c 132,-1,55
 100 374 100 374 134 407 c 4,56,57
 164 437 164 437 190 446 c 132,-1,58
 216 455 216 455 263 455 c 6,59,-1
 291 455 l 5,60,-1
 318 455 l 6,61,62
 364 455 364 455 372 463 c 4,15,16
EndSplineSet
Validated: 1
EndChar

StartChar: r
Encoding: 114 114 58
Width: 474
VWidth: 1302
Flags: W
HStem: 458 20G<119.5 138.5 350 372>
VStem: 84 92<404 462.557> 98 95<21.2448 278.081>
LayerCount: 2
Fore
SplineSet
96 463 m 0,0,1
 110 477 110 477 129 478 c 0,2,3
 148 478 148 478 162 464 c 128,-1,4
 176 450 176 450 176 428 c 2,5,-1
 176 404 l 1,6,-1
 234 421 l 2,7,8
 289 435 289 435 318 455 c 0,9,10
 338 469 338 469 362 470 c 0,11,12
 382 470 382 470 396 458 c 128,-1,13
 410 446 410 446 410 425 c 0,14,15
 410 398 410 398 362.5 366.5 c 128,-1,16
 315 335 315 335 253 321 c 0,17,18
 197 310 197 310 193 110 c 0,19,20
 193 44 193 44 183.5 20.5 c 128,-1,21
 174 -3 174 -3 147 -3 c 128,-1,22
 120 -3 120 -3 109 16 c 128,-1,23
 98 35 98 35 98 83 c 0,24,25
 98 128 98 128 90 294 c 2,26,-1
 84 414 l 2,27,28
 84 449 84 449 96 463 c 0,0,1
EndSplineSet
Validated: 1
EndChar

StartChar: s
Encoding: 115 115 59
Width: 528
VWidth: 1302
Flags: W
HStem: 2 99<80.071 309.961> 5 107<78.03 156.943> 386 93<266.329 421.192>
VStem: 65 370<58 166> 151 94<306.585 364.174>
LayerCount: 2
Fore
SplineSet
219 454 m 0,0,1
 245 472 245 472 262 475 c 128,-1,2
 279 478 279 478 336 479 c 0,3,4
 419 479 419 479 436 464 c 0,5,6
 451 449 451 449 451 424 c 0,7,8
 451 400 451 400 436 383 c 0,9,10
 422 369 422 369 401 368 c 0,11,12
 387 368 387 368 378 376 c 0,13,14
 374 386 374 386 344 386 c 0,15,16
 305 386 305 386 281 373 c 0,17,18
 246 355 246 355 245 326 c 0,19,20
 245 317 245 317 289 294.5 c 128,-1,21
 333 272 333 272 357 267 c 0,22,23
 434 253 434 253 435 166 c 0,24,25
 435 98 435 98 378 49 c 0,26,27
 348 23 348 23 311.5 13 c 128,-1,28
 275 3 275 3 196 2 c 2,29,-1
 158 2 l 2,30,31
 124 2 124 2 110.5 5 c 128,-1,32
 97 8 97 8 84 20 c 0,33,34
 65 38 65 38 65 58 c 0,35,36
 65 80 65 80 90 102 c 0,37,38
 105 114 105 114 119 112 c 0,39,40
 130 112 130 112 144 106 c 0,41,42
 157 101 157 101 178 101 c 0,43,44
 181 101 181 101 185 101 c 128,-1,45
 189 101 189 101 193 101 c 0,46,47
 199 101 199 101 204 101 c 0,48,49
 312 101 312 101 330 147 c 0,50,51
 336 160 336 160 333.5 165 c 128,-1,52
 331 170 331 170 314 172 c 0,53,54
 246 186 246 186 186 241 c 0,55,56
 159 263 159 263 155 275 c 128,-1,57
 151 287 151 287 151 323 c 0,58,59
 151 368 151 368 165.5 396 c 128,-1,60
 180 424 180 424 219 454 c 0,0,1
EndSplineSet
Validated: 1
EndChar

StartChar: t
Encoding: 116 116 60
Width: 500
VWidth: 1277
Flags: W
HStem: -30 98<315.051 377.435> 395 106<174 193 309 412.828> 395 94<68.2029 192.578>
VStem: 193 97<94.5739 394.938> 215 101<501 600.625>
LayerCount: 2
Fore
SplineSet
233 597 m 0,0,1
 247 617 247 617 270 618 c 0,2,3
 289 617 289 617 306 601 c 0,4,5
 316 589 316 589 316 575 c 0,6,7
 316 570 316 570 314 543 c 1,8,-1
 309 501 l 1,9,-1
 358 494 l 2,10,11
 438 483 438 483 439 442 c 0,12,13
 439 395 439 395 372 395 c 0,14,15
 370 395 370 395 363 395.5 c 128,-1,16
 356 396 356 396 353 396 c 2,17,-1
 301 398 l 1,18,-1
 295 370 l 2,19,20
 290 339 290 339 290 267 c 0,21,22
 290 255 290 255 290 243 c 2,23,-1
 290 229 l 2,24,25
 290 81 290 81 343 67.5 c 128,-1,26
 396 54 396 54 396 16 c 0,27,28
 396 -3 396 -3 378 -16.5 c 128,-1,29
 360 -30 360 -30 330 -30 c 0,30,31
 258 -30 258 -30 212 59 c 0,32,33
 199 84 199 84 196 114 c 128,-1,34
 193 144 193 144 193 247 c 2,35,-1
 193 395 l 1,36,-1
 141 395 l 2,37,38
 139 395 139 395 137 395 c 0,39,40
 58 395 58 395 58 439 c 0,41,42
 58 458 58 458 74.5 473.5 c 128,-1,43
 91 489 91 489 111 489 c 0,44,45
 118 489 118 489 123 489 c 0,46,47
 149 489 149 489 174 494 c 2,48,-1
 215 501 l 1,49,-1
 215 538 l 2,50,51
 215 575 215 575 233 597 c 0,0,1
EndSplineSet
Validated: 1
EndChar

StartChar: u
Encoding: 117 117 61
Width: 633
VWidth: 1292
Flags: W
HStem: -6 106<210.411 313.474> 519 20G<123.5 148.5 444 463>
VStem: 82 93<142.047 471.857> 86 100<392.419 504.682> 407 110<209.384 504.663> 442 107<9.47119 97.3438>
LayerCount: 2
Fore
SplineSet
420 523 m 0,0,1
 434 537 434 537 454 539 c 0,2,3
 472 539 472 539 486 523 c 0,4,5
 498 510 498 510 507.5 437 c 128,-1,6
 517 364 517 364 517 283.5 c 128,-1,7
 517 203 517 203 537 114 c 0,8,9
 549 44 549 44 549 28 c 0,10,11
 549 14 549 14 541 3 c 0,12,13
 527 -12 527 -12 508 -15 c 0,14,15
 485 -15 485 -15 467.5 5.5 c 128,-1,16
 450 26 450 26 442 61 c 2,17,-1
 438 99 l 1,18,-1
 400 66 l 2,19,20
 370 36 370 36 331 16 c 128,-1,21
 292 -4 292 -4 260 -6 c 0,22,23
 208 -6 208 -6 162 30 c 128,-1,24
 116 66 116 66 96 118 c 0,25,26
 82 156 82 156 82 270 c 2,27,-1
 82 325 l 2,28,29
 83 434 83 434 85.5 464.5 c 128,-1,30
 88 495 88 495 97 505 c 0,31,32
 111 520 111 520 136 520 c 128,-1,33
 161 520 161 520 174 506 c 0,34,35
 185 494 185 494 186 472 c 0,36,37
 186 468 186 468 181 390 c 0,38,39
 177 334 177 334 175 289 c 0,40,41
 175 128 175 128 232 106 c 0,42,43
 245 100 245 100 262 100 c 0,44,45
 295 100 295 100 339 145 c 0,46,47
 381 187 381 187 394 234 c 128,-1,48
 407 281 407 281 407 386 c 0,49,50
 407 508 407 508 420 523 c 0,0,1
EndSplineSet
Validated: 1
EndChar

StartChar: v
Encoding: 118 118 62
Width: 568
VWidth: 1305
Flags: W
HStem: 453 20G<108 130.5 440 463.5>
VStem: 72 86<395.584 465.556>
LayerCount: 2
Fore
SplineSet
84 457 m 0,0,1
 100 473 100 473 116 473 c 0,2,3
 117 473 117 473 118 473 c 0,4,5
 143 473 143 473 158 445 c 128,-1,6
 173 417 173 417 226 281 c 0,7,8
 253 209 253 209 261.5 209 c 128,-1,9
 270 209 270 209 310 288 c 0,10,11
 343 353 343 353 380 399 c 0,12,13
 425 464 425 464 455 464 c 0,14,15
 456 464 l 0,16,17
 471 464 471 464 486 450 c 0,18,19
 500 437 500 437 502 419 c 0,20,21
 501 397 501 397 465 342 c 0,22,23
 427 288 427 288 360 161 c 0,24,25
 302 56 302 56 281 27 c 128,-1,26
 260 -2 260 -2 238 -2 c 128,-1,27
 216 -2 216 -2 202 21 c 128,-1,28
 188 44 188 44 172 114 c 0,29,30
 157 175 157 175 127 255 c 128,-1,31
 97 335 97 335 86 349 c 0,32,33
 77 362 77 362 73 399 c 0,34,35
 72 408 72 408 72 424 c 0,36,37
 72 445 72 445 84 457 c 0,0,1
EndSplineSet
Validated: 1
EndChar

StartChar: w
Encoding: 119 119 63
Width: 736
VWidth: 1306
Flags: W
HStem: 437 20G<110.5 130>
LayerCount: 2
Fore
SplineSet
87 441 m 0,0,1
 100 455 100 455 121 457 c 0,2,3
 139 457 139 457 153 443 c 0,4,5
 164 432 164 432 184 359 c 0,6,7
 207 283 207 283 215 239 c 0,8,9
 224 185 224 185 234 184 c 0,10,11
 246 184 246 184 291 244 c 0,12,13
 345 318 345 318 367 318 c 2,14,-1
 371 318 l 2,15,16
 416 317 416 317 443 231 c 0,17,18
 455 196 455 196 460 196 c 0,19,20
 461 196 461 196 466 208 c 0,21,22
 479 251 479 251 522 337.5 c 128,-1,23
 565 424 565 424 581 443 c 0,24,25
 594 456 594 456 615 456 c 0,26,27
 616 456 616 456 617 457 c 0,28,29
 636 457 636 457 652 445 c 0,30,31
 669 433 669 433 669 416 c 0,32,33
 669 399 669 399 630 330 c 0,34,35
 604 275 604 275 575 203 c 0,36,37
 556 155 556 155 525 97 c 128,-1,38
 494 39 494 39 477 19 c 0,39,40
 459 1 459 1 434 1 c 0,41,42
 433 1 433 1 432 1 c 128,-1,43
 431 1 431 1 430 1 c 0,44,45
 412 1 412 1 398 15 c 0,46,47
 386 27 386 27 374 86 c 0,48,49
 363 142 363 142 357 150 c 1,50,-1
 356 150 l 2,51,52
 347 149 347 149 314 103 c 0,53,54
 266 35 266 35 248.5 18 c 128,-1,55
 231 1 231 1 217 1 c 0,56,57
 187 1 187 1 167 43 c 128,-1,58
 147 85 147 85 120 204 c 0,59,60
 109 255 109 255 89 312 c 0,61,62
 74 368 74 368 74 397 c 256,63,64
 74 426 74 426 87 441 c 0,0,1
EndSplineSet
Validated: 1
EndChar

StartChar: x
Encoding: 120 120 64
Width: 552
VWidth: 1306
Flags: W
HStem: 437 20G<162 183>
LayerCount: 2
Fore
SplineSet
141 441 m 0,0,1
 154 455 154 455 170 457 c 0,2,3
 196 457 196 457 229 410 c 0,4,5
 278 342 278 342 286 337 c 2,6,-1
 310 306 l 1,7,-1
 359 362 l 2,8,9
 406 416 406 416 435 417 c 0,10,11
 450 417 450 417 466 400 c 0,12,13
 479 389 479 389 479 374 c 0,14,15
 479 348 479 348 417 276 c 0,16,17
 413 272 413 272 405 264 c 128,-1,18
 397 256 397 256 394 252 c 128,-1,19
 391 248 391 248 386 242 c 128,-1,20
 381 236 381 236 379 232.5 c 128,-1,21
 377 229 377 229 373.5 223.5 c 128,-1,22
 370 218 370 218 368.5 216 c 128,-1,23
 367 214 367 214 364.5 209.5 c 128,-1,24
 362 205 362 205 361.5 202.5 c 128,-1,25
 361 200 361 200 361 196 c 0,26,27
 361 181 361 181 408 119 c 0,28,29
 447 67 447 67 447 49 c 0,30,31
 447 30 447 30 431.5 15.5 c 128,-1,32
 416 1 416 1 394 1 c 0,33,34
 379 1 379 1 364.5 13.5 c 128,-1,35
 350 26 350 26 321 68 c 2,36,-1
 269 136 l 1,37,-1
 201 76 l 2,38,39
 133 19 133 19 112 18 c 0,40,41
 111 18 l 0,42,43
 97 18 97 18 83 33 c 0,44,45
 65 47 65 47 65 62 c 0,46,47
 65 94 65 94 143 159 c 128,-1,48
 221 224 221 224 221 237 c 0,49,-1
 222 237 l 0,50,51
 222 250 222 250 174 312 c 0,52,53
 127 373 127 373 127 407 c 0,54,55
 127 427 127 427 141 441 c 0,0,1
EndSplineSet
Validated: 1
EndChar

StartChar: y
Encoding: 121 121 65
Width: 615
VWidth: 1355
Flags: W
HStem: -204 96<98.1119 162.513> 409 20G<487 505.5>
LayerCount: 2
Fore
SplineSet
465 415 m 0,0,1
 478 429 478 429 496 429 c 0,2,3
 515 429 515 429 529.5 412.5 c 128,-1,4
 544 396 544 396 544 375 c 0,5,6
 544 329 544 329 481 237 c 0,7,8
 448 189 448 189 401 103 c 0,9,10
 352 9 352 9 297 -75 c 128,-1,11
 242 -159 242 -159 216 -180 c 0,12,13
 189 -203 189 -203 151 -204 c 0,14,15
 149 -204 149 -204 147 -204 c 0,16,17
 117 -204 117 -204 97.5 -191 c 128,-1,18
 78 -178 78 -178 78 -157 c 0,19,20
 78 -138 78 -138 94 -123.5 c 128,-1,21
 110 -109 110 -109 129 -108 c 0,22,23
 142 -108 142 -108 156 -93.5 c 128,-1,24
 170 -79 170 -79 204 -27 c 0,25,26
 250 43 250 43 250 53 c 0,27,28
 250 59 250 59 244 70 c 0,29,30
 230 84 230 84 214.5 112.5 c 128,-1,31
 199 141 199 141 199 154 c 0,32,33
 199 165 199 165 169 212 c 0,34,35
 137 258 137 258 104 295 c 0,36,37
 69 337 69 337 69 366 c 2,38,-1
 69 370 l 2,39,40
 69 389 69 389 83 404 c 0,41,42
 96 419 96 419 112 421 c 0,43,44
 138 420 138 420 185 357 c 0,45,46
 278 241 278 241 297 182 c 2,47,-1
 306 146 l 1,48,-1
 327 187 l 2,49,50
 345 225 345 225 380 273 c 0,51,52
 406 308 406 308 431 360 c 0,53,54
 450 396 450 396 465 415 c 0,0,1
EndSplineSet
Validated: 1
EndChar

StartChar: z
Encoding: 122 122 66
Width: 624
VWidth: 1309
Flags: W
HStem: 26 96<288.5 517.107> 38 84<288.5 528.584> 360 84<119.385 293.361>
VStem: 72 214<47 122>
LayerCount: 2
Fore
SplineSet
119 428 m 0,0,1
 131 442 131 442 182 444 c 0,2,3
 230 444 230 444 360 429 c 0,4,5
 443 420 443 420 470.5 414 c 128,-1,6
 498 408 498 408 509 398 c 0,7,8
 528 379 528 379 529 368 c 0,9,10
 529 341 529 341 417 240 c 0,11,12
 300 137 300 137 289 128 c 0,13,14
 287 126 287 126 286 122 c 0,15,16
 286 119 286 119 306 119 c 0,17,18
 311 119 311 119 317 119 c 0,19,20
 325 119 325 119 394 122 c 0,21,22
 408 122 408 122 425 122 c 0,23,24
 431 122 431 122 437 123 c 0,25,26
 449 123 449 123 462 122 c 0,27,28
 516 122 516 122 529 110 c 0,29,30
 545 94 545 94 546 78 c 0,31,32
 546 47 546 47 518 38.5 c 128,-1,33
 490 30 490 30 389 26 c 0,34,35
 290 22 290 22 185 10 c 0,36,37
 138 6 138 6 120 6 c 0,38,39
 98 6 98 6 86 15 c 0,40,41
 72 28 72 28 72 47 c 0,42,43
 72 90 72 90 159 155 c 0,44,45
 208 190 208 190 286 257 c 2,46,-1
 367 327 l 1,47,-1
 338 331 l 2,48,49
 304 339 304 339 221 344 c 0,50,51
 151 350 151 350 127.5 360.5 c 128,-1,52
 104 371 104 371 104 393 c 0,53,54
 105 414 105 414 119 428 c 0,0,1
EndSplineSet
Validated: 1
EndChar

StartChar: Adieresis
Encoding: 196 196 68
Width: 785
VWidth: 1256
Flags: W
HStem: -50 21G<100 110> 165 97<316.516 484> 624 93<183.439 253.15> 641 92<650.923 715.562>
VStem: 63 47<-50 3> 583 119<-7.20923 71.9914> 637 93<655.438 718.531>
LayerCount: 2
Fore
SplineSet
431 432 m 0,0,1
 425 479 425 479 417.5 479 c 128,-1,2
 410 479 410 479 362.5 381 c 128,-1,3
 315 283 315 283 315 265 c 0,4,5
 315 263 315 263 366 262 c 2,6,-1
 402 262 l 1,7,-1
 484 265 l 1,8,-1
 461 328 l 2,9,10
 437 389 437 389 431 432 c 0,0,1
386 627 m 0,11,12
 419 666 419 666 442 667 c 0,13,14
 457 667 457 667 476 645 c 0,15,16
 495 619 495 619 525 470 c 0,17,18
 540 389 540 389 683 72 c 0,19,20
 702 29 702 29 702 5 c 0,21,22
 702 -13 702 -13 688 -27.5 c 128,-1,23
 674 -42 674 -42 657 -42 c 0,24,25
 637 -42 637 -42 616.5 -21 c 128,-1,26
 596 0 596 0 583 36 c 0,27,28
 565 84 565 84 550 117 c 2,29,-1
 527 165 l 1,30,-1
 426 165 l 2,31,32
 320 165 320 165 287 161 c 0,33,34
 255 157 255 157 242.5 141 c 128,-1,35
 230 125 230 125 186 40 c 0,36,37
 154 -20 154 -20 142 -35 c 0,38,39
 129 -49 129 -49 111 -49 c 0,40,41
 110 -49 110 -49 110 -50 c 0,42,43
 109 -50 109 -50 108 -50 c 0,44,45
 92 -50 92 -50 78 -35 c 0,46,47
 64 -19 64 -19 63 3 c 0,48,49
 63 42 63 42 163 211 c 0,50,51
 202 274 202 274 231 348 c 0,52,53
 264 425 264 425 312 511 c 128,-1,54
 360 597 360 597 386 627 c 0,11,12
183 702 m 0,55,56
 195 715 195 715 214 717 c 0,57,58
 233 717 233 717 247.5 704 c 128,-1,59
 262 691 262 691 262 672 c 0,60,61
 262 654 262 654 247 639 c 128,-1,62
 232 624 232 624 217 624 c 0,63,64
 197 624 197 624 183 637.5 c 128,-1,65
 169 651 169 651 169 671 c 0,66,67
 170 687 170 687 183 702 c 0,55,56
649 719 m 0,68,69
 662 733 662 733 682 733 c 0,70,71
 683 733 683 733 684 734 c 0,72,73
 702 734 702 734 716 722 c 128,-1,74
 730 710 730 710 730 689 c 0,75,76
 730 671 730 671 715 656 c 128,-1,77
 700 641 700 641 684 641 c 0,78,79
 664 641 664 641 650.5 655 c 128,-1,80
 637 669 637 669 637 687 c 0,81,82
 637 704 637 704 649 719 c 0,68,69
EndSplineSet
Validated: 1
EndChar

StartChar: AE
Encoding: 198 198 69
Width: 964
VWidth: 1240
Flags: W
HStem: -34 96<595.011 861.392> 244 94<307.015 424> 313 95<526 837.592> 710 94<526 761.254> 718 96<527.375 852.209> 766 20G<428 434.5>
VStem: 427 99<408 518> 427 89<439.152 568.569>
LayerCount: 2
Fore
SplineSet
427 414 m 2,0,1
 425 500 425 500 421 541 c 2,2,-1
 414 591 l 1,3,-1
 397 559 l 2,4,5
 375 512 375 512 341 432 c 128,-1,6
 307 352 307 352 307 346 c 0,7,8
 307 338 307 338 367 338 c 2,9,-1
 427 338 l 1,10,-1
 427 414 l 2,0,1
569 804 m 0,11,12
 599 804 599 804 621 804 c 0,13,14
 663 804 663 804 668 805 c 4,15,16
 707 814 707 814 763 814 c 4,17,18
 828 814 828 814 853 804 c 4,19,20
 878 795 878 795 878 767 c 132,-1,21
 878 739 878 739 856 728 c 4,22,23
 834 718 834 718 775 718 c 4,24,25
 749 713 749 713 703 709 c 4,26,27
 699 709 699 709 688 709 c 0,28,29
 665 709 665 709 614 710 c 2,30,-1
 526 710 l 1,31,-1
 519 671 l 2,32,33
 516 653 516 653 516 607 c 0,34,35
 516 568 516 568 519 518 c 2,36,-1
 526 408 l 1,37,-1
 572 408 l 2,38,39
 590 410 590 410 738 417 c 2,40,-1
 834 422 l 2,41,42
 836 422 836 422 837 422 c 0,43,44
 856 422 856 422 868 412 c 0,45,46
 883 399 883 399 885 379 c 0,47,48
 885 359 885 359 868 345 c 0,49,50
 833 313 833 313 601 313 c 2,51,-1
 522 313 l 1,52,-1
 526 263 l 2,53,54
 531 213 531 213 537 128 c 2,55,-1
 542 40 l 1,56,-1
 617 50 l 2,57,58
 710 62 710 62 766 62 c 0,59,60
 843 62 843 62 862 48 c 0,61,62
 877 36 877 36 877 16 c 0,63,64
 877 -2 877 -2 863 -18 c 0,65,66
 849 -33 849 -33 795.5 -33.5 c 128,-1,67
 742 -34 742 -34 657 -47 c 0,68,69
 534 -65 534 -65 502 -66 c 0,70,71
 467 -66 467 -66 454 -49 c 0,72,73
 446 -39 446 -39 445 22 c 2,74,-1
 445 35 l 2,75,76
 445 118 445 118 435 176 c 2,77,-1
 424 244 l 1,78,-1
 265 244 l 1,79,-1
 221 135 l 2,80,81
 186 50 186 50 160 7 c 0,82,83
 135 -33 135 -33 117 -33 c 2,84,-1
 111 -33 l 2,85,86
 93 -33 93 -33 79.5 -18.5 c 128,-1,87
 66 -4 66 -4 65 16 c 0,88,89
 65 38 65 38 105 129 c 0,90,91
 132 187 132 187 191 344 c 0,92,93
 227 437 227 437 300 591 c 0,94,95
 366 730 366 730 390 762 c 0,96,97
 407 786 407 786 426 786 c 0,98,99
 427 786 427 786 428 786 c 0,100,-1
 429 786 l 0,101,102
 430 786 430 786 433 786 c 0,103,104
 436 785 436 785 437 785 c 0,105,106
 444 784 444 784 452 784 c 0,107,108
 464 784 464 784 471 794 c 0,109,110
 479 804 479 804 555 804 c 0,111,112
 562 804 562 804 569 804 c 0,11,12
EndSplineSet
Validated: 1
EndChar

StartChar: Odieresis
Encoding: 214 214 70
Width: 777
VWidth: 1227
Flags: W
HStem: -70 95<317.625 487.459> 606 97<297.805 496.627> 730 93<213.377 279.5 559.377 625.531>
VStem: 78 94<180.471 442.342> 201 92<745.47 809.623> 545 94<745.532 809.5> 596 94<126.005 415.727>
LayerCount: 2
Fore
SplineSet
496 585 m 0,0,1
 482 604 482 604 414 606 c 2,2,-1
 390 606 l 2,3,4
 345 606 345 606 316 593 c 0,5,6
 287 582 287 582 255 547 c 0,7,8
 180 471 180 471 175 323 c 0,9,10
 174 298 174 298 172 265 c 0,11,12
 172 222 172 222 193 182 c 0,13,14
 220 133 220 133 256 94 c 0,15,16
 298 48 298 48 348 37 c 0,17,18
 395 25 395 25 418 25 c 0,19,20
 450 25 450 25 506 57 c 0,21,22
 539 76 539 76 552.5 89 c 128,-1,23
 566 102 566 102 573 122 c 0,24,25
 593 177 593 177 596 257 c 0,26,27
 594 390 594 390 545 495 c 0,28,29
 516 560 516 560 496 585 c 0,0,1
279 689 m 0,30,31
 308 702 308 702 355 703 c 0,32,33
 396 703 396 703 424 701 c 2,34,-1
 531 697 l 1,35,-1
 563 666 l 2,36,37
 592 634 592 634 624.5 571 c 128,-1,38
 657 508 657 508 672 463 c 0,39,40
 690 396 690 396 690 244 c 0,41,42
 690 236 690 236 690 227 c 0,43,44
 690 153 690 153 685 126 c 0,45,46
 666 33 666 33 563 -31 c 0,47,48
 507 -66 507 -66 447 -70 c 2,49,-1
 429 -70 l 2,50,51
 366 -70 366 -70 326 -60 c 0,52,53
 280 -52 280 -52 262.5 -41.5 c 128,-1,54
 245 -31 245 -31 193 20 c 0,55,56
 117 96 117 96 97 143 c 0,57,58
 78 188 78 188 78 297 c 0,59,60
 79 391 79 391 85 435 c 128,-1,61
 91 479 91 479 113 525 c 0,62,63
 131 564 131 564 186 619 c 128,-1,64
 241 674 241 674 279 689 c 0,30,31
559 810 m 4,65,66
 571 823 571 823 593 823 c 4,67,68
 611 823 611 823 626 811 c 4,69,70
 639 799 639 799 639 781 c 0,71,72
 639 762 639 762 626 745 c 4,73,74
 612 730 612 730 594 730 c 4,75,76
 574 730 574 730 559.5 744.5 c 132,-1,77
 545 759 545 759 545 777 c 4,78,79
 545 794 545 794 559 810 c 4,65,66
213 810 m 4,80,81
 225 823 225 823 246 823 c 4,82,83
 264 823 264 823 280 810 c 4,84,85
 293 799 293 799 293 779.5 c 132,-1,86
 293 760 293 760 280 745 c 4,87,88
 265 730 265 730 248 730 c 4,89,90
 228 730 228 730 214.5 744.5 c 132,-1,91
 201 759 201 759 201 777 c 4,92,93
 201 798 201 798 213 810 c 4,80,81
EndSplineSet
Validated: 1
EndChar

StartChar: Udieresis
Encoding: 220 220 71
Width: 771
VWidth: 1233
Flags: W
HStem: -62 96<274.619 428.103> 716 93<293.954 362.742> 726 93<456.315 527.113>
VStem: 83 94<140.354 543.292> 570 103<26.3564 49 204.983 659.324> 576 87<452.977 659.619>
LayerCount: 2
Fore
SplineSet
591 660 m 0,0,1
 604 678 604 678 629 679 c 0,2,3
 630 679 630 679 632 679 c 0,4,5
 650 679 650 679 663 664 c 0,6,7
 673 653 673 653 673 562 c 0,8,9
 673 554 673 554 673 545 c 0,10,11
 673 535 673 535 673 524 c 0,12,13
 673 401 673 401 672 300 c 0,14,15
 668 -46 668 -46 657 -59 c 0,16,17
 645 -71 645 -71 631 -72 c 0,18,19
 611 -72 611 -72 592 -56 c 0,20,21
 579 -43 579 -43 574 5 c 2,22,-1
 569 49 l 1,23,-1
 523 5 l 2,24,25
 478 -37 478 -37 445 -49.5 c 128,-1,26
 412 -62 412 -62 353 -62 c 0,27,28
 299 -62 299 -62 265 -50 c 128,-1,29
 231 -38 231 -38 177 3 c 0,30,31
 131 41 131 41 109 87 c 2,32,-1
 83 139 l 1,33,-1
 84 315 l 2,34,35
 84 607 84 607 128 654 c 0,36,37
 141 669 141 669 165 671 c 0,38,-1
 166 671 l 0,39,40
 189 671 189 671 204 653 c 0,41,42
 216 639 216 639 216 628 c 0,43,44
 216 626 216 626 210 596 c 0,45,46
 180 469 180 469 177 315 c 0,47,48
 177 221 177 221 181 194 c 128,-1,49
 185 167 185 167 203 133 c 0,50,51
 228 85 228 85 237 83 c 0,52,53
 250 83 250 83 260 69 c 0,54,55
 292 34 292 34 355 34 c 0,56,57
 356 34 356 34 362 34.5 c 128,-1,58
 368 35 368 35 372 35 c 0,59,60
 446 46 446 46 511 140 c 0,61,62
 549 192 549 192 558 240 c 128,-1,63
 567 288 567 288 570 449 c 0,64,65
 572 577 572 577 576 612.5 c 128,-1,66
 580 648 580 648 591 660 c 0,0,1
293 797 m 4,67,68
 303 809 303 809 317 809 c 0,69,70
 319 809 319 809 321.5 809 c 132,-1,71
 324 809 324 809 326 809 c 4,72,73
 345 809 345 809 358.5 796.5 c 132,-1,74
 372 784 372 784 372 767 c 0,75,76
 372 747 372 747 357 731 c 4,77,78
 342 716 342 716 327 716 c 4,79,80
 308 716 308 716 293.5 729.5 c 132,-1,81
 279 743 279 743 279 763 c 4,82,83
 280 781 280 781 293 797 c 4,67,68
456 804 m 4,84,85
 466 816 466 816 488 818 c 4,86,87
 489 818 489 818 490 819 c 4,88,89
 491 819 491 819 494 819 c 0,90,91
 510 819 510 819 522 807 c 4,92,93
 535 795 535 795 536 776 c 4,94,95
 536 756 536 756 521 741 c 4,96,97
 507 726 507 726 489 726 c 4,98,99
 469 726 469 726 455.5 740 c 132,-1,100
 442 754 442 754 442 771 c 4,101,102
 443 788 443 788 456 804 c 4,84,85
EndSplineSet
Validated: 1
EndChar

StartChar: germandbls
Encoding: 223 223 72
Width: 614
VWidth: 1289
Flags: W
HStem: -16 100<241.824 348.344> 666 102<257.382 360.562>
VStem: 82 94<-216.618 299.237> 398 95<127.059 241.855> 435 107<429 584.856>
LayerCount: 2
Fore
SplineSet
239 756 m 0,0,1
 274 768 274 768 306 768 c 0,2,3
 345 768 345 768 377 754 c 0,4,5
 407 741 407 741 459.5 685 c 128,-1,6
 512 629 512 629 522 599 c 0,7,8
 533 574 533 574 540 482 c 2,9,-1
 542 391 l 1,10,-1
 516 366 l 2,11,12
 487 337 487 337 468 329 c 2,13,-1
 449 317 l 1,14,-1
 472 293 l 2,15,16
 485 275 485 275 489 259 c 0,17,18
 492 247 492 247 493 215 c 0,19,20
 493 206 493 206 493 196 c 0,21,22
 493 126 493 126 473 87 c 0,23,24
 453 45 453 45 395 14.5 c 128,-1,25
 337 -16 337 -16 287 -16 c 0,26,27
 254 -16 254 -16 240 -2 c 0,28,29
 224 11 224 11 223 30 c 0,30,31
 223 45 223 45 241 61 c 128,-1,32
 259 77 259 77 286 84 c 0,33,34
 373 104 373 104 388 147 c 0,35,36
 397 174 397 174 398 191 c 0,37,38
 398 193 398 193 398 196 c 0,39,40
 398 243 398 243 344 255 c 0,41,42
 286 268 286 268 286 311 c 0,43,44
 286 331 286 331 300 344.5 c 128,-1,45
 314 358 314 358 375 392 c 2,46,-1
 435 429 l 1,47,-1
 435 490 l 2,48,49
 435 532 435 532 431 548 c 128,-1,50
 427 564 427 564 409 591 c 0,51,52
 356 666 356 666 304 666 c 0,53,54
 303 666 l 0,55,56
 271 666 271 666 256.5 643.5 c 128,-1,57
 242 621 242 621 229 557 c 0,58,59
 200 403 200 403 193.5 326.5 c 128,-1,60
 187 250 187 250 182 36 c 0,61,62
 180 -120 180 -120 176 -162.5 c 128,-1,63
 172 -205 172 -205 159 -217 c 0,64,65
 145 -232 145 -232 125.5 -232 c 128,-1,66
 106 -232 106 -232 93 -218 c 0,67,68
 82 -207 82 -207 82 -135 c 0,69,70
 82 -80 82 -80 86 65 c 0,71,72
 95 360 95 360 120 526 c 0,73,74
 138 646 138 646 161.5 691.5 c 128,-1,75
 185 737 185 737 239 756 c 0,0,1
EndSplineSet
Validated: 1
EndChar

StartChar: adieresis
Encoding: 228 228 73
Width: 673
VWidth: 1256
Flags: W
HStem: 12 93<209.741 440.625> 357 95<238.877 422.579> 466 20G<494.5 520> 634 93<185.377 255.15 442.378 509.531>
VStem: 66 102<140 263.907> 430 93<641.82 712.531> 438 94<118.174 340.54>
LayerCount: 2
Fore
SplineSet
423 341 m 0,0,1
 410 355 410 355 337 357 c 0,2,3
 291 357 291 357 274 353.5 c 128,-1,4
 257 350 257 350 242 337 c 0,5,6
 217 318 217 318 192.5 268.5 c 128,-1,7
 168 219 168 219 168 191 c 0,8,9
 168 108 168 108 325 105 c 0,10,11
 388 105 388 105 417 112 c 2,12,-1
 441 116 l 1,13,-1
 438 222 l 2,14,15
 435 327 435 327 423 341 c 0,0,1
465 467 m 0,16,17
 480 486 480 486 509 486 c 0,18,19
 531 486 531 486 546 470 c 0,20,21
 557 458 557 458 557 444 c 128,-1,22
 557 430 557 430 546 380 c 0,23,24
 534 331 534 331 532 272 c 0,25,26
 532 240 532 240 537 222 c 0,27,28
 541 136 541 136 571 76 c 0,29,30
 600 18 600 18 600 -5 c 0,31,32
 600 -19 600 -19 586.5 -33.5 c 128,-1,33
 573 -48 573 -48 558 -48 c 0,34,35
 533 -48 533 -48 507 -18 c 2,36,-1
 480 14 l 1,37,-1
 361 12 l 1,38,-1
 314 12 l 2,39,40
 239 13 239 13 203 22 c 0,41,42
 168 30 168 30 133 56 c 0,43,44
 66 103 66 103 66 183 c 0,45,46
 66 245 66 245 102.5 316 c 128,-1,47
 139 387 139 387 188 427 c 2,48,-1
 226 454 l 1,49,-1
 337 452 l 2,50,51
 367 451 367 451 406 449 c 0,52,53
 452 449 452 449 465 467 c 0,16,17
442 713 m 0,54,55
 454 726 454 726 477 727 c 0,56,57
 495 727 495 727 510 715 c 0,58,59
 523 703 523 703 523 685 c 0,60,61
 523 663 523 663 508.5 648.5 c 128,-1,62
 494 634 494 634 478 634 c 0,63,64
 458 634 458 634 444 648.5 c 128,-1,65
 430 663 430 663 430 681 c 0,66,67
 430 698 430 698 442 713 c 0,54,55
185 713 m 0,68,69
 197 726 197 726 216 727 c 0,70,71
 235 727 235 727 249.5 714 c 128,-1,72
 264 701 264 701 264 682 c 0,73,74
 264 664 264 664 249 649 c 128,-1,75
 234 634 234 634 219 634 c 0,76,77
 199 634 199 634 185 648.5 c 128,-1,78
 171 663 171 663 171 681 c 0,79,80
 172 698 172 698 185 713 c 0,68,69
EndSplineSet
Validated: 1
EndChar

StartChar: ae
Encoding: 230 230 74
Width: 1044
VWidth: 1261
Flags: W
HStem: -41 90<204.707 346.061> -10 97<703.172 819.695> 317 97<645 848> 593 94<307.284 438.174> 600 99<705.533 858.096>
VStem: 72 94<430.782 499.422> 81 96<75.1221 203.977> 879 92<436.665 579.528>
LayerCount: 2
Fore
SplineSet
462 261 m 0,0,1
 462 283 462 283 458.5 291.5 c 128,-1,2
 455 300 455 300 441 300 c 128,-1,3
 427 300 427 300 351 281 c 0,4,5
 220 246 220 246 188 189 c 0,6,7
 177 166 177 166 177 156 c 0,8,9
 177 147 177 147 187 108 c 0,10,11
 198 74 198 74 204.5 65.5 c 128,-1,12
 211 57 211 57 232 52 c 0,13,14
 250 50 250 50 262 49 c 0,15,16
 275 49 275 49 290 52 c 0,17,18
 319 58 319 58 363.5 79.5 c 128,-1,19
 408 101 408 101 419 115 c 0,20,21
 433 129 433 129 447.5 176 c 128,-1,22
 462 223 462 223 462 261 c 0,0,1
857 580 m 0,23,24
 828 600 828 600 770 600 c 0,25,26
 735 600 735 600 715 592 c 0,27,28
 693 581 693 581 667 544.5 c 128,-1,29
 641 508 641 508 639 487 c 0,30,31
 639 455 639 455 641 442 c 2,32,-1
 642 414 l 1,33,-1
 848 414 l 1,34,-1
 863 453 l 2,35,36
 877 491 877 491 879 527 c 2,37,-1
 879 537 l 2,38,39
 879 565 879 565 857 580 c 0,23,24
669 683 m 0,40,41
 698 697 698 697 782 699 c 0,42,43
 851 699 851 699 873 687 c 0,44,45
 893 678 893 678 935 643 c 2,46,-1
 971 608 l 1,47,-1
 971 523 l 2,48,49
 971 451 971 451 960 415 c 128,-1,50
 949 379 949 379 918 345 c 2,51,-1
 890 317 l 1,52,-1
 645 317 l 1,53,-1
 651 278 l 2,54,55
 671 158 671 158 690 125.5 c 128,-1,56
 709 93 709 93 756 88 c 0,57,58
 767 87 767 87 780 87 c 0,59,60
 799 87 799 87 817 106 c 0,61,62
 839 131 839 131 847 150 c 0,63,64
 862 197 862 197 895 197 c 0,65,66
 913 197 913 197 928.5 182 c 128,-1,67
 944 167 944 167 944 148 c 0,68,69
 944 126 944 126 917.5 80.5 c 128,-1,70
 891 35 891 35 867 14 c 0,71,72
 849 -1 849 -1 829 -6 c 0,73,74
 817 -10 817 -10 784 -10 c 0,75,76
 777 -10 777 -10 770 -10 c 0,77,78
 678 -10 678 -10 634 28.5 c 128,-1,79
 590 67 590 67 567 167 c 0,80,81
 559 199 559 199 558 199 c 2,82,-1
 539 119 l 1,83,84
 521 74 521 74 499 48 c 0,85,86
 467 14 467 14 411 -12 c 0,87,88
 369 -32 369 -32 348 -36.5 c 128,-1,89
 327 -41 327 -41 261 -41 c 2,90,-1
 169 -41 l 1,91,-1
 137 -10 l 2,92,93
 82 44 82 44 81 150 c 0,94,95
 81 152 81 152 81 156 c 0,96,97
 81 222 81 222 112.5 264.5 c 128,-1,98
 144 307 144 307 215 339 c 0,99,100
 307 384 307 384 424 401 c 2,101,-1
 462 407 l 1,102,-1
 456 454 l 2,103,104
 447 544 447 544 442.5 561 c 128,-1,105
 438 578 438 578 418 586 c 0,106,107
 400 593 400 593 385 593 c 0,108,109
 383 593 383 593 381 593 c 0,110,111
 332 593 332 593 221 523 c 0,112,113
 166 488 166 488 166 472 c 0,114,115
 166 454 166 454 151.5 438 c 128,-1,116
 137 422 137 422 120 422 c 0,117,118
 72 422 72 422 72 490 c 0,119,120
 72 516 72 516 78 528 c 128,-1,121
 84 540 84 540 104 561 c 0,122,123
 158 615 158 615 262 668 c 0,124,125
 302 687 302 687 386 687 c 0,126,127
 390 687 390 687 394 687 c 0,128,129
 448 687 448 687 468 677 c 0,130,131
 497 663 497 663 517.5 632 c 128,-1,132
 538 601 538 601 546 567 c 2,133,-1
 552 528 l 1,134,-1
 559 557 l 2,135,136
 565 583 565 583 602 626 c 128,-1,137
 639 669 639 669 669 683 c 0,40,41
EndSplineSet
Validated: 1
EndChar

StartChar: odieresis
Encoding: 246 246 75
Width: 702
VWidth: 1260
Flags: W
HStem: -47 100<247.282 404.805> 330 96<231.25 363.558> 376 96<394.269 471.258> 611 94<214.923 279.046 445.744 480.969> 617 96<446.377 515.282>
VStem: 70 96<109.135 264.625> 201 93<625.438 689.531> 433 95<628.67 697.53> 524 97<151.106 308.81>
LayerCount: 2
Fore
SplineSet
466 358 m 0,0,1
 440 374 440 374 427 376 c 0,2,3
 426 376 l 0,4,5
 412 375 412 375 396 356 c 0,6,7
 387 343 387 343 373 338 c 0,8,9
 359 331 359 331 319 330 c 0,10,11
 261 324 261 324 232.5 308.5 c 128,-1,12
 204 293 204 293 184 257 c 0,13,14
 166 224 166 224 166 187 c 0,15,16
 166 107 166 107 223 84 c 0,17,18
 305 53 305 53 332 53 c 0,19,20
 334 53 l 0,21,22
 349 53 349 53 370 61 c 0,23,24
 469 95 469 95 502 151 c 0,25,26
 524 184 524 184 524 208 c 0,27,28
 524 221 524 221 522 230 c 0,29,30
 509 325 509 325 466 358 c 0,0,1
366 451 m 0,31,32
 381 471 381 471 432 472 c 0,33,34
 466 472 466 472 481.5 465 c 128,-1,35
 497 458 497 458 530 433 c 0,36,37
 577 394 577 394 595.5 354 c 128,-1,38
 614 314 614 314 620 239 c 0,39,40
 621 220 621 220 621 189 c 0,41,42
 621 148 621 148 608.5 123.5 c 128,-1,43
 596 99 596 99 555 54 c 0,44,45
 510 7 510 7 445 -19 c 0,46,47
 384 -46 384 -46 333 -47 c 0,48,49
 290 -47 290 -47 225 -26 c 0,50,51
 176 -8 176 -8 150.5 11 c 128,-1,52
 125 30 125 30 95 70 c 0,53,54
 80 92 80 92 75 109 c 128,-1,55
 70 126 70 126 70 172 c 0,56,57
 70 242 70 242 81 278 c 0,58,59
 92 312 92 312 128 349 c 0,60,61
 167 392 167 392 195 406.5 c 128,-1,62
 223 421 223 421 284 426 c 0,63,64
 327 428 327 428 341 433 c 128,-1,65
 355 438 355 438 366 451 c 0,31,32
214 690 m 0,66,67
 227 704 227 704 246 705 c 0,68,69
 247 705 247 705 249 705 c 0,70,71
 266 704 266 704 280 692 c 0,72,73
 294 678 294 678 294 659 c 0,74,75
 294 641 294 641 279 626 c 128,-1,76
 264 611 264 611 248 611 c 0,77,78
 228 611 228 611 214.5 625 c 128,-1,79
 201 639 201 639 201 657 c 128,-1,80
 201 675 201 675 214 690 c 0,66,67
446 698 m 0,81,82
 458 712 458 712 479 713 c 0,83,84
 480 713 480 713 481 714 c 0,85,86
 500 714 500 714 514 700.5 c 128,-1,87
 528 687 528 687 528 671 c 0,88,89
 528 654 528 654 512 635 c 0,90,91
 498 619 498 619 482 617 c 0,92,93
 462 617 462 617 447.5 631.5 c 128,-1,94
 433 646 433 646 433 664.5 c 128,-1,95
 433 683 433 683 446 698 c 0,81,82
EndSplineSet
Validated: 1
EndChar

StartChar: udieresis
Encoding: 252 252 76
Width: 615
VWidth: 1264
Flags: W
HStem: -34 101<232.858 320.244> 448 20G<444 452> 596 94<197.439 260.561 315.408 381.592>
VStem: 77 94<153.048 416.065> 182 79<610.438 646.922 648.077 682.38> 302 93<604.524 675.531> 430 102<-22.8208 38.1465>
LayerCount: 2
Fore
SplineSet
413 453 m 0,0,1
 427 467 427 467 443 467 c 0,2,3
 444 467 444 467 444 468 c 0,4,5
 460 468 460 468 477 453 c 0,6,7
 488 442 488 442 490 421 c 0,8,9
 491 408 491 408 492 369 c 0,10,11
 492 350 492 350 492 325 c 0,12,13
 494 202 494 202 505 153 c 0,14,15
 532 30 532 30 532 3 c 0,16,17
 532 -12 532 -12 522 -27 c 1,18,19
 506 -42 506 -42 487 -43 c 0,20,21
 472 -43 472 -43 451 -21.5 c 128,-1,22
 430 0 430 0 430 18 c 0,23,24
 430 37 430 37 422 39 c 0,25,26
 411 39 411 39 392 15 c 0,27,28
 345 -33 345 -33 266 -34 c 0,29,30
 225 -34 225 -34 203 -20 c 0,31,32
 180 -6 180 -6 142 44 c 0,33,34
 99 99 99 99 88 140 c 0,35,36
 77 182 77 182 77 281 c 0,37,38
 77 392 77 392 91 410 c 0,39,40
 104 424 104 424 124 424 c 0,41,42
 139 424 139 424 156 411 c 0,43,44
 171 397 171 397 171 303 c 0,45,46
 171 226 171 226 181 186 c 0,47,48
 191 148 191 148 221 105 c 0,49,50
 247 67 247 67 267 67 c 0,51,-1
 268 67 l 0,52,53
 277 67 277 67 298 74 c 0,54,55
 353 96 353 96 370 224 c 0,56,57
 376 273 376 273 389 365 c 0,58,59
 399 435 399 435 413 453 c 0,0,1
315 676 m 0,60,61
 328 690 328 690 348.5 690 c 128,-1,62
 369 690 369 690 382 678 c 128,-1,63
 395 666 395 666 395 647.5 c 128,-1,64
 395 629 395 629 381 612.5 c 128,-1,65
 367 596 367 596 349 596 c 0,66,67
 329 596 329 596 315.5 611 c 128,-1,68
 302 626 302 626 302 643.5 c 128,-1,69
 302 661 302 661 315 676 c 0,60,61
197 676 m 0,70,71
 210 690 210 690 228.5 690 c 128,-1,72
 247 690 247 690 261 678 c 128,-1,73
 275 666 275 666 275 647.5 c 128,-1,74
 275 629 275 629 260.5 612.5 c 128,-1,75
 246 596 246 596 230 596 c 0,76,77
 211 596 211 596 197 610 c 0,78,79
 184 624 184 624 182 642 c 0,80,81
 183 660 183 660 197 676 c 0,70,71
EndSplineSet
Validated: 1
EndChar

StartChar: Euro
Encoding: 128 8364 77
Width: 795
VWidth: 1250
Flags: W
HStem: 31 99<418.492 656.308> 254 99<94.7178 187.261 299.627 456.818> 264 90<298.424 464.04> 411 99<90.2692 199.547 362.719 474.181> 582 97<429.772 686.17>
VStem: 195 103<203.782 250.388>
LayerCount: 2
Fore
SplineSet
410 667 m 0,0,1
 435 676 435 676 552 679 c 0,2,3
 629 679 629 679 650 675.5 c 128,-1,4
 671 672 671 672 685 658 c 0,5,6
 704 640 704 640 705 623 c 0,7,8
 705 609 705 609 691 591 c 0,9,10
 680 578 680 578 646 578 c 0,11,12
 637 578 637 578 590 580 c 0,13,14
 572 582 572 582 540 582 c 0,15,16
 443 582 443 582 394 535 c 2,17,-1
 362 505 l 1,18,-1
 408 510 l 2,19,20
 416 511 416 511 430 512 c 0,21,22
 486 512 486 512 488 465 c 0,23,24
 488 411 488 411 381 411 c 0,25,26
 379 411 379 411 376 411 c 2,27,-1
 309 411 l 1,28,-1
 300 380 l 1,29,-1
 290 346 l 1,30,-1
 371 353 l 2,31,32
 379 353 379 353 390.5 353.5 c 128,-1,33
 402 354 402 354 407 354 c 0,34,35
 450 354 450 354 464.5 344 c 128,-1,36
 479 334 479 334 479 307 c 0,37,38
 479 275 479 275 457.5 264.5 c 128,-1,39
 436 254 436 254 375 254 c 0,40,41
 299 254 299 254 298 245 c 0,42,43
 298 204 298 204 380 167 c 128,-1,44
 462 130 462 130 545 130 c 0,45,46
 572 130 572 130 593 133 c 0,47,48
 635 142 635 142 657 142 c 0,49,50
 720 142 720 142 721 98 c 0,51,52
 721 71 721 71 697.5 57.5 c 128,-1,53
 674 44 674 44 618 38 c 0,54,55
 583 32 583 32 539 31 c 0,56,57
 365 32 365 32 255 122 c 0,58,59
 233 141 233 141 215 176 c 128,-1,60
 197 211 197 211 195 234 c 0,61,62
 195 247 195 247 187.5 250.5 c 128,-1,63
 180 254 180 254 154 254 c 0,64,65
 83 254 83 254 83 299 c 0,66,67
 83 348 83 348 152 350 c 0,68,69
 182 350 182 350 188.5 353 c 128,-1,70
 195 356 195 356 196 380 c 2,71,-1
 200 411 l 1,72,-1
 153 411 l 2,73,74
 114 411 114 411 89.5 426.5 c 128,-1,75
 65 442 65 442 65 468 c 0,76,77
 65 493 65 493 80.5 501.5 c 128,-1,78
 96 510 96 510 133 510 c 0,79,80
 137 510 137 510 147.5 510 c 128,-1,81
 158 510 158 510 165 509 c 2,82,-1
 232 503 l 1,83,-1
 275 557 l 2,84,85
 349 647 349 647 410 667 c 0,0,1
EndSplineSet
Validated: 1
EndChar

StartChar: parenleft
Encoding: 40 40 78
Width: 390
VWidth: 1274
Flags: W
HStem: -41 86<246.386 301.56>
VStem: 82 87<241 452.141>
LayerCount: 2
Fore
SplineSet
190 606 m 0,0,1
 223 641 223 641 251 641 c 0,2,3
 266 641 266 641 282 628 c 0,4,5
 293 617 293 617 293 604 c 0,6,7
 293 585 293 585 258 550 c 0,8,9
 221 512 221 512 197 465 c 0,10,11
 172 416 172 416 169 328 c 2,12,-1
 164 241 l 1,13,-1
 195 161 l 2,14,15
 243 45 243 45 282 45 c 0,16,17
 293 45 293 45 304.5 30.5 c 128,-1,18
 316 16 316 16 316 4 c 0,19,20
 316 -16 316 -16 302 -28.5 c 128,-1,21
 288 -41 288 -41 262 -41 c 0,22,23
 235 -41 235 -41 190 3 c 0,24,25
 158 32 158 32 145 52.5 c 128,-1,26
 132 73 132 73 111 123 c 2,27,-1
 78 201 l 1,28,-1
 82 321 l 2,29,30
 88 448 88 448 96 466 c 0,31,32
 118 532 118 532 190 606 c 0,0,1
EndSplineSet
Validated: 1
EndChar

StartChar: parenright
Encoding: 41 41 79
Width: 394
VWidth: 1274
Flags: W
VStem: 228 86<201.873 543.394>
LayerCount: 2
Fore
SplineSet
134 705 m 0,0,1
 145 718 145 718 160 718 c 0,2,3
 185 718 185 718 223 672 c 0,4,5
 269 616 269 616 288 585 c 0,6,7
 303 558 303 558 305.5 537.5 c 128,-1,8
 308 517 308 517 310 414 c 0,9,10
 310 401 310 401 311.5 378 c 128,-1,11
 313 355 313 355 314 346 c 0,12,13
 314 276 314 276 302 215 c 0,14,15
 272 72 272 72 257 56 c 0,16,17
 251 47 251 47 251 37 c 0,18,19
 251 25 251 25 178 -46 c 128,-1,20
 105 -117 105 -117 93 -117 c 0,21,22
 78 -117 78 -117 65 -101 c 128,-1,23
 52 -85 52 -85 52 -67 c 0,24,25
 52 -52 52 -52 62.5 -38 c 128,-1,26
 73 -24 73 -24 111 11 c 0,27,28
 152 49 152 49 162.5 64.5 c 128,-1,29
 173 80 173 80 186 125 c 0,30,31
 228 262 228 262 228 390 c 2,32,-1
 228 422 l 2,33,34
 227 494 227 494 214 526 c 128,-1,35
 201 558 201 558 156 613 c 0,36,37
 122 654 122 654 122 677 c 0,38,39
 122 691 122 691 134 705 c 0,0,1
EndSplineSet
Validated: 16385
EndChar

StartChar: zero
Encoding: 48 48 80
Width: 655
VWidth: 1271
Flags: W
HStem: -40 81<298 414.192> 580 90<261.616 408.66>
VStem: 82 83<158.625 474.312> 481 100<133.676 473.391>
LayerCount: 2
Fore
SplineSet
438 516 m 0,0,1
 424 545 424 545 397 569 c 0,2,3
 387 579 387 579 369 580 c 0,4,5
 367 580 367 580 366 580 c 2,6,-1
 355 580 l 2,7,8
 288 580 288 580 244 546 c 0,9,10
 165 486 165 486 165 361 c 0,11,12
 165 357 165 357 165 354 c 0,13,14
 165 332 165 332 168 321 c 0,15,16
 172 205 172 205 182 171 c 0,17,18
 190 145 190 145 221 99 c 0,19,20
 246 65 246 65 263 54 c 0,21,22
 278 43 278 43 310 41 c 0,23,24
 316 41 316 41 320 41 c 0,25,26
 334 41 334 41 342 43 c 0,27,28
 394 49 394 49 417 65 c 0,29,30
 436 79 436 79 457 129 c 0,31,32
 480 177 480 177 481 305 c 0,33,34
 481 328 481 328 481 348 c 0,35,36
 481 426 481 426 473 442 c 0,37,38
 458 477 458 477 438 516 c 0,0,1
265 660 m 0,39,40
 297 669 297 669 322 670 c 0,41,42
 324 670 324 670 329 670 c 0,43,44
 337 670 337 670 372 667 c 0,45,46
 438 663 438 663 457 649 c 0,47,48
 457 643 457 643 512 572 c 0,49,50
 547 529 547 529 566 480 c 0,51,52
 573 461 573 461 581 305 c 0,53,54
 581 296 581 296 581 287 c 0,55,56
 581 231 581 231 566 153 c 0,57,58
 557 112 557 112 543 92 c 0,59,60
 500 3 500 3 444 -26 c 0,61,62
 415 -40 415 -40 356 -40 c 0,63,64
 347 -40 347 -40 338 -40 c 0,65,66
 331 -40 331 -40 317 -43 c 0,67,68
 304 -43 304 -43 298 -43 c 0,69,70
 250 -43 250 -43 225.5 -29.5 c 128,-1,71
 201 -16 201 -16 162 30 c 0,72,73
 115 86 115 86 101 129 c 0,74,75
 83 177 83 177 82 315 c 0,76,77
 82 324 82 324 82 338 c 0,78,79
 81 353 81 353 81 359 c 0,80,81
 81 475 81 475 123 543 c 0,82,83
 145 577 145 577 189 613 c 0,84,85
 229 647 229 647 265 660 c 0,39,40
EndSplineSet
Validated: 1
EndChar

StartChar: one
Encoding: 49 49 81
Width: 495
VWidth: 1268
Flags: W
VStem: 275 83<-31.5134 324.601> 275 72<-31.6172 209.317>
LayerCount: 2
Fore
SplineSet
303 628 m 0,0,1
 349 674 349 674 373 674 c 0,2,3
 395 674 395 674 407 662 c 0,4,5
 420 649 420 649 420 631 c 0,6,7
 420 627 l 0,8,9
 419 626 419 626 419 623 c 0,10,11
 401 545 401 545 384 387 c 0,12,13
 378 339 378 339 372.5 280.5 c 128,-1,14
 367 222 367 222 362.5 176.5 c 128,-1,15
 358 131 358 131 358 71 c 0,16,17
 358 -17 358 -17 347 -32 c 0,18,19
 336 -45 336 -45 317 -45 c 0,20,21
 302 -45 302 -45 288 -32 c 0,22,23
 276 -20 276 -20 275 24 c 0,24,25
 275 28 275 28 275 33 c 0,26,27
 276 69 276 69 278 110 c 0,28,29
 293 423 293 423 303 476 c 2,30,-1
 308 506 l 1,31,-1
 258 474 l 2,32,33
 213 441 213 441 168 404 c 0,34,35
 126 370 126 370 104 370 c 0,36,37
 103 370 l 0,38,39
 90 370 90 370 75 381.5 c 128,-1,40
 60 393 60 393 60 407 c 0,41,42
 60 430 60 430 120 479 c 0,43,44
 154 508 154 508 208 549 c 0,45,46
 267 592 267 592 303 628 c 0,0,1
EndSplineSet
Validated: 1
EndChar

StartChar: two
Encoding: 50 50 82
Width: 640
VWidth: 1270
Flags: W
HStem: -35 86<391.522 553.047> -23 90<270.077 529.979> 482 21G<112.5 128.5> 590 88<260.903 408.316>
VStem: 452 90<390.595 550.133>
LayerCount: 2
Fore
SplineSet
313 675 m 0,0,1
 352 676 352 676 355 678 c 2,2,-1
 376 678 l 2,3,4
 408 678 408 678 422 669 c 0,5,6
 434 662 434 662 467 630 c 0,7,8
 520 578 520 578 523 563 c 0,9,10
 538 503 538 503 540 493 c 128,-1,11
 542 483 542 483 542 468 c 0,12,13
 542 374 542 374 445 254 c 0,14,15
 423 225 423 225 312 106 c 2,16,-1
 270 62 l 1,17,-1
 348 66 l 2,18,19
 374 67 374 67 389 67 c 0,20,21
 470 67 470 67 515 51 c 0,22,23
 563 33 563 33 563 6 c 0,24,25
 563 -35 563 -35 511 -35 c 0,26,27
 510 -35 510 -35 507 -35 c 0,28,29
 492 -35 492 -35 445 -28 c 0,30,31
 409 -23 409 -23 388 -23 c 0,32,33
 386 -23 386 -23 381 -23 c 0,34,35
 367 -23 367 -23 316 -25 c 0,36,37
 237 -27 237 -27 229 -28 c 0,38,39
 207 -28 l 0,40,41
 199 -28 199 -28 191 -28 c 0,42,43
 77 -28 77 -28 77 12 c 0,44,45
 77 17 77 17 82 30 c 0,46,47
 95 60 95 60 156 106 c 0,48,-1
 209 154 l 0,49,-1
 285 227 l 0,50,51
 319 257 319 257 369 313 c 0,52,53
 404 351 404 351 420 374 c 0,54,55
 438 399 438 399 440 415 c 0,56,57
 451 458 451 458 452 475 c 0,58,59
 452 476 452 476 452 477 c 0,60,61
 452 546 452 546 406 569 c 0,62,63
 363 589 363 589 360 590 c 2,64,-1
 354 590 l 2,65,66
 307 590 307 590 240 560 c 4,67,68
 180 533 180 533 156 506 c 0,69,70
 138 482 138 482 119 482 c 0,71,72
 118 482 118 482 117 482 c 0,73,74
 108 482 108 482 89 495 c 0,75,76
 76 504 76 504 76 522 c 0,77,-1
 76 523 l 0,78,79
 76 524 76 524 76 525 c 0,80,81
 76 540 76 540 110 581 c 0,82,83
 189 673 189 673 313 675 c 0,0,1
EndSplineSet
Validated: 1
EndChar

StartChar: three
Encoding: 51 51 83
Width: 615
VWidth: 1255
Flags: W
HStem: -52 88<94.1522 346.355> 648 86<177.257 377.992>
VStem: 432 86<91.511 249.333> 445 87<416.625 567.637>
LayerCount: 2
Fore
SplineSet
161 716 m 0,0,1
 210 734 210 734 289 734 c 0,2,3
 372 734 372 734 390 725 c 0,4,5
 416 714 416 714 456 676 c 0,6,7
 494 635 494 635 510 599 c 0,8,9
 532 556 532 556 532 503 c 0,10,11
 532 426 532 426 503 368 c 0,12,13
 496 355 496 355 474 340 c 2,14,-1
 456 328 l 1,15,-1
 478 301 l 2,16,17
 501 276 501 276 508 247 c 0,18,19
 517 209 517 209 518 152 c 2,20,-1
 518 78 l 1,21,-1
 486 44 l 2,22,23
 438 -9 438 -9 385 -27 c 0,24,25
 339 -41 339 -41 212 -50 c 0,26,27
 182 -52 182 -52 145 -52 c 0,28,29
 106 -52 106 -52 92 -38 c 0,30,31
 73 -16 73 -16 73 0 c 0,32,33
 73 22 73 22 93.5 28.5 c 128,-1,34
 114 35 114 35 182 36 c 0,35,36
 376 40 376 40 422 105 c 0,37,38
 432 118 432 118 432 152 c 0,39,40
 432 155 432 155 432 159 c 0,41,42
 432 212 432 212 411 248 c 0,43,44
 385 291 385 291 350 292 c 2,45,-1
 339 292 l 1,46,-1
 335 292 l 2,47,48
 309 292 309 292 294.5 303 c 128,-1,49
 280 314 280 314 280 333 c 0,50,51
 280 374 280 374 370 398 c 2,52,-1
 429 416 l 1,53,-1
 437 456 l 2,54,55
 445 490 445 490 445 493 c 128,-1,56
 445 496 445 496 445 498.5 c 128,-1,57
 445 501 445 501 445 503 c 0,58,59
 445 523 445 523 426 562 c 0,60,61
 403 608 403 608 379 625 c 0,62,63
 356 643 356 643 305 646 c 0,64,65
 299 646 299 646 294 646 c 0,66,67
 287 648 287 648 284 648 c 0,68,69
 246 648 246 648 193 631 c 0,70,71
 134 611 134 611 118 610 c 0,72,73
 106 610 106 610 93 623 c 0,74,75
 78 637 78 637 78 651 c 0,76,77
 78 690 78 690 161 716 c 0,0,1
EndSplineSet
Validated: 1
EndChar

StartChar: four
Encoding: 52 52 84
Width: 649
VWidth: 1264
Flags: W
HStem: -49 21G<348.5 363.5> 143 101<404.25 566.84> 147 83<194.542 298.71>
VStem: 236 114<594.57 652.854> 313 86<-42.2842 152> 322 89<245.285 320.077>
LayerCount: 2
Fore
SplineSet
236 613 m 4,0,1
 273 692 273 692 313 692 c 0,2,3
 326 692 326 692 338 681.5 c 128,-1,4
 350 671 350 671 350 651 c 0,5,6
 350 626 350 626 336 607 c 0,7,8
 324 593 324 593 303 536 c 0,9,10
 296 517 296 517 254 414 c 0,11,12
 215 315 215 315 204 267 c 2,13,-1
 194 230 l 1,14,-1
 248 232 l 2,15,16
 290 233 290 233 307 245 c 0,17,18
 321 254 321 254 322 280 c 0,19,20
 322 297 322 297 339 315 c 0,21,22
 353 333 353 333 374 334 c 0,23,24
 389 334 389 334 400 320.5 c 128,-1,25
 411 307 411 307 411 287 c 0,26,27
 411 278 411 278 410 273 c 2,28,-1
 404 244 l 1,29,-1
 477 241 l 2,30,31
 552 237 552 237 570 219 c 0,32,33
 588 204 588 204 589 182 c 0,34,35
 589 163 589 163 578 154 c 0,36,37
 567 144 567 144 551 143 c 0,38,39
 550 143 550 143 548 143 c 0,40,41
 539 143 539 143 535 144 c 0,42,43
 522 148 522 148 455 155 c 2,44,-1
 399 160 l 1,45,-1
 399 70 l 2,46,47
 399 -19 399 -19 384 -36 c 0,48,49
 372 -49 372 -49 355 -49 c 0,50,51
 342 -49 342 -49 327.5 -37 c 128,-1,52
 313 -25 313 -25 313 65 c 2,53,-1
 313 152 l 1,54,-1
 274 147 l 2,55,56
 272 147 272 147 230 141 c 0,57,58
 204 139 204 139 165 133 c 0,59,60
 132 128 132 128 117 128 c 0,61,62
 114 128 114 128 112 128 c 0,63,64
 99 128 99 128 85 139.5 c 128,-1,65
 71 151 71 151 71 165 c 0,66,67
 71 180 71 180 97 248 c 0,68,69
 105 268 105 268 138 360 c 0,70,71
 165 434 165 434 185 488 c 0,72,73
 217 572 217 572 236 613 c 4,0,1
EndSplineSet
Validated: 1
EndChar

StartChar: five
Encoding: 53 53 85
Width: 538
VWidth: 1266
Flags: W
HStem: -45 83<83.3762 310.231> 594 86<187.503 431.268>
VStem: 109 81<397.598 587> 352 81<71.8571 206.553>
LayerCount: 2
Fore
SplineSet
183 676 m 0,0,1
 218 678 218 678 281 680 c 0,2,3
 468 679 468 679 468 618 c 0,4,5
 468 602 468 602 454 587 c 0,6,7
 441 574 441 574 426 573 c 0,8,9
 407 573 407 573 355 586 c 0,10,11
 319 594 319 594 284 594 c 0,12,13
 258 594 258 594 248 592 c 2,14,-1
 190 587 l 1,15,-1
 190 532 l 2,16,17
 190 399 190 399 214 397 c 0,18,19
 231 396 231 396 266 377 c 0,20,21
 301 359 301 359 325 338 c 0,22,23
 383 285 383 285 401 242 c 0,24,25
 426 188 426 188 429 167 c 16,26,27
 433 145 433 145 433 126.5 c 128,-1,28
 433 108 433 108 429 93 c 8,29,30
 415 39 415 39 387 6 c 24,31,-1
 317 -34 l 0,32,33
 291 -45 291 -45 186 -45 c 0,34,35
 99 -45 99 -45 84 -30 c 0,36,37
 70 -17 70 -17 70 2 c 0,38,39
 70 17 70 17 83 33 c 0,40,41
 95 44 95 44 112 44 c 0,42,43
 114 44 114 44 117 44 c 0,44,45
 149 40 149 40 151 40 c 0,46,47
 157 40 157 40 163 38 c 0,48,49
 171 38 171 38 173 38 c 0,50,51
 287 38 287 38 334 74 c 0,52,53
 352 87 352 87 352 121 c 0,54,55
 352 144 352 144 342 177 c 0,56,57
 336 196 336 196 315 236 c 0,58,59
 304 255 304 255 257 279 c 0,60,61
 212 304 212 304 186 309 c 0,62,63
 160 317 160 317 151 324 c 0,64,65
 140 331 140 331 130 338 c 0,66,67
 119 345 119 345 117 367 c 128,-1,68
 115 389 115 389 112 415 c 0,69,70
 111 441 111 441 109 495 c 0,71,72
 108 529 108 529 108 574 c 0,73,74
 108 630 108 630 122 651 c 0,75,76
 137 674 137 674 183 676 c 0,0,1
EndSplineSet
Validated: 1
EndChar

StartChar: six
Encoding: 54 54 86
Width: 585
VWidth: 1274
Flags: W
HStem: -39 89<226.226 356.586> 309 331<264.5 357>
VStem: 79 89<111.104 280.262> 429 86<101.612 244.698>
LayerCount: 2
Fore
SplineSet
365 292 m 0,0,1
 326 307 326 307 281 309 c 0,2,3
 248 309 248 309 215 299 c 0,4,5
 190 288 190 288 184.5 280.5 c 128,-1,6
 179 273 179 273 173 252 c 0,7,8
 168 230 168 230 168 206 c 0,9,10
 168 202 168 202 168 198 c 0,11,12
 168 139 168 139 198 99 c 128,-1,13
 228 59 228 59 281 51 c 0,14,15
 289 50 289 50 297 50 c 0,16,17
 319 50 319 50 365 77 c 0,18,19
 403 97 403 97 413.5 107 c 128,-1,20
 424 117 424 117 426 133 c 0,21,22
 428 136 428 136 429 147 c 0,23,24
 429 195 429 195 403 255 c 0,25,26
 391 280 391 280 365 292 c 0,0,1
278 604 m 0,27,28
 323 639 323 639 348 640 c 0,29,30
 366 639 366 639 377 628 c 0,31,32
 390 616 390 616 391 603 c 0,33,34
 391 583 391 583 362 559 c 0,35,36
 327 532 327 532 283.5 486 c 128,-1,37
 240 440 240 440 233 422 c 2,38,-1
 225 400 l 1,39,-1
 300 394 l 2,40,41
 387 388 387 388 424.5 368 c 128,-1,42
 462 348 462 348 488 288 c 0,43,44
 514 230 514 230 515 143 c 0,45,46
 515 137 515 137 515 133 c 0,47,48
 515 104 515 104 511 94 c 0,49,50
 507 76 507 76 483 49 c 128,-1,51
 459 22 459 22 438 11 c 0,52,53
 432 9 432 9 422.5 3.5 c 128,-1,54
 413 -2 413 -2 400 -9 c 128,-1,55
 387 -16 387 -16 377 -23 c 0,56,57
 344 -39 344 -39 318 -39 c 0,58,59
 317 -39 317 -39 315 -39 c 0,60,61
 295 -39 295 -39 278 -38 c 0,62,63
 220 -32 220 -32 201 -23 c 0,64,65
 185 -14 185 -14 152 19 c 0,66,67
 120 51 120 51 101 80 c 0,68,69
 79 112 79 112 79 184 c 0,70,71
 79 317 79 317 139 437 c 0,72,73
 185 527 185 527 278 604 c 0,27,28
EndSplineSet
Validated: 1
EndChar

StartChar: seven
Encoding: 55 55 87
Width: 602
VWidth: 1277
Flags: W
HStem: 247 86<408 475.617> 517 88<124.078 399.625> 531 90<82.3811 284.81>
LayerCount: 2
Fore
SplineSet
82 608 m 0,0,1
 94 620 94 620 131 621 c 0,2,3
 134 621 134 621 136 621 c 0,4,5
 159 621 159 621 226 611 c 0,6,7
 268 605 268 605 291 605 c 0,8,9
 294 605 294 605 297 605 c 0,10,11
 330 605 330 605 346 608 c 0,12,13
 422 620 422 620 474 621 c 0,14,15
 478 621 478 621 483 621 c 0,16,17
 513 621 513 621 522 610 c 0,18,19
 534 598 534 598 537 579 c 0,20,-1
 537 578 l 0,21,22
 537 566 537 566 516 528 c 0,23,24
 498 494 498 494 472 457 c 0,25,26
 453 430 453 430 431 382 c 2,27,-1
 408 333 l 1,28,-1
 436 333 l 2,29,30
 461 333 461 333 475 319 c 0,31,32
 489 307 489 307 489 289 c 0,33,34
 489 277 489 277 476 260 c 0,35,36
 464 247 464 247 421 247 c 2,37,-1
 377 247 l 1,38,-1
 350 160 l 2,39,40
 327 86 327 86 318 37 c 0,41,42
 312 3 312 3 298 -15 c 0,43,44
 283 -35 283 -35 264 -36 c 0,45,46
 249 -36 249 -36 236 -20 c 0,47,48
 229 -13 229 -13 225 8 c 0,49,50
 225 9 225 9 225 11 c 0,51,52
 225 22 225 22 229 54 c 0,53,54
 237 113 237 113 257 172 c 2,55,-1
 275 231 l 1,56,-1
 252 225 l 2,57,-1
 249 225 l 0,58,59
 247 224 247 224 245 224 c 0,60,61
 219 233 219 233 213 239 c 0,62,63
 202 250 202 250 202 268 c 0,64,65
 202 291 202 291 216 305 c 0,66,67
 227 316 227 316 267 323 c 2,68,-1
 304 326 l 1,69,-1
 334 393 l 2,70,71
 368 465 368 465 380 481 c 0,72,73
 401 509 401 509 401 515 c 0,74,75
 401 516 401 516 401 516 c 0,76,77
 401 522 401 522 384 521 c 0,78,79
 383 521 383 521 334 518 c 0,80,81
 304 517 304 517 286 517 c 0,82,83
 248 517 248 517 198 525.5 c 128,-1,84
 148 534 148 534 129 534 c 0,85,-1
 124 534 l 0,86,87
 120 533 120 533 118 531 c 2,88,-1
 112 531 l 2,89,90
 94 531 94 531 82 545 c 0,91,92
 69 558 69 558 69 576.5 c 128,-1,93
 69 595 69 595 82 608 c 0,0,1
EndSplineSet
Validated: 1
EndChar

StartChar: eight
Encoding: 56 56 88
Width: 616
VWidth: 1264
Flags: W
HStem: -50 86<238.742 349.255> 281 114<260.207 318.555> 612 86<227.912 334.872>
VStem: 78 86<426.098 548.406> 124 87<67.0064 224.283> 420 88<470.45 555.22>
LayerCount: 2
Fore
SplineSet
370 223 m 0,0,1
 302 279 302 279 290 281 c 0,2,3
 279 281 279 281 256 254 c 0,4,5
 211 206 211 206 211 151 c 0,6,7
 211 137 211 137 212 129 c 0,8,9
 214 99 214 99 233 67 c 0,10,11
 252 36 252 36 263 36 c 0,12,13
 264 36 l 0,14,-1
 265 36 l 0,15,16
 295 36 295 36 359.5 62 c 128,-1,17
 424 88 424 88 442 112 c 0,18,19
 453 124 453 124 452 129 c 0,20,21
 453 137 453 137 442 154 c 0,22,23
 426 178 426 178 370 223 c 0,0,1
335 605 m 0,24,25
 331 606 331 606 316.5 607.5 c 128,-1,26
 302 609 302 609 299 612 c 2,27,-1
 292 612 l 2,28,29
 251 612 251 612 205 572 c 0,30,31
 191 559 191 559 177.5 533 c 128,-1,32
 164 507 164 507 164 492 c 0,33,34
 164 470 164 470 178.5 440.5 c 128,-1,35
 193 411 193 411 207.5 403 c 128,-1,36
 222 395 222 395 254 395 c 0,37,38
 292 395 292 395 300 406 c 0,39,40
 312 418 312 418 316 417 c 0,41,42
 325 417 325 417 367 444 c 0,43,44
 406 470 406 470 416 501 c 0,45,46
 420 515 420 515 420 522 c 0,47,48
 420 534 420 534 389 564 c 0,49,50
 354 599 354 599 335 605 c 0,24,25
225 693 m 0,51,52
 237 697 237 697 273 698 c 0,53,54
 352 698 352 698 391 684 c 0,55,56
 413 676 413 676 433.5 661.5 c 128,-1,57
 454 647 454 647 454 636 c 0,58,59
 454 628 454 628 481 602 c 0,60,61
 500 584 500 584 504 572.5 c 128,-1,62
 508 561 508 561 508 527 c 0,63,64
 508 477 508 477 497 453 c 0,65,66
 488 434 488 434 459.5 406 c 128,-1,67
 431 378 431 378 402 358 c 0,68,69
 376 344 376 344 377 339 c 0,70,71
 377 338 377 338 436 285 c 0,72,73
 545 193 545 193 545 127 c 0,74,75
 545 79 545 79 490 32 c 0,76,77
 389 -50 389 -50 269 -50 c 0,78,79
 268 -50 268 -50 266 -50 c 0,80,81
 233 -50 233 -50 222.5 -46.5 c 128,-1,82
 212 -43 212 -43 193 -22 c 0,83,84
 150 23 150 23 138 48.5 c 128,-1,85
 126 74 126 74 125 132 c 0,86,87
 125 138 125 138 124.5 147.5 c 128,-1,88
 124 157 124 157 124 162 c 0,89,90
 124 248 124 248 166 288 c 2,91,-1
 184 304 l 1,92,-1
 146 338 l 2,93,94
 105 373 105 373 91.5 405 c 128,-1,95
 78 437 78 437 78 490 c 0,96,97
 78 549 78 549 97 582 c 0,98,99
 110 607 110 607 153 644 c 128,-1,100
 196 681 196 681 225 693 c 0,51,52
EndSplineSet
Validated: 1
EndChar

StartChar: nine
Encoding: 57 57 89
Width: 568
VWidth: 1267
Flags: W
HStem: -40 92<179.096 325.156> 290 87<236.175 362.636> 587 86<269.367 375.308>
VStem: 127 83<403.197 529.012> 378 61<555 617> 391 93<406.959 571.901>
LayerCount: 2
Fore
SplineSet
353 580 m 0,0,1
 331 588 331 588 325 587 c 0,2,3
 312 587 312 587 268 564 c 0,4,5
 234 545 234 545 222 529.5 c 128,-1,6
 210 514 210 514 210 485 c 0,7,8
 210 470 210 470 211 461 c 0,9,10
 217 382 217 382 292 377 c 1,11,-1
 306 377 l 2,12,13
 372 377 372 377 386 450 c 0,14,15
 391 472 391 472 391 486 c 0,16,17
 391 504 391 504 387 515 c 0,18,19
 378 542 378 542 378 555 c 0,20,21
 378 571 378 571 353 580 c 0,0,1
223 645 m 0,22,23
 275 671 275 671 323 673 c 2,24,-1
 335 673 l 2,25,26
 338 673 338 673 340 673 c 0,27,28
 384 673 384 673 412 657 c 0,29,30
 439 643 439 643 439 619 c 0,31,32
 439 593 439 593 457 578 c 0,33,34
 471 564 471 564 479 530 c 0,35,36
 483 511 483 511 484 454 c 0,37,38
 483 355 483 355 473 227 c 0,39,40
 464 99 464 99 454 79 c 0,41,42
 443 57 443 57 418 30 c 128,-1,43
 393 3 393 3 378 -6 c 0,44,45
 360 -15 360 -15 301.5 -27.5 c 128,-1,46
 243 -40 243 -40 216 -40 c 0,47,48
 173 -40 173 -40 126.5 -2.5 c 128,-1,49
 80 35 80 35 74 73 c 1,50,-1
 74 82 l 2,51,52
 74 102 74 102 84 114.5 c 128,-1,53
 94 127 94 127 110 127 c 0,54,55
 111 127 111 127 113 127 c 128,-1,56
 115 127 115 127 116 127 c 0,57,58
 136 127 136 127 153 101 c 0,59,60
 168 76 168 76 197 65 c 0,61,62
 217 54 217 54 233 53 c 0,63,64
 234 53 234 53 237 52 c 0,65,66
 253 52 253 52 275 59 c 0,67,68
 336 71 336 71 356 96.5 c 128,-1,69
 376 122 376 122 386 202 c 0,70,71
 395 270 395 270 396 287 c 0,72,73
 396 300 396 300 389 301 c 2,74,-1
 380 297 l 2,75,76
 368 290 368 290 322 290 c 0,77,78
 316 290 316 290 309 290 c 0,79,80
 237 290 237 290 218 301 c 0,81,82
 198 313 198 313 165.5 347.5 c 128,-1,83
 133 382 133 382 129 399 c 0,84,85
 127 411 127 411 127 442 c 0,86,87
 127 450 127 450 127.5 466.5 c 128,-1,88
 128 483 128 483 128 493 c 0,89,90
 130 541 130 541 133 557 c 0,91,92
 135 571 135 571 151 591 c 0,93,94
 171 618 171 618 223 645 c 0,22,23
EndSplineSet
Validated: 1
EndChar

StartChar: at
Encoding: 64 64 90
Width: 761
VWidth: 1274
Flags: W
HStem: -39 88<260.086 454.527> 84 87<549.763 597.248> 116 82<325.367 432.433> 374 92<340.37 432.872> 469 20G<479.75 495.25> 548 88<263.974 473.854>
VStem: 77 87<162.154 396.438> 214 87<222.069 333.489> 449 88<213.444 358.531> 606 82<174.803 433.724>
LayerCount: 2
Fore
SplineSet
422 362 m 0,0,1
 407 374 407 374 390 374 c 0,2,3
 389 374 l 0,4,5
 372 374 372 374 349 358 c 0,6,7
 310 332 310 332 302 279 c 0,8,9
 301 270 301 270 301 260 c 0,10,11
 301 242 301 242 322 223 c 0,12,13
 348 198 348 198 372 198 c 0,14,15
 373 198 373 198 374 198 c 128,-1,16
 375 198 375 198 377 198 c 0,17,18
 415 198 415 198 433 213 c 0,19,20
 448 227 448 227 449 269 c 0,21,22
 449 282 449 282 447 300 c 0,23,24
 444 348 444 348 422 362 c 0,0,1
248 624 m 0,25,26
 271 633 271 633 358 636 c 0,27,28
 444 636 444 636 494 616 c 0,29,30
 542 598 542 598 586.5 569 c 128,-1,31
 631 540 631 540 645 515 c 0,32,33
 671 473 671 473 681 441 c 0,34,35
 688 414 688 414 688 370 c 0,36,37
 688 365 688 365 688 358 c 128,-1,38
 688 351 688 351 688 345 c 0,39,40
 688 303 688 303 687 279 c 2,41,-1
 686 144 l 1,42,-1
 658 118 l 2,43,44
 639 99 639 99 625.5 93 c 128,-1,45
 612 87 612 87 578 85 c 0,46,47
 565 84 565 84 546 84 c 0,48,49
 520 84 520 84 497 104 c 0,50,51
 477 122 477 122 466 123 c 0,52,-1
 465 123 l 0,53,54
 462 123 462 123 460 121 c 0,55,56
 451 116 451 116 406 116 c 0,57,58
 399 116 399 116 389 116 c 0,59,60
 314 116 314 116 300 122 c 0,61,62
 285 130 285 130 250 173 c 0,63,64
 225 203 225 203 219.5 215 c 128,-1,65
 214 227 214 227 214 263 c 0,66,67
 214 319 214 319 226 347 c 0,68,69
 239 379 239 379 274 413 c 0,70,71
 329 466 329 466 387 466 c 0,72,73
 388 466 388 466 389 466 c 0,74,75
 402 466 402 466 411 464 c 0,76,77
 413 464 413 464 420 463.5 c 128,-1,78
 427 463 427 463 428 463 c 0,79,80
 446 463 446 463 458 475 c 0,81,82
 472 489 472 489 487.5 489 c 128,-1,83
 503 489 503 489 517 475 c 0,84,85
 530 460 530 460 537 333 c 0,86,87
 541 234 541 234 547.5 202.5 c 128,-1,88
 554 171 554 171 570 171 c 2,89,-1
 572 171 l 2,90,91
 573 171 573 171 578 173 c 0,92,93
 593 175 593 175 599.5 201 c 128,-1,94
 606 227 606 227 606 305 c 0,95,96
 606 377 606 377 588 422 c 0,97,98
 575 461 575 461 553 481 c 0,99,100
 531 499 531 499 478 524 c 0,101,102
 433 544 433 544 362 548 c 0,103,104
 292 548 292 548 266 529.5 c 128,-1,105
 240 511 240 511 207 446 c 0,106,107
 164 357 164 357 164 279 c 0,108,109
 164 205 164 205 200 129 c 0,110,111
 213 102 213 102 222.5 91.5 c 128,-1,112
 232 81 232 81 253 74 c 0,113,114
 309 49 309 49 387 49 c 0,115,116
 405 49 405 49 412 50 c 128,-1,117
 419 51 419 51 430 51 c 0,118,119
 448 51 448 51 461 42 c 0,120,121
 474 29 474 29 474 11 c 0,122,123
 474 -8 474 -8 455 -25 c 0,124,125
 440 -39 440 -39 406 -39 c 0,126,127
 379 -39 379 -39 356 -38 c 0,128,129
 227 -30 227 -30 170 19 c 0,130,131
 77 99 77 99 77 278 c 0,132,133
 77 289 77 289 77 290 c 0,134,135
 77 294 77 294 77 298 c 0,136,137
 77 300 77 300 77 305 c 0,138,139
 77 328 77 328 84 373 c 0,140,141
 95 448 95 448 145 523 c 0,142,143
 196 602 196 602 248 624 c 0,25,26
EndSplineSet
Validated: 1
EndChar

StartChar: quoteright
Encoding: 146 8217 91
Width: 324
VWidth: 1117
Flags: W
HStem: 552 197<148.229 171.682>
VStem: 113 136<645.198 714.318>
LayerCount: 2
Fore
SplineSet
164 737 m 0,0,1
 182 748 182 748 199 749 c 0,2,3
 200 749 200 749 201 749 c 128,-1,4
 202 749 202 749 203 749 c 128,-1,5
 204 749 204 749 205 749 c 0,6,7
 227 749 227 749 243 721 c 0,8,9
 249 707 249 707 249 695 c 0,10,11
 250 690 250 690 248 686 c 0,12,13
 244 672 244 672 222 638 c 0,14,15
 216 627 216 627 204 610 c 0,16,17
 164 552 164 552 117 552 c 0,18,19
 116 552 116 552 113 552 c 0,20,21
 90 552 90 552 88 568 c 0,22,23
 88 569 88 569 88 572 c 0,24,25
 88 586 88 586 103 610 c 0,26,27
 117 630 117 630 120 644 c 0,28,29
 120 651 120 651 115 658 c 0,30,31
 113 664 113 664 113 671 c 0,32,33
 113 684 113 684 124 699 c 0,34,35
 138 723 138 723 164 737 c 0,0,1
EndSplineSet
Validated: 1
EndChar

StartChar: quoteleft
Encoding: 145 8216 92
Width: 324
VWidth: 1116
Flags: W
HStem: 552 199
VStem: 88 160
LayerCount: 2
Fore
SplineSet
165 737 m 0,0,1
 188 750 188 750 202 751 c 0,2,3
 203 751 203 751 204 751 c 128,-1,4
 205 751 205 751 208 751 c 0,5,6
 235 749 235 749 244 721 c 0,7,8
 248 708 248 708 248 697 c 0,9,10
 248 691 248 691 247 686 c 0,11,12
 241 667 241 667 223 638 c 0,13,14
 217 630 217 630 205 610 c 0,15,16
 169 555 169 555 118 552 c 0,17,18
 117 552 l 0,19,20
 95 552 95 552 89 583 c 0,21,22
 88 589 88 589 88 593 c 0,23,24
 88 615 88 615 106 625 c 0,25,26
 125 636 125 636 130 672 c 0,27,28
 137 713 137 713 140 713 c 0,29,30
 151 723 151 723 165 737 c 0,0,1
EndSplineSet
Validated: 1
EndChar

StartChar: quotedblleft
Encoding: 147 8220 93
Width: 444
VWidth: 1120
Flags: W
HStem: 540 206<131.47 166.788 281.524 327.08>
VStem: 105 107<610.447 726.19> 257 107<584.75 720.957>
LayerCount: 2
Fore
SplineSet
287 731 m 0,0,1
 300 745 300 745 313 746 c 0,2,3
 340 746 340 746 353 725 c 0,4,5
 362 713 362 713 364 689 c 0,6,7
 363 667 363 667 354 637 c 0,8,9
 353 631 353 631 352 622 c 0,10,11
 350 616 350 616 348 607 c 0,12,13
 342 574 342 574 322 557 c 128,-1,14
 302 540 302 540 284 540 c 0,15,16
 257 540 257 540 255 556 c 0,17,-1
 252 602 l 0,18,19
 256 617 256 617 257 635 c 0,20,21
 257 643 257 643 255 650 c 0,22,23
 255 654 255 654 255 658 c 0,24,25
 255 681 255 681 266 701 c 0,26,27
 278 720 278 720 287 731 c 0,0,1
131 730 m 0,28,29
 146 743 146 743 167 743 c 0,30,31
 168 743 168 743 171 743 c 0,32,33
 194 743 194 743 205 731 c 0,34,35
 212 722 212 722 212 710 c 0,36,37
 212 704 212 704 199 644 c 0,38,39
 187 591 187 591 169 566 c 0,40,41
 156 541 156 541 138 541 c 0,42,43
 137 541 l 0,44,45
 90 541 90 541 90 575 c 0,46,47
 90 583 90 583 92 595 c 0,48,49
 105 642 105 642 105 665 c 0,50,51
 105 667 105 667 105 669 c 0,52,53
 105 676 105 676 105 684 c 0,54,55
 117 718 117 718 131 730 c 0,28,29
EndSplineSet
Validated: 1
EndChar

StartChar: quotedblright
Encoding: 148 8221 94
Width: 445
VWidth: 1116
Flags: W
HStem: 546 220
VStem: 90 131<577 698> 103 118<624.237 731.051> 239 93<570.562 693.276>
LayerCount: 2
Fore
SplineSet
135 739 m 0,0,1
 155 753 155 753 177 756 c 4,2,3
 203 756 203 756 213 735 c 0,4,5
 221 717 221 717 221 698 c 0,6,7
 221 673 221 673 207 647 c 0,8,9
 205 640 205 640 201 630.5 c 128,-1,10
 197 621 197 621 196 615 c 0,11,12
 182 580 182 580 159 566 c 0,13,14
 136 548 136 548 117 548 c 128,-1,15
 98 548 98 548 91 566 c 0,16,17
 90 570 90 570 90 577 c 0,18,19
 90 590 90 590 98 611 c 0,20,21
 103 622 103 622 103 644 c 0,22,23
 103 647 103 647 103 651 c 0,24,25
 103 660 103 660 102 672 c 0,26,27
 102 675 102 675 102 679 c 0,28,29
 102 699 102 699 109 711 c 0,30,31
 115 724 115 724 135 739 c 0,0,1
293 752 m 0,32,33
 312 766 312 766 336 766 c 0,34,35
 358 766 358 766 368 754 c 0,36,37
 376 743 376 743 368 725 c 0,38,39
 332 644 332 644 332 641 c 0,40,41
 318 573 318 573 317 570 c 0,42,43
 299 546 299 546 269 546 c 0,44,45
 268 546 268 546 267 546 c 0,46,47
 247 547 247 547 241 570 c 0,48,49
 239 588 239 588 239 605.5 c 128,-1,50
 239 623 239 623 241 637 c 0,51,52
 245 659 245 659 260 706 c 0,53,54
 267 730 267 730 293 752 c 0,32,33
EndSplineSet
Validated: 1
EndChar

StartChar: quotesinglbase
Encoding: 130 8218 95
Width: 277
VWidth: 1364
Flags: W
HStem: 12 192
VStem: 102 89<63.5374 194.591>
LayerCount: 2
Fore
SplineSet
99 153 m 0,0,1
 98 156 98 156 98 159 c 0,2,3
 98 172 98 172 116 188 c 0,4,5
 129 202 129 202 150 204 c 0,6,7
 158 204 158 204 177 188 c 0,8,9
 191 177 191 177 191 156 c 0,10,11
 191 143 191 143 186 127 c 0,12,13
 179 98 179 98 172 72 c 0,14,15
 166 57 166 57 156 35 c 0,16,17
 144 13 144 13 137 12 c 0,18,19
 126 10 126 10 117 14 c 0,20,21
 104 22 104 22 98 36 c 0,22,23
 97 45 97 45 97 47 c 0,24,25
 103 83 103 83 103 95 c 2,26,-1
 102 114 l 2,27,28
 102 116 102 116 102 119 c 0,29,30
 102 133 102 133 99 153 c 0,0,1
EndSplineSet
Validated: 1
EndChar

StartChar: ellipsis
Encoding: 133 8230 96
Width: 567
VWidth: 1366
Flags: W
HStem: 51 93<105.923 171.077 253.439 318.53 403.408 468.561>
VStem: 92 93<65.4385 129.531> 240 93<66.4385 130.531>
LayerCount: 2
Fore
SplineSet
403 130 m 0,0,1
 416 144 416 144 436 144 c 0,2,3
 455 143 455 143 469 131 c 0,4,5
 482 119 482 119 482 102 c 0,6,7
 482 82 482 82 467.5 66.5 c 128,-1,8
 453 51 453 51 437 51 c 0,9,10
 417 51 417 51 403 65 c 128,-1,11
 389 79 389 79 389 97 c 0,12,13
 390 115 390 115 403 130 c 0,0,1
253 131 m 4,14,15
 266 145 266 145 285 145 c 132,-1,16
 304 145 304 145 319 133 c 4,17,18
 332 120 332 120 333 100 c 4,19,20
 333 82 333 82 317 67 c 4,21,22
 303 53 303 53 287 52 c 4,23,24
 267 52 267 52 253 66 c 4,25,26
 240 80 240 80 240 98 c 132,-1,27
 240 116 240 116 253 131 c 4,14,15
105 130 m 0,28,29
 118 144 118 144 138 144 c 128,-1,30
 158 144 158 144 171.5 131.5 c 128,-1,31
 185 119 185 119 185 99 c 0,32,33
 185 81 185 81 170.5 66 c 128,-1,34
 156 51 156 51 139 51 c 0,35,36
 119 51 119 51 105.5 65 c 128,-1,37
 92 79 92 79 92 97 c 128,-1,38
 92 115 92 115 105 130 c 0,28,29
EndSplineSet
Validated: 1
EndChar

StartChar: quotedblbase
Encoding: 132 8222 97
Width: 451
VWidth: 1312
Flags: W
HStem: -61 206<123.644 170.476 285.643 320.436>
VStem: 88 109<-32.5762 103.621> 239 121<-26 109> 239 105<-45.2285 70.8965>
LayerCount: 2
Fore
SplineSet
164 -47 m 0,0,1
 151 -61 151 -61 137 -61 c 0,2,3
 110 -61 110 -61 97 -41 c 0,4,5
 88 -29 88 -29 88 -5 c 0,6,7
 88 17 88 17 96 46 c 0,8,9
 97 52 97 52 99 62 c 0,10,11
 101 68 101 68 102 77 c 0,12,13
 108 110 108 110 128 127 c 128,-1,14
 148 144 148 144 168 145 c 0,15,16
 195 145 195 145 197 128 c 0,17,-1
 199 82 l 0,18,19
 195 67 195 67 195 49 c 0,20,21
 195 41 195 41 197 34 c 0,22,23
 197 29 197 29 197 25 c 0,24,25
 197 2 197 2 185 -17 c 128,-1,26
 173 -36 173 -36 164 -47 c 0,0,1
321 -46 m 0,27,28
 303 -60 303 -60 280 -60 c 128,-1,29
 257 -60 257 -60 246 -47 c 0,30,31
 239 -38 239 -38 239 -26 c 0,32,33
 239 -20 239 -20 253 40 c 0,34,35
 265 93 265 93 283 118 c 0,36,37
 296 143 296 143 312 143 c 0,38,39
 313 143 l 0,40,41
 360 143 360 143 360 109 c 0,42,43
 360 101 360 101 358 89 c 0,44,45
 345 42 345 42 344 19 c 0,46,47
 344 17 344 17 344 15 c 0,48,49
 344 8 344 8 344 0 c 0,50,51
 335 -34 335 -34 321 -46 c 0,27,28
EndSplineSet
Validated: 1
EndChar

StartChar: uni00B2
Encoding: 178 178 98
Width: 317
VWidth: 1185
Flags: W
HStem: 484 27<145 231.977> 693 1<159.372 170.028>
VStem: 201 26<600.5 661.41>
LayerCount: 2
Fore
SplineSet
159 693 m 0,0,1
 171 693 171 693 170 694 c 2,2,-1
 177 694 l 2,3,4
 186 694 186 694 191 691.5 c 128,-1,5
 196 689 196 689 204 680 c 0,6,7
 219 666 219 666 221 662 c 0,8,9
 227 643 227 643 226.5 639.5 c 128,-1,10
 226 636 226 636 227 631 c 0,11,12
 227 602 227 602 198 567 c 0,13,14
 191 559 191 559 157 522 c 2,15,-1
 145 509 l 1,16,-1
 169 511 l 2,17,18
 177 511 177 511 181 511 c 0,19,20
 204 511 204 511 218.5 506 c 128,-1,21
 233 501 233 501 233 494 c 0,22,23
 233 482 233 482 217 481 c 0,24,25
 210 481 210 481 198 484 c 0,26,27
 186 485 186 485 179 485 c 0,28,29
 175 485 175 485 159 484 c 0,30,31
 133 484 l 0,32,33
 127 484 l 0,34,35
 124 484 124 484 120 484 c 0,36,37
 87 484 87 484 87 495 c 0,38,39
 87 497 87 497 88 500 c 0,40,41
 94 511 94 511 112 522 c 0,42,-1
 127 539 l 0,43,-1
 150 559 l 0,44,45
 161 568 161 568 175 586 c 0,46,47
 183 595 183 595 189.5 602 c 128,-1,48
 196 609 196 609 197 614 c 0,49,50
 201 628 201 628 201 634 c 0,51,52
 200 656 200 656 186.5 662.5 c 128,-1,53
 173 669 173 669 173 668 c 2,54,-1
 170 668 l 2,55,56
 156 668 156 668 135 659 c 0,57,58
 116 651 116 651 112 643 c 0,59,60
 106 636 106 636 99 636 c 0,61,62
 95 636 95 636 91 639 c 128,-1,63
 87 642 87 642 87 647 c 0,64,65
 87 654 87 654 98 665 c 0,66,67
 123 692 123 692 159 693 c 0,0,1
EndSplineSet
Validated: 1
EndChar

StartChar: backslash
Encoding: 92 92 100
Width: 467
VWidth: 1266
Flags: W
VStem: 72 322
LayerCount: 2
Fore
SplineSet
366 135 m 4,0,1
 394 70 394 70 394 32 c 0,2,3
 394 -2 394 -2 378 -16 c 4,4,5
 365 -29 365 -29 342 -31 c 4,6,7
 340 -31 340 -31 339 -31 c 0,8,9
 321 -31 321 -31 309 -19 c 4,10,11
 300 -6 300 -6 296 14 c 4,12,13
 289 52 289 52 264 112.5 c 132,-1,14
 239 173 239 173 209 254 c 4,15,16
 187 313 187 313 140 432 c 4,17,18
 87 561 87 561 76 604 c 4,19,20
 72 619 72 619 72 632 c 0,21,22
 72 654 72 654 83 665 c 4,23,24
 94 677 94 677 111 677 c 0,25,26
 113 677 113 677 116 677 c 4,27,28
 135 675 135 675 151 659 c 6,29,-1
 159 652 l 5,30,31
 189 611 189 611 303 298 c 4,32,33
 334 212 334 212 366 135 c 4,0,1
EndSplineSet
Validated: 1
EndChar

